<svg width="320" height="413" fill="none" xmlns="http://www.w3.org/2000/svg"><path d="M1.8 85.8h1V95h-1v-9.2zm3.5 2.4h.9v1l1.2-.9c.3-.2.7-.3 1.2-.3.7 0 1.2.3 1.5.7.4.5.5 1.1.5 2V95h-1v-4.2c0-.6 0-1.1-.3-1.4-.2-.3-.5-.5-1-.5-.4 0-.7.1-1 .3l-1 .8v5h-1v-6.8zm9.4 7a4.3 4.3 0 01-2.5-1l.5-.7 1 .7 1 .2c.4 0 .8-.1 1-.4.3-.2.4-.4.4-.8a1 1 0 00-.4-.7l-1.2-.6A6 6 0 0113 91c-.4-.2-.5-.6-.5-1.2 0-.5.2-1 .6-1.3.4-.4 1-.6 1.7-.6.4 0 .7.1 1 .3.4 0 .7.3 1 .5l-.5.7a4 4 0 00-.7-.5 2 2 0 00-.8-.1c-.5 0-.8 0-1 .3a1 1 0 00-.3.7c0 .2 0 .4.2.5 0 .2.3.3.5.4a33 33 0 001.9.8c.3.1.5.3.7.6a1.8 1.8 0 010 2 2 2 0 01-.8.7 3 3 0 01-1.3.3zm6 0c-.7 0-1.2-.2-1.5-.6-.3-.4-.4-1-.4-1.6v-4h-1v-.7h1l.2-2h.8v2h1.9v.8h-1.9V93c0 .4 0 .8.3 1 .1.2.4.3.8.3l.8-.2.2.8a4 4 0 01-1.2.3zm3.8 0a2 2 0 01-1.4-.5c-.4-.4-.6-.8-.6-1.5s.3-1.3 1-1.6c.7-.4 1.7-.7 3.2-.9 0-.5 0-1-.3-1.3-.2-.3-.6-.5-1.1-.5-.7 0-1.4.2-2 .7l-.5-.7c.9-.6 1.8-.9 2.6-.9s1.4.3 1.8.8c.3.5.5 1.1.5 2V95H27v-.8h-.1c-.8.6-1.6 1-2.3 1zm.2-.9c.4 0 .7 0 1-.2l1-.7v-2c-1.1.1-2 .4-2.5.6-.5.3-.7.7-.7 1.2 0 .4.1.7.4.9l.8.2zm6.4.9c-.4 0-.7-.1-.9-.4-.2-.2-.2-.6-.2-1V85h1V94.2l.3.1h.2l.2.8H31zm3.5 0c-.4 0-.7-.1-.9-.4-.2-.2-.2-.6-.2-1V85h1V94.2l.3.1h.2l.2.8h-.6zm5.2-7h.8v.8h.1c.8-.6 1.6-1 2.2-1 .9 0 1.6.4 2 1 .5.6.7 1.4.7 2.5 0 .7-.1 1.4-.4 2-.3.5-.6 1-1 1.2-.5.3-1 .5-1.5.5-.6 0-1.3-.3-2-.8v3.5h-1v-9.7zm2.7 6.1c.4 0 .7-.1 1-.3.4-.3.6-.6.8-1 .2-.4.3-1 .3-1.5 0-.8-.2-1.4-.5-1.9s-.8-.7-1.4-.7c-.6 0-1.2.3-2 1v3.7l1 .5.8.2zm5-6h.8l.1 1.2c.3-.5.6-.8.9-1a1.8 1.8 0 011.8-.3l-.2.9-.7-.1c-.3 0-.6.1-1 .4-.2.2-.5.6-.7 1.2V95h-1v-6.8zm7.2 6.9a3 3 0 01-2.7-1.7 4 4 0 01-.4-1.9c0-.7.1-1.4.4-1.9a3 3 0 012.7-1.7c.6 0 1 .2 1.5.5s.9.7 1.2 1.2c.3.5.4 1.2.4 2a4 4 0 01-.4 1.8 3 3 0 01-1.1 1.2 3 3 0 01-1.6.5zm0-.9c.4 0 .8-.1 1-.3.4-.2.6-.6.8-1 .2-.4.3-.9.3-1.4 0-.5-.1-1-.3-1.4l-.7-1c-.3-.2-.7-.3-1.1-.3-.4 0-.8.1-1 .3-.4.3-.6.6-.8 1-.2.4-.3.9-.3 1.4 0 .8.2 1.5.6 2 .4.5.9.7 1.5.7zm7.6.9c-.6 0-1.1-.2-1.6-.5a3 3 0 01-1.2-1.2c-.2-.5-.4-1.2-.4-1.9s.2-1.4.5-1.9.7-1 1.2-1.2c.5-.3 1-.5 1.6-.5.7 0 1.4.3 2 .9l-.6.6-.7-.4-.7-.2a2 2 0 00-1.1.3c-.4.3-.6.6-.8 1-.2.4-.3.9-.3 1.4 0 .8.2 1.5.6 2 .4.5 1 .7 1.6.7.6 0 1.1-.2 1.6-.7l.5.7c-.3.3-.7.5-1 .6l-1.2.3zm5.6 0c-.6 0-1.1-.2-1.4-.6-.3-.4-.4-1-.4-1.6v-4h-1v-.7h1l.1-2h.9v2H69v.8h-2V93c0 .4.2.8.3 1 .2.2.5.3.9.3l.8-.2.2.8a4 4 0 01-1.3.3zm5 0a3 3 0 01-2.7-1.7 4 4 0 01-.4-1.9c0-.7.2-1.4.4-1.9A3 3 0 0173 88c.6 0 1.1.2 1.6.5s.8.7 1.1 1.2c.3.5.5 1.2.5 2a4 4 0 01-.5 1.8 3 3 0 01-1.1 1.2 3 3 0 01-1.6.5zm0-.9c.4 0 .8-.1 1.1-.3.3-.2.6-.6.7-1 .2-.4.3-.9.3-1.4 0-.5 0-1-.3-1.4-.1-.4-.4-.7-.7-1-.3-.2-.7-.3-1-.3-.5 0-.8.1-1.1.3-.4.3-.6.6-.8 1l-.2 1.4c0 .8.2 1.5.6 2 .3.5.8.7 1.4.7zm5-6h.8l.1 1.2c.3-.5.6-.8 1-1a1.8 1.8 0 011.7-.3l-.2.9-.6-.1c-.4 0-.7.1-1 .4-.3.2-.6.6-.8 1.2V95h-1v-6.8zm4.8 0h1V95h-1v-6.8zm.5-1.5l-.5-.2a.7.7 0 01-.2-.6c0-.2 0-.3.2-.5l.5-.1.5.1.2.5c0 .3 0 .4-.2.6l-.5.2zm2.9 1.4h.8v1h.1l1.1-.9 1.2-.3c.7 0 1.2.3 1.6.7.3.5.5 1.1.5 2V95h-1v-4.2c0-.6-.2-1.1-.4-1.4-.2-.3-.5-.5-1-.5l-1 .3-1 .8v5h-1v-6.8zm9.8 10c-.8 0-1.5-.2-2-.5-.5-.4-.8-.8-.8-1.4 0-.3.1-.5.3-.8l.7-.7-.4-.5-.2-.7c0-.3 0-.5.2-.7l.6-.6-.7-.8-.2-1a2.4 2.4 0 011.2-2.2 2.8 2.8 0 012.2-.1h2.4v.8h-1.5l.5.7.1.8c0 .4 0 .9-.3 1.2-.2.4-.5.7-.9.8a2.6 2.6 0 01-2.2.1l-.4.4-.1.4c0 .3 0 .5.3.6.1.2.5.2.9.2H97c.8 0 1.3.1 1.7.4.4.3.6.7.6 1.2 0 .4-.1.8-.4 1.2-.3.3-.7.6-1.2.8-.5.3-1.1.4-1.8.4zm0-6c.4 0 .8-.2 1-.5.4-.3.5-.7.5-1.2s-.1-1-.4-1.2c-.3-.3-.7-.5-1.1-.5-.4 0-.8.2-1.1.5-.3.3-.4.7-.4 1.2s.1.9.4 1.2c.3.3.7.4 1 .4zm.2 5.2c.4 0 .8 0 1.1-.2.4-.1.6-.3.8-.5.2-.2.3-.5.3-.7 0-.4-.1-.6-.4-.7-.2-.2-.5-.2-1-.2h-1.3l-.8-.1c-.5.3-.8.7-.8 1.2 0 .4.2.7.6.9.3.2.8.3 1.5.3zm-87.4 6.8h1l1.1 4 .2.7.3 1.2.5-1.8 1-4H14l1.1 4 .5 1.8.5-1.8 1-4h1l-1.8 6.7h-1.3l-1-3.8-.3-1.1-.2-.8-.6 2-1 3.7h-1.1l-2-6.8zm16 3v.6h-4.8c0 .8.3 1.4.8 1.9.4.4 1 .6 1.6.6a3 3 0 001.7-.5l.4.7-1 .5a3.7 3.7 0 01-2.9-.3c-.5-.2-.8-.7-1.1-1.2a4 4 0 01-.4-1.9c0-.7 0-1.3.4-1.9.3-.5.6-1 1.1-1.2.5-.3 1-.5 1.5-.5.8 0 1.5.3 2 .9.4.6.7 1.3.7 2.3zm-1-.1c0-.7-.1-1.3-.4-1.7-.3-.3-.7-.5-1.3-.5-.5 0-1 .2-1.3.5-.4.4-.7 1-.7 1.7h3.8zm5.6 4c-.3 0-.7 0-1-.2-.4-.1-.7-.3-1-.6l-.1.7h-.8v-10h1v4c.7-.6 1.4-1 2.1-1 1 0 1.6.4 2 1 .5.6.7 1.4.7 2.5 0 .7-.1 1.4-.4 2-.2.5-.6 1-1 1.2-.5.3-1 .5-1.5.5zm-.2-.8c.4 0 .8-.1 1-.3.4-.3.6-.6.8-1 .2-.4.3-1 .3-1.5 0-.8-.2-1.4-.5-1.9s-.8-.7-1.4-.7c-.6 0-1.2.3-2 1v3.7l1 .5.8.2zm13-3v.5h-4.8c0 .8.3 1.4.8 1.9.4.4 1 .6 1.6.6a3 3 0 001.7-.5l.4.7-1 .5a3.7 3.7 0 01-2.9-.3c-.4-.2-.8-.7-1.1-1.2a4 4 0 01-.4-1.9c0-.7.1-1.3.4-1.9.3-.5.6-1 1.1-1.2.5-.3 1-.5 1.5-.5.8 0 1.5.3 2 .9.4.6.7 1.3.7 2.3zm-1-.2c0-.7 0-1.3-.4-1.7-.3-.3-.7-.5-1.3-.5-.5 0-1 .2-1.3.5-.4.4-.7 1-.7 1.7h3.8zm3.8.4l-2-3.3h1l1 1.6.7 1 .7-1 .9-1.6h1l-2 3.4 2.2 3.4h-1l-1.1-1.7-.8-1.2-.5.8-.3.4-1 1.7h-1l2.2-3.5zm6.6 3.7c-.6 0-1.1-.2-1.4-.6-.3-.4-.5-1-.5-1.6v-4h-1v-.7h1l.2-2h.9v2h1.8v.8h-1.8v3.9c0 .4 0 .8.2 1 .2.2.5.3.8.3.2 0 .5 0 .8-.2l.2.8a4 4 0 01-1.2.3zm7.6-4v.6h-4.7c0 .8.3 1.4.7 1.9.4.4 1 .6 1.6.6a3 3 0 001.8-.5l.3.7-1 .5a3.7 3.7 0 01-2.8-.3c-.5-.2-.9-.7-1.2-1.2a4 4 0 01-.4-1.9c0-.7.1-1.3.4-1.9.3-.5.7-1 1.1-1.2.5-.3 1-.5 1.5-.5.9 0 1.5.3 2 .9.5.6.7 1.3.7 2.3zm-1-.1c0-.7 0-1.3-.4-1.7-.3-.3-.7-.5-1.3-.5-.5 0-1 .2-1.3.5-.4.4-.6 1-.7 1.7h3.8zm2.7-2.9h.9v1l1.2-.9c.3-.2.7-.3 1.2-.3.7 0 1.2.3 1.5.7.4.5.5 1.1.5 2v4.3h-1v-4.2c0-.6 0-1.1-.3-1.4-.2-.3-.6-.5-1-.5s-.7.1-1 .3l-1 .8v5h-1v-6.8zm9.4 7c-.5 0-1-.1-1.4-.3l-1.2-.7.6-.7 1 .7 1 .2c.4 0 .8-.1 1-.4.3-.2.4-.4.4-.8a1 1 0 00-.4-.7l-1.2-.6a6 6 0 01-1.5-.8c-.4-.2-.5-.6-.5-1.2 0-.5.2-1 .6-1.3.4-.4 1-.6 1.7-.6.3 0 .7.1 1 .3.4 0 .7.3 1 .5l-.5.7a4 4 0 00-.7-.5 2 2 0 00-.8-.1c-.5 0-.8 0-1 .3a1 1 0 00-.4.7l.2.5.5.4a32.8 32.8 0 002 .8c.3.1.5.3.7.6a1.8 1.8 0 010 2 2 2 0 01-.8.7 3 3 0 01-1.3.3zm4-7h1v6.8h-1v-6.8zm.6-1.4l-.5-.2a.7.7 0 01-.2-.6c0-.2 0-.3.2-.5l.5-.1.5.1.2.5-.2.6-.5.2zm5.4 8.4a3 3 0 01-2.7-1.7 4 4 0 01-.4-1.9c0-.7.1-1.4.4-1.9a3 3 0 012.7-1.7c.6 0 1.1.2 1.6.5s.8.7 1.1 1.2c.3.5.4 1.2.4 2a4 4 0 01-.4 1.8 3 3 0 01-1.1 1.2 3 3 0 01-1.6.5zm0-.9c.4 0 .8-.1 1-.3.4-.2.7-.6.8-1 .2-.4.3-.9.3-1.4 0-.5-.1-1-.3-1.4-.1-.4-.4-.7-.7-1-.3-.2-.7-.3-1-.3-.5 0-.8.1-1.2.3l-.7 1c-.2.4-.2.9-.2 1.4 0 .8.2 1.5.5 2 .4.5 1 .7 1.5.7zm5-6h.8l.1 1c.4-.5.8-.7 1.2-1 .3-.2.7-.3 1.1-.3.7 0 1.3.3 1.6.7.3.5.5 1.1.5 2v4.3h-1v-4.2c0-.6-.1-1.1-.3-1.4-.2-.3-.6-.5-1-.5s-.7.1-1 .3l-1 .8v5h-1v-6.8zm-61 22.9a3 3 0 01-2.7-1.7 4 4 0 01-.4-1.9c0-.7.2-1.4.4-1.9a3 3 0 012.7-1.7c.6 0 1.1.2 1.6.5s.8.7 1.1 1.2c.3.5.5 1.2.5 2a4 4 0 01-.5 1.8 3 3 0 01-1.1 1.2 3 3 0 01-1.6.5zm0-.9c.4 0 .8-.1 1.1-.3.3-.2.6-.6.7-1 .2-.4.3-.9.3-1.4 0-.5 0-1-.3-1.4-.1-.4-.4-.7-.7-1-.3-.2-.7-.3-1-.3-.5 0-.8.1-1.1.3l-.8 1-.2 1.4c0 .8.2 1.5.6 2 .3.5.8.7 1.4.7zm5-6h.9v1l1.2-1c.3-.2.7-.3 1.2-.3.7 0 1.2.3 1.5.7.4.5.5 1.1.5 2v4.3h-1v-4.2c0-.6-.1-1.1-.3-1.4-.2-.3-.6-.5-1-.5s-.7.1-1 .3l-1 .8v5h-1v-6.8zm14 6.9a4 4 0 01-2-.6c-.7-.4-1.2-1-1.5-1.7-.4-.7-.5-1.5-.5-2.5s.1-1.8.5-2.5c.3-.7.8-1.3 1.5-1.7a4 4 0 012.1-.6c1 0 2 .4 2.7 1.2l-.6.6c-.6-.6-1.2-.9-2-.9a3 3 0 00-1.7.5 3 3 0 00-1 1.3 5 5 0 00-.5 2c0 1.3.3 2.2.9 3 .5.6 1.3 1 2.3 1 .3 0 .6 0 1-.2l.7-.4v-2.5h-2v-.9h3v3.8c-.3.3-.7.6-1.2.8-.5.2-1 .3-1.6.3zm7.6 0a3 3 0 01-2.7-1.7 4 4 0 01-.4-1.9c0-.7.1-1.4.4-1.9a3 3 0 012.7-1.7c.6 0 1 .2 1.6.5.4.3.8.7 1 1.2.4.5.5 1.2.5 2a4 4 0 01-.4 1.8 3 3 0 01-1.1 1.2 3 3 0 01-1.6.5zm0-.9c.4 0 .8-.1 1-.3.4-.2.6-.6.8-1 .2-.4.3-.9.3-1.4 0-.5-.1-1-.3-1.4l-.7-1c-.3-.2-.7-.3-1-.3-.5 0-.9.1-1.2.3l-.7 1c-.2.4-.3.9-.3 1.4 0 .8.2 1.5.6 2 .4.5.9.7 1.5.7zm7.6.9a3 3 0 01-2.7-1.7 4 4 0 01-.5-1.9c0-.7.2-1.4.5-1.9a3 3 0 012.7-1.7c.5 0 1 .2 1.5.5s.9.7 1.2 1.2c.2.5.4 1.2.4 2a4 4 0 01-.4 1.8 3 3 0 01-1.2 1.2 3 3 0 01-1.5.5zm0-.9c.4 0 .7-.1 1-.3.3-.2.6-.6.8-1 .2-.4.2-.9.2-1.4 0-.5 0-1-.2-1.4l-.8-1c-.3-.2-.6-.3-1-.3s-.8.1-1.1.3c-.3.3-.6.6-.7 1-.2.4-.3.9-.3 1.4 0 .8.2 1.5.6 2 .4.5.9.7 1.5.7zm7.2 3.9c-.8 0-1.5-.2-2-.5-.5-.4-.8-.8-.8-1.4 0-.3 0-.5.3-.8.1-.3.4-.5.7-.7l-.4-.5-.2-.7c0-.3 0-.5.2-.7l.5-.6-.6-.8-.2-1a2.4 2.4 0 011.2-2.2 2.8 2.8 0 012.2-.1H69v.8h-1.5l.5.7.1.8c0 .4 0 .9-.3 1.2-.2.4-.5.7-.9.8a2.6 2.6 0 01-2.3.1l-.3.4-.1.4c0 .3 0 .5.2.6.2.2.5.2 1 .2h1.3c.8 0 1.4.1 1.8.4.4.3.6.7.6 1.2 0 .4-.2.8-.4 1.2-.3.3-.7.6-1.2.8-.5.3-1.1.4-1.8.4zm0-6c.4 0 .8-.2 1-.5.3-.3.5-.7.5-1.2s-.2-1-.4-1.2c-.3-.3-.7-.5-1.1-.5-.5 0-.8.2-1.1.5-.3.3-.4.7-.4 1.2s.1.9.4 1.2c.3.3.6.4 1 .4zm.1 5.2c.5 0 .9 0 1.2-.2l.8-.5c.2-.2.3-.5.3-.7 0-.4-.1-.6-.4-.7-.2-.2-.6-.2-1-.2h-1.3l-.9-.1c-.5.3-.7.7-.7 1.2 0 .4.2.7.5.9.4.2 1 .3 1.5.3zm5.7-2.2c-.3 0-.6-.1-.8-.4-.2-.2-.3-.6-.3-1V117h1v8.8l.1.4.3.1h.2l.2.8h-.7zm7.6-4v.6h-4.7c0 .8.3 1.4.7 1.9.5.4 1 .6 1.7.6a3 3 0 001.7-.5l.4.7-1 .5a3.7 3.7 0 01-3-.3c-.4-.2-.8-.7-1-1.2a4 4 0 01-.5-1.9c0-.7.1-1.3.4-1.9.3-.5.7-1 1.2-1.2.4-.3 1-.5 1.4-.5.9 0 1.5.3 2 .9.5.6.7 1.3.7 2.3zm-.9-.1c0-.7-.1-1.3-.5-1.7-.3-.3-.7-.5-1.2-.5s-1 .2-1.4.5c-.4.4-.6 1-.7 1.7h3.8zm-54 20c-.8 0-1.5-.1-2-.5a4 4 0 01-1.5-1.7 6 6 0 01-.5-2.5c0-1 .2-1.8.5-2.5a3.8 3.8 0 013.5-2.3c.5 0 1 .1 1.4.4.5.2.8.4 1.1.8l-.5.6c-.6-.6-1.2-.9-2-.9-.5 0-1 .2-1.5.5a3 3 0 00-1 1.3c-.3.6-.4 1.3-.4 2 0 .9 0 1.5.3 2.1.3.6.6 1 1 1.4.5.3 1 .5 1.6.5l1.2-.3 1-.8.6.6c-.4.5-.8.8-1.3 1-.4.3-1 .4-1.5.4zm4.4-10.1h1V137.2a5 5 0 011-.8c.4-.3.8-.4 1.3-.4.7 0 1.2.3 1.5.7.4.5.5 1.1.5 2v4.3h-1v-4.2c0-.6 0-1.1-.3-1.4-.2-.3-.5-.5-1-.5-.4 0-.7.1-1 .3l-1 .8v5h-1v-10zm7.6 3.2h.8l.1 1.3c.3-.5.6-.8.9-1a1.8 1.8 0 011.8-.3l-.2.9-.7-.1c-.3 0-.6.1-1 .4-.2.2-.5.6-.7 1.2v4.4h-1v-6.8zm7.2 7a3 3 0 01-2.7-1.7 4 4 0 01-.4-1.9c0-.7.1-1.4.4-1.9a3 3 0 012.7-1.7c.6 0 1 .2 1.5.5s.9.7 1.2 1.2c.3.5.4 1.2.4 2a4 4 0 01-.4 1.8 3 3 0 01-1.2 1.2 3 3 0 01-1.5.5zm0-.9c.4 0 .7-.1 1-.3.4-.2.6-.6.8-1 .2-.4.3-.9.3-1.4 0-.5-.1-1-.3-1.4l-.7-1c-.4-.2-.7-.3-1.1-.3-.4 0-.8.1-1 .3-.4.3-.6.6-.8 1-.2.4-.3.9-.3 1.4 0 .8.2 1.5.6 2 .4.5.9.7 1.5.7zm5-6h.8v1h.1c.7-.9 1.5-1.3 2.1-1.3 1 0 1.6.5 2 1.4.3-.5.7-.8 1-1 .4-.2.8-.4 1.2-.4 1.3 0 2 1 2 2.7v4.3h-1v-4.2c0-.6-.1-1.1-.3-1.4-.2-.3-.6-.5-1-.5-.6 0-1.1.4-1.8 1.1v5h-1v-4.2c0-.6-.1-1.1-.3-1.4-.3-.3-.6-.5-1-.5-.6 0-1.2.4-1.8 1.1v5h-1v-6.8zm16.7 3v.5h-4.7c0 .8.3 1.4.7 1.9.4.4 1 .6 1.6.6a3 3 0 001.8-.5l.3.7-1 .5a3.7 3.7 0 01-2.8-.3c-.5-.2-1-.7-1.2-1.2a4 4 0 01-.4-1.9c0-.7.1-1.3.4-1.9.3-.5.7-1 1.1-1.2.5-.3 1-.5 1.5-.5.9 0 1.5.3 2 .9.5.6.7 1.3.7 2.3zm-1-.2c0-.7 0-1.3-.4-1.7-.3-.3-.7-.5-1.3-.5-.5 0-1 .2-1.3.5-.4.4-.6 1-.7 1.7H64zm8.1 4a3 3 0 01-2.7-1.6 4 4 0 01-.4-1.9c0-.7.1-1.4.4-1.9a3 3 0 012.7-1.7c.6 0 1 .2 1.6.5.4.3.8.7 1 1.2.4.5.5 1.2.5 2a4 4 0 01-.4 1.8 3 3 0 01-1.1 1.2 3 3 0 01-1.6.5zm0-.8c.4 0 .8-.1 1-.3.4-.2.6-.6.8-1 .2-.4.3-.9.3-1.4 0-.5-.1-1-.3-1.4l-.7-1c-.3-.2-.7-.3-1.1-.3-.4 0-.8.1-1 .3-.4.3-.6.6-.8 1-.2.4-.3.9-.3 1.4 0 .8.2 1.5.6 2 .4.5.9.7 1.5.7zm5-6h.8v1.2h.1c.3-.5.6-.8.9-1a1.8 1.8 0 011.8-.3l-.2.9-.7-.1c-.3 0-.6.1-1 .4-.2.2-.5.6-.7 1.2v4.4h-1v-6.8zM8.3 149.7h1.3l1.8 5 .6 2h.1a19.2 19.2 0 00.7-2l1.7-5h1.3v9.2h-1v-5.3l.2-2.7-.8 2.1-1.8 5h-.7l-1.8-5-.7-2H9v.3l.1 2.3v5.3h-.9v-9.2zm12.6 9.4a3 3 0 01-2.7-1.7 4 4 0 01-.4-1.9c0-.7.1-1.4.4-1.9a3 3 0 012.7-1.7c.5 0 1 .2 1.5.5s.9.7 1.2 1.2c.3.5.4 1.2.4 2a4 4 0 01-.4 1.8 3 3 0 01-1.2 1.2 3 3 0 01-1.5.5zm0-.9c.4 0 .7-.1 1-.3.4-.2.6-.6.8-1 .2-.4.3-.9.3-1.4 0-.5-.1-1-.3-1.4-.2-.4-.4-.7-.8-1-.3-.2-.6-.3-1-.3s-.8.1-1.1.3c-.3.3-.6.6-.7 1-.2.4-.3.9-.3 1.4 0 .8.2 1.5.6 2 .4.5.9.7 1.5.7zm4.1.2l3.7-5.4h-3.3v-.9H30v.6l-3.7 5.4h3.8v.8h-5v-.5zm6.6-6.3h1v6.8h-1v-6.8zm.6-1.4l-.5-.2a.7.7 0 01-.2-.6c0-.2 0-.3.2-.4 0-.2.3-.2.5-.2s.3 0 .5.2l.2.4-.2.6-.5.2zm4 8.4c-.4 0-.7-.1-.9-.4-.2-.2-.3-.6-.3-1V149h1v8.8l.1.4.3.1h.2l.2.8H36zm3.4 0c-.3 0-.6-.1-.8-.4-.2-.2-.3-.6-.3-1V149h1v8.8l.1.4.3.1h.2l.2.8h-.7zm4 0a2 2 0 01-1.5-.5c-.3-.4-.5-.8-.5-1.4 0-.8.3-1.4 1-1.7.7-.4 1.7-.7 3.2-.9 0-.5-.1-1-.3-1.3-.2-.3-.6-.5-1.1-.5-.7 0-1.4.2-2.1.7l-.4-.7c.9-.6 1.8-.9 2.6-.9s1.4.3 1.8.8c.3.5.5 1.1.5 2v4.2H46l-.1-.8c-.8.6-1.6 1-2.3 1zm.2-.9c.4 0 .7 0 1-.2l1-.7v-2c-1.1.1-2 .4-2.5.6-.5.3-.7.7-.7 1.2 0 .4.1.7.3.9l1 .2zm8.2-8.5h5.2v.9H53v3.2h3.5v.9H53v4.2h-1v-9.2zm6.7 2.4h1v6.8h-1v-6.8zm.5-1.4l-.5-.2a.7.7 0 01-.2-.6l.2-.4c.2-.2.3-.2.5-.2s.4 0 .5.2c.2 0 .2.2.2.4 0 .3 0 .4-.2.6l-.5.2zm3 1.4h.7l.1 1.3c.3-.5.6-.8 1-1a1.8 1.8 0 011.7-.3l-.2.9-.6-.1c-.4 0-.7.1-1 .4-.3.2-.6.6-.8 1.2v4.4h-1v-6.8zm9.7 3v.6h-4.7c0 .8.3 1.4.7 1.9.5.4 1 .6 1.6.6a3 3 0 001.8-.5l.3.7-1 .5a3.7 3.7 0 01-2.8-.3c-.5-.2-.9-.7-1.2-1.2a4 4 0 01-.4-1.9c0-.7.1-1.3.4-1.9.3-.5.7-1 1.2-1.2.4-.3 1-.5 1.4-.5.9 0 1.5.3 2 .9.5.6.7 1.3.7 2.3zm-.9-.1c0-.7-.2-1.3-.5-1.7-.3-.3-.7-.5-1.3-.5-.5 0-.9.2-1.3.5-.4.4-.6 1-.7 1.7H71zm4.7-5.4c-.6 0-1 .4-1 1.3v1.2h1.5v.9h-1.4v5.9h-1v-6h-1v-.7h1V151c0-.7.1-1.2.4-1.6.3-.4.8-.6 1.5-.6.3 0 .7.1 1 .3l-.2.7a2 2 0 00-.8-.1zm4.3 9.5a3 3 0 01-2.7-1.7 4 4 0 01-.4-1.9c0-.7.1-1.4.4-1.9A3 3 0 0180 152c.6 0 1.1.2 1.6.5s.8.7 1.1 1.2c.3.5.4 1.2.4 2a4 4 0 01-.4 1.8 3 3 0 01-1.1 1.2 3 3 0 01-1.6.5zm0-.9c.4 0 .8-.1 1-.3.4-.2.7-.6.8-1 .2-.4.3-.9.3-1.4 0-.5 0-1-.3-1.4-.1-.4-.4-.7-.7-1-.3-.2-.7-.3-1-.3-.5 0-.8.1-1.2.3l-.7 1c-.2.4-.2.9-.2 1.4 0 .8.2 1.5.5 2 .4.5 1 .7 1.5.7zm6-2.8l-2-3.3h1l1 1.6.7 1 .7-1 .9-1.6h1l-2 3.4 2.2 3.4h-1.1l-1-1.7-.8-1.2-.5.8-.3.4-1 1.7h-1l2.2-3.5zm5.3 3.7l-.6-.3a.8.8 0 01-.2-.5l.2-.6.6-.3c.2 0 .4.1.5.3.2.1.3.3.3.6 0 .2-.1.4-.3.5-.1.2-.3.3-.5.3z" fill="#5257E6"/><path d="M49.2 11.5H20.8a4.8 4.8 0 00-4.8 4.8v38.2c0 2.6 2.1 4.7 4.8 4.7h58.6c2.6 0 4.8-2.1 4.8-4.7V16.3c0-2.7-2.2-4.8-4.8-4.8H52" stroke="#5257E6" stroke-miterlimit="10"/><path d="M50.6 4v35.5M41 30l9.6 9.5M60.1 30l-9.5 9.5" stroke="#fff" stroke-width="8" stroke-miterlimit="10" stroke-linecap="round"/><path d="M50.6 4v35.5M41 30l9.6 9.5M60.1 30l-9.5 9.5" stroke="#5257E6" stroke-width="3" stroke-miterlimit="10" stroke-linecap="round"/><path d="M51.5 60v8h-2.8v-8" fill="#5257E6"/><path d="M51.5 60v8h-2.8v-8" stroke="#5257E6" stroke-miterlimit="10" stroke-linecap="round"/><path d="M62.4 71.5H37.8c-.7 0-1.3-.6-1.3-1.4 0-.7.6-1.3 1.3-1.3h24.6c.7 0 1.3.6 1.3 1.3 0 .8-.6 1.4-1.3 1.4z" fill="#5257E6"/><path d="M16 54.5c0 2.6 2.1 4.7 4.8 4.7h58.6c2.6 0 4.8-2.1 4.8-4.7V51H16v3.5z" stroke="#5257E6" stroke-miterlimit="10" stroke-linecap="round"/><path stroke="#5257E6" d="M20 200.5h275"/><path d="M122 95.2c-.8 0-1.5-.2-2-.6a4 4 0 01-1.5-1.7 6 6 0 01-.5-2.5c0-1 .2-1.8.5-2.5a3.8 3.8 0 013.6-2.3c.5 0 1 .1 1.4.4.4.2.8.4 1 .8l-.5.6c-.5-.6-1.2-.9-2-.9-.5 0-1 .2-1.5.5a3 3 0 00-1 1.3c-.3.6-.4 1.3-.4 2 0 .9.1 1.5.4 2.1.2.6.5 1 1 1.4.4.3 1 .5 1.5.5s.9-.1 1.2-.3l1-.8.6.6c-.4.5-.8.8-1.2 1-.5.3-1 .4-1.6.4zm5.6 0c-.4 0-.7-.1-.9-.4-.2-.2-.2-.6-.2-1V85h1V94.2l.3.1h.2l.2.8h-.6zm5 0a3 3 0 01-2.8-1.7 4 4 0 01-.4-1.9c0-.7.2-1.4.4-1.9a3 3 0 012.7-1.7c.6 0 1.1.2 1.6.5s.9.7 1.1 1.2c.3.5.5 1.2.5 2a4 4 0 01-.5 1.8 3 3 0 01-1.1 1.2 3 3 0 01-1.6.5zm0-.9c.3 0 .7-.1 1-.3.3-.2.6-.6.8-1l.2-1.4c0-.5 0-1-.2-1.4l-.8-1c-.3-.2-.7-.3-1-.3-.5 0-.8.1-1.1.3l-.8 1-.2 1.4c0 .8.2 1.5.6 2 .3.5.8.7 1.4.7zm6.6.9c-.4 0-.9-.1-1.3-.3-.5-.2-.9-.4-1.2-.7l.5-.7 1 .7 1 .2c.5 0 .9-.1 1.1-.4.2-.2.4-.4.4-.8a1 1 0 00-.5-.7l-1.1-.6a6 6 0 01-1.5-.8c-.4-.2-.6-.6-.6-1.2 0-.5.2-1 .6-1.3.5-.4 1-.6 1.7-.6.4 0 .8.1 1.1.3.4 0 .7.3 1 .5l-.5.7a4 4 0 00-.8-.5 2 2 0 00-.8-.1c-.4 0-.7 0-1 .3a1 1 0 00-.3.7c0 .2 0 .4.2.5l.5.4a32.3 32.3 0 002 .8l.7.6a1.8 1.8 0 010 2 2 2 0 01-.9.7 3 3 0 01-1.3.3zm9.3-4v.6h-4.7c0 .8.3 1.4.7 1.9.4.4 1 .6 1.6.6a3 3 0 001.8-.5l.3.7-1 .5a3.7 3.7 0 01-2.8-.3c-.5-.2-1-.7-1.2-1.2a4 4 0 01-.4-1.9c0-.7.1-1.3.4-1.9.3-.5.7-1 1.1-1.2.5-.3 1-.5 1.5-.5.9 0 1.5.3 2 .9.5.6.7 1.3.7 2.3zm-1-.1c0-.7 0-1.3-.4-1.7-.3-.3-.7-.5-1.3-.5-.5 0-1 .2-1.3.5-.4.4-.6 1-.7 1.7h3.8zm8.1 4a3 3 0 01-2.7-1.6 4 4 0 01-.4-1.9c0-.7.1-1.4.4-1.9a3 3 0 012.7-1.7c.6 0 1 .2 1.6.5.4.3.8.7 1 1.2.4.5.5 1.2.5 2a4 4 0 01-.4 1.8 3 3 0 01-1.1 1.2 3 3 0 01-1.6.5zm0-.8c.4 0 .8-.1 1-.3.4-.2.6-.6.8-1 .2-.4.3-.9.3-1.4 0-.5-.1-1-.3-1.4l-.7-1c-.3-.2-.7-.3-1.1-.3-.4 0-.8.1-1 .3-.4.3-.6.6-.8 1-.2.4-.3.9-.3 1.4 0 .8.2 1.5.6 2 .4.5.9.7 1.5.7zm7 .9c-.8 0-1.3-.3-1.6-.7-.4-.4-.5-1.1-.5-2v-4.3h1v4.2c0 .6 0 1.1.3 1.4.2.3.6.5 1 .5s.7-.1 1-.3l1-1v-4.8h1V95h-.9v-1h-.1l-1 .8c-.4.3-.8.4-1.3.4zm7.6 0c-.7 0-1.2-.2-1.5-.6-.2-.4-.4-1-.4-1.6v-4h-1v-.7h1l.2-2h.8v2h1.9v.8h-1.9V93c0 .4.1.8.3 1 .1.2.4.3.8.3.2 0 .5 0 .8-.2l.2.8a4 4 0 01-1.2.3zm8 0a3 3 0 01-2.7-1.7 4 4 0 01-.5-1.9c0-.7.2-1.4.5-1.9a3 3 0 012.7-1.7c.5 0 1 .2 1.5.5s.9.7 1.1 1.2c.3.5.5 1.2.5 2a4 4 0 01-.5 1.8 3 3 0 01-1 1.2 3 3 0 01-1.6.5zm0-.9c.4 0 .7-.1 1-.3.3-.2.6-.6.8-1l.2-1.4c0-.5 0-1-.2-1.4l-.8-1c-.3-.2-.6-.3-1-.3s-.8.1-1.1.3l-.8 1-.2 1.4c0 .8.2 1.5.6 2 .4.5.8.7 1.5.7zm7-8.6c-.6 0-1 .4-1 1.3v1.2h1.5v.8h-1.4v6h-1v-6h-1v-.7h1V87c0-.7.1-1.2.4-1.6.4-.4.8-.6 1.5-.6.3 0 .7.1 1 .3l-.2.7a2 2 0 00-.7-.1zm6.2 9.5a2 2 0 01-1.4-.5c-.4-.4-.6-.8-.6-1.5s.4-1.3 1-1.6c.7-.4 1.8-.7 3.3-.9 0-.5-.2-1-.4-1.3-.2-.3-.6-.5-1.1-.5-.6 0-1.3.2-2 .7l-.5-.7c1-.6 1.8-.9 2.7-.9.8 0 1.3.3 1.7.8.4.5.6 1.1.6 2V95h-.9v-.8h-.1c-.8.6-1.6 1-2.3 1zm.3-.9c.3 0 .6 0 1-.2l1-.7v-2a7 7 0 00-2.5.6c-.5.3-.8.7-.8 1.2 0 .4.2.7.4.9l.9.2zm6.3.9c-.4 0-.7-.1-.8-.4-.2-.2-.3-.6-.3-1V85h1V94.2l.3.1h.3l.1.8h-.6zm3.5 0c-.4 0-.7-.1-.8-.4-.2-.2-.3-.6-.3-1V85h1V94.2l.3.1h.3l.1.8h-.6zm-74.5 16a2 2 0 01-1.4-.5c-.4-.4-.6-.8-.6-1.5s.4-1.3 1-1.6c.7-.4 1.8-.7 3.3-.9 0-.5-.2-1-.4-1.3-.2-.3-.6-.5-1.1-.5-.6 0-1.3.2-2 .7l-.5-.7c1-.6 1.8-.9 2.7-.9.8 0 1.3.3 1.7.8.4.5.6 1.1.6 2v4.2h-.9v-.8h-.1c-.8.6-1.6 1-2.3 1zm.3-.9c.3 0 .6 0 1-.2l1-.7v-2a7 7 0 00-2.5.6c-.5.3-.8.7-.8 1.2 0 .4.2.7.4.9l.9.2zm5.2-6h.8l.1.7c.9-.6 1.6-1 2.3-1 .8 0 1.5.4 2 1 .4.6.6 1.4.6 2.5 0 .7 0 1.4-.4 2-.2.5-.6 1-1 1.2-.5.3-1 .5-1.5.5-.6 0-1.2-.3-2-.8l.1 1.2v2.3h-1v-9.7zm2.7 6c.4 0 .8-.1 1-.3.4-.3.7-.6.8-1 .2-.4.3-1 .3-1.5 0-.8-.2-1.4-.5-1.9s-.7-.7-1.4-.7c-.6 0-1.2.3-1.9 1v3.7l1 .5.7.2zm5-6h.9v.7c.9-.6 1.6-1 2.3-1 .8 0 1.5.4 2 1 .4.6.7 1.4.7 2.5 0 .7-.2 1.4-.4 2-.3.5-.7 1-1.1 1.2-.5.3-1 .5-1.5.5-.6 0-1.2-.3-1.9-.8v3.5h-1v-9.7zm2.8 6c.4 0 .7-.1 1-.3l.8-1 .2-1.5c0-.8-.1-1.4-.4-1.9-.3-.5-.8-.7-1.5-.7-.5 0-1.2.3-1.9 1v3.7l1 .5.8.2zm6 .9c-.3 0-.6-.1-.8-.4-.2-.2-.3-.6-.3-1V101h1v8.8l.1.4.3.1h.2l.2.8h-.7zm2.4-7h1v6.8h-1v-6.8zm.6-1.4l-.5-.2a.7.7 0 01-.2-.6c0-.2 0-.3.2-.5l.5-.1.5.1.2.5-.2.6-.5.2zm5.5 8.4c-.6 0-1.2-.2-1.7-.5a3 3 0 01-1-1.2c-.4-.5-.5-1.2-.5-1.9s.1-1.4.4-1.9c.3-.5.7-1 1.2-1.2.5-.3 1-.5 1.6-.5.8 0 1.4.3 2 .9l-.5.6-.7-.4-.7-.2a2 2 0 00-1.2.3l-.8 1-.2 1.4c0 .8.2 1.5.6 2 .4.5.9.7 1.5.7s1.2-.2 1.7-.7l.4.7c-.3.3-.6.5-1 .6-.3.2-.7.3-1.1.3zm5 0a2 2 0 01-1.3-.5c-.4-.4-.6-.8-.6-1.5s.3-1.3 1-1.6c.7-.4 1.8-.7 3.2-.9 0-.5 0-1-.3-1.3-.2-.3-.6-.5-1.1-.5-.7 0-1.4.2-2 .7l-.5-.7c1-.6 1.8-.9 2.6-.9s1.4.3 1.8.8c.4.5.5 1.1.5 2v4.2h-.8v-.8h-.1c-.8.6-1.6 1-2.3 1zm.4-.9c.3 0 .6 0 1-.2l1-.7v-2a7 7 0 00-2.6.6c-.4.3-.7.7-.7 1.2 0 .4.1.7.4.9l.9.2zm7 .9c-.6 0-1.1-.2-1.4-.6-.3-.4-.4-1-.4-1.6v-4h-1v-.7h1l.1-2h.9v2h1.9v.8h-2v3.9c0 .4.2.8.3 1 .2.2.5.3.9.3l.8-.2.2.8a4 4 0 01-1.3.3zm2.6-7h1v6.8h-1v-6.8zm.5-1.4l-.5-.2a.7.7 0 01-.2-.6l.2-.5.5-.1.5.1c.2.2.2.3.2.5 0 .3 0 .4-.2.6l-.5.2zm5.5 8.4a3 3 0 01-2.7-1.7 4 4 0 01-.4-1.9c0-.7.1-1.4.4-1.9a3 3 0 012.7-1.7c.6 0 1 .2 1.6.5.4.3.8.7 1 1.2.4.5.5 1.2.5 2a4 4 0 01-.4 1.8 3 3 0 01-1.1 1.2 3 3 0 01-1.6.5zm0-.9c.4 0 .8-.1 1-.3.4-.2.6-.6.8-1 .2-.4.3-.9.3-1.4 0-.5-.1-1-.3-1.4l-.7-1c-.3-.2-.7-.3-1-.3-.5 0-.9.1-1.2.3l-.7 1c-.2.4-.3.9-.3 1.4 0 .8.2 1.5.6 2 .4.5.9.7 1.5.7zm5-6h.8l.1 1c.4-.5.8-.7 1.1-1l1.2-.3c.7 0 1.3.3 1.6.7.3.5.5 1.1.5 2v4.3h-1v-4.2c0-.6-.1-1.1-.3-1.4-.3-.3-.6-.5-1-.5s-.7.1-1 .3l-1 .8v5h-1v-6.8zm9.3 6.9c-.5 0-1-.1-1.3-.3-.5-.2-.9-.4-1.2-.7l.5-.7 1 .7 1 .2c.5 0 .8-.1 1-.4.3-.2.5-.4.5-.8a1 1 0 00-.5-.7l-1.1-.6a6 6 0 01-1.5-.8c-.4-.2-.6-.6-.6-1.2 0-.5.2-1 .6-1.3.5-.4 1-.6 1.7-.6.4 0 .8.1 1.1.3.4 0 .7.3 1 .5l-.5.7a4 4 0 00-.8-.5 2 2 0 00-.8-.1c-.4 0-.7 0-1 .3a1 1 0 00-.3.7c0 .2 0 .4.2.5l.5.4a32.3 32.3 0 002 .8l.7.6c.2.3.2.6.2 1 0 .3 0 .7-.2 1a2 2 0 01-.9.7 3 3 0 01-1.3.3zm-75.1 9h.8l.1 1c.8-.8 1.5-1.2 2.2-1.2 1 0 1.6.5 1.9 1.4.3-.5.7-.8 1-1 .5-.2.8-.4 1.2-.4 1.4 0 2 1 2 2.7v4.3h-1v-4.2c0-.6 0-1.1-.3-1.4-.2-.3-.5-.5-1-.5s-1.1.4-1.8 1.1v5h-1v-4.2c0-.6 0-1.1-.3-1.4-.2-.3-.6-.5-1-.5-.5 0-1.1.4-1.8 1.1v5h-1v-6.8zm13 7a2 2 0 01-1.3-.5c-.4-.4-.6-.8-.6-1.5s.3-1.3 1-1.6c.7-.4 1.8-.7 3.2-.9 0-.5 0-1-.3-1.3-.2-.3-.6-.5-1.1-.5-.7 0-1.4.2-2 .7l-.5-.7c1-.6 1.8-.9 2.6-.9s1.4.3 1.8.8c.4.5.5 1.1.5 2v4.2h-.8v-.8h-.1c-.8.6-1.6 1-2.3 1zm.4-.9c.3 0 .6 0 1-.2l1-.7v-2c-1.2.1-2 .4-2.6.6-.4.3-.7.7-.7 1.2 0 .4.1.7.4.9l.9.2zm5.2-6h.8v1h.1c.4-.5.8-.7 1.1-1l1.2-.3c.7 0 1.2.3 1.6.7.3.5.5 1.1.5 2v4.3h-1v-4.2c0-.6-.1-1.1-.4-1.4-.2-.3-.5-.5-1-.5l-1 .3-1 .8v5h-1v-6.8zm9.5 6.9c-.7 0-1.2-.3-1.5-.7-.4-.4-.5-1.1-.5-2v-4.3h1v4.2c0 .6 0 1.1.3 1.4.2.3.6.5 1 .5s.7-.1 1-.3l1-1v-4.8h1v6.8h-.9v-1h-.1l-1 .8c-.4.3-.8.4-1.3.4zm7.2 0a2 2 0 01-1.5-.5c-.3-.4-.5-.8-.5-1.5s.3-1.3 1-1.6c.7-.4 1.7-.7 3.2-.9 0-.5-.1-1-.3-1.3-.2-.3-.6-.5-1.1-.5-.7 0-1.4.2-2.1.7l-.4-.7c.9-.6 1.8-.9 2.6-.9s1.4.3 1.8.8c.3.5.5 1.1.5 2v4.2h-.8l-.1-.8c-.9.6-1.6 1-2.3 1zm.2-.9c.4 0 .7 0 1-.2l1-.7v-2a7 7 0 00-2.5.6c-.5.3-.7.7-.7 1.2 0 .4.1.7.3.9l1 .2zm6.3.9c-.3 0-.6-.1-.8-.4-.2-.2-.3-.6-.3-1V117h1v8.8l.1.4.3.1h.2l.2.8h-.7zm3.5 0c-.3 0-.6-.1-.8-.4-.2-.2-.3-.6-.3-1V117h1v8.8l.1.4.3.1h.2l.2.8h-.7zm2.5 2.8a2 2 0 01-.8-.2l.2-.8.5.1c.4 0 .7-.1 1-.4l.6-1.1.2-.6-2.8-6.8h1l1.5 3.9.7 2 .5-1.4.1-.6 1.3-3.9h1l-2.6 7.4c-.2.8-.6 1.3-1 1.7a2 2 0 01-1.4.7zm11.8-2.8a3 3 0 01-2.7-1.7 4 4 0 01-.5-1.9c0-.7.2-1.4.5-1.9a3 3 0 012.7-1.7c.5 0 1 .2 1.5.5s.9.7 1.1 1.2c.3.5.5 1.2.5 2a4 4 0 01-.5 1.8 3 3 0 01-1 1.2 3 3 0 01-1.6.5zm0-.9c.4 0 .7-.1 1-.3.3-.2.6-.6.8-1l.2-1.4c0-.5 0-1-.2-1.4l-.8-1c-.3-.2-.6-.3-1-.3s-.8.1-1.1.3c-.3.3-.6.6-.7 1-.2.4-.3.9-.3 1.4 0 .8.2 1.5.6 2 .4.5.9.7 1.5.7zm5-6h.8v1.2h.1c.2-.5.5-.8.9-1a1.8 1.8 0 011.7-.3l-.2.9-.6-.1c-.3 0-.6.1-1 .4-.3.2-.5.6-.8 1.2v4.4h-1v-6.8zm8.6 6.9c-.4 0-.7-.1-.8-.4-.2-.2-.3-.6-.3-1V117h1V126.2l.3.1h.3l.1.8h-.6zm7.6-4v.6h-4.8c0 .8.3 1.4.8 1.9.4.4 1 .6 1.6.6a3 3 0 001.7-.5l.4.7-1 .5a3.7 3.7 0 01-2.9-.3c-.4-.2-.8-.7-1.1-1.2a4 4 0 01-.4-1.9c0-.7.1-1.3.4-1.9.3-.5.6-1 1.1-1.2.5-.3 1-.5 1.5-.5.8 0 1.5.3 2 .9.4.6.7 1.3.7 2.3zm-1-.1c0-.7 0-1.3-.4-1.7-.3-.3-.7-.5-1.3-.5-.5 0-1 .2-1.3.5-.4.4-.7 1-.7 1.7h3.8zm4.6 4c-.7 0-1.1-.1-1.4-.5-.3-.4-.5-1-.5-1.6v-4h-1v-.7h1l.2-2h.8v2h2v.8h-2v3.9c0 .4.1.8.3 1 .2.2.4.3.8.3.2 0 .5 0 .8-.2l.2.8a4 4 0 01-1.2.3zm-84 16c-.7 0-1.1-.1-1.4-.5-.3-.4-.5-1-.5-1.6v-4h-1v-.7h1l.2-2h.9v2h1.8v.8h-1.8v3.9c0 .4 0 .8.2 1 .2.2.4.3.8.3.2 0 .5 0 .8-.2l.2.8a4 4 0 01-1.2.3zm2.6-10.1h1V137.2a5 5 0 011-.8c.4-.3.8-.4 1.2-.4.7 0 1.3.3 1.6.7.3.5.5 1.1.5 2v4.3h-1v-4.2c0-.6-.1-1.1-.3-1.4-.2-.3-.6-.5-1-.5s-.7.1-1 .3l-1 .8v5h-1v-10zm12.7 6.2v.6h-4.7c0 .8.3 1.4.7 1.9.5.4 1 .6 1.7.6a3 3 0 001.7-.5l.4.7-1 .5a3.7 3.7 0 01-2.9-.3c-.5-.2-.9-.7-1.2-1.2a4 4 0 01-.4-1.9c0-.7.2-1.3.4-1.9.3-.5.7-1 1.2-1.2.4-.3 1-.5 1.5-.5.8 0 1.4.3 2 .9.4.6.6 1.3.6 2.3zm-.9-.1c0-.7-.1-1.3-.4-1.7-.4-.3-.8-.5-1.3-.5s-1 .2-1.4.5c-.4.4-.6 1-.7 1.7h3.8zm7.2 4c-.5 0-1 0-1.4-.2l-1.1-.7.5-.7 1 .7 1 .2c.5 0 .8-.1 1-.4.3-.2.4-.4.4-.8a1 1 0 00-.4-.7l-1.2-.6a6 6 0 01-1.5-.8c-.3-.2-.5-.6-.5-1.2 0-.5.2-1 .6-1.3.4-.4 1-.6 1.7-.6.4 0 .7.1 1 .3.4 0 .8.3 1 .5l-.4.7a4 4 0 00-.8-.5 2 2 0 00-.8-.1c-.4 0-.8 0-1 .3a1 1 0 00-.3.7c0 .2 0 .4.2.5l.5.4a32.3 32.3 0 002 .8l.6.6a1.8 1.8 0 010 2 2 2 0 01-.8.7 3 3 0 01-1.3.3zm6.7 0a3 3 0 01-2.7-1.6 4 4 0 01-.5-1.9c0-.7.2-1.4.5-1.9a3 3 0 012.7-1.7c.5 0 1 .2 1.5.5s.9.7 1.1 1.2c.3.5.5 1.2.5 2a4 4 0 01-.5 1.8 3 3 0 01-1 1.2 3 3 0 01-1.6.5zm0-.8c.4 0 .7-.1 1-.3.3-.2.6-.6.8-1l.2-1.4c0-.5 0-1-.2-1.4l-.8-1c-.3-.2-.6-.3-1-.3s-.8.1-1.1.3l-.8 1-.2 1.4c0 .8.2 1.5.6 2 .4.5.8.7 1.5.7zm7-8.6c-.6 0-1 .4-1 1.3v1.2h1.5v.9h-1.4v5.9h-1v-6h-1v-.7h1V135c0-.7.1-1.2.4-1.6.4-.4.8-.6 1.5-.6.3 0 .7.1 1 .3l-.2.7a2 2 0 00-.7-.1zm4 9.5c-.7 0-1.2-.2-1.5-.6-.3-.4-.4-1-.4-1.6v-4h-1v-.7h1l.1-2h.9v2h1.8v.8h-1.8v3.9c0 .4 0 .8.2 1 .2.2.5.3.9.3.2 0 .4 0 .7-.2l.3.8a4 4 0 01-1.3.3zm1.7-7h1l1 4 .2.7.3 1.2.5-1.8 1.1-4h1l1.1 4 .5 1.8.5-1.8 1-4h1l-1.8 6.7h-1.3l-1-3.8-.3-1.1-.2-.8a29 29 0 01-.5 2l-1 3.7H161l-2-6.8zm12.2 7a2 2 0 01-1.5-.5c-.3-.4-.5-.8-.5-1.4 0-.8.3-1.4 1-1.7.6-.4 1.7-.7 3.2-.9 0-.5-.1-1-.3-1.3-.3-.3-.6-.5-1.2-.5s-1.3.2-2 .7l-.4-.7c.9-.6 1.7-.9 2.6-.9.8 0 1.4.3 1.7.8.4.5.6 1.1.6 2v4.2h-.8l-.1-.8c-.9.6-1.6 1-2.3 1zm.2-.9c.3 0 .7 0 1-.2l1-.7v-2a7 7 0 00-2.5.6c-.5.3-.7.7-.7 1.2 0 .4 0 .7.3.9l1 .2zm5.2-6h.9v1.2c.3-.5.6-.8 1-1a1.8 1.8 0 011.7-.3l-.2.9-.6-.1c-.3 0-.6.1-1 .4-.3.2-.5.6-.8 1.2v4.4h-1v-6.8zm9.8 3v.5h-4.7c0 .8.3 1.4.7 1.9.5.4 1 .6 1.7.6a3 3 0 001.7-.5l.4.7-1 .5a3.7 3.7 0 01-2.9-.3c-.5-.2-.9-.7-1.2-1.2a4 4 0 01-.4-1.9c0-.7.2-1.3.4-1.9.3-.5.7-1 1.2-1.2.4-.3 1-.5 1.5-.5.8 0 1.4.3 2 .9.4.6.6 1.3.6 2.3zm-.9-.2c0-.7-.1-1.3-.4-1.7-.4-.3-.8-.5-1.3-.5s-1 .2-1.4.5c-.4.4-.6 1-.7 1.7h3.8zm7.7 4c-.8 0-1.5-.2-2-.9-.5-.6-.8-1.5-.8-2.6 0-.7.2-1.3.4-1.9.3-.5.7-1 1.1-1.2a2.6 2.6 0 012.5-.3l1 .6-.1-1.1V133h1v10h-.8l-.1-.8-1 .7-1.2.3zm.2-.8c.4 0 .7 0 1-.2l.9-.8v-3.6l-.9-.6-.9-.2c-.3 0-.7.1-1 .4-.3.2-.6.5-.7 1-.2.3-.3.8-.3 1.3 0 .9.2 1.5.5 2s.8.7 1.4.7zm7.9.9a3 3 0 01-2.7-1.7 4 4 0 01-.5-1.9c0-.7.2-1.4.5-1.9a3 3 0 012.7-1.7c.5 0 1 .2 1.5.5s.9.7 1.1 1.2c.3.5.5 1.2.5 2a4 4 0 01-.5 1.8 3 3 0 01-1 1.2 3 3 0 01-1.6.5zm0-.9c.4 0 .7-.1 1-.3.3-.2.6-.6.8-1l.2-1.4c0-.5 0-1-.2-1.4l-.8-1c-.3-.2-.6-.3-1-.3s-.8.1-1.1.3c-.3.3-.6.6-.7 1-.2.4-.3.9-.3 1.4 0 .8.2 1.5.6 2 .4.5.8.7 1.5.7zm-65.9 10h1v6.7h-1v-6.8zm.6-1.5l-.5-.2a.7.7 0 01-.2-.6c0-.2 0-.3.2-.4 0-.2.3-.2.5-.2s.3 0 .5.2l.2.4-.2.6-.5.2zm4.9 8.4c-.7 0-1.2-.2-1.5-.6-.2-.4-.4-1-.4-1.6v-4h-1v-.7h1l.2-2h.8v2h1.9v.8h-1.9v3.9c0 .4.1.8.3 1 .1.2.4.3.8.3.2 0 .5 0 .8-.2l.2.8a4 4 0 01-1.2.3zm7.5-9.5c-.6 0-1 .4-1 1.3v1.2h1.5v.9h-1.5v5.9h-1v-6h-.9v-.7h1V151c0-.7 0-1.2.4-1.6.3-.4.8-.6 1.4-.6.4 0 .8.1 1.1.3l-.2.7a2 2 0 00-.8-.1zm4.3 9.5a3 3 0 01-2.7-1.7 4 4 0 01-.4-1.9c0-.7.1-1.4.4-1.9a3 3 0 012.7-1.7c.6 0 1 .2 1.6.5.4.3.8.7 1 1.2.4.5.5 1.2.5 2a4 4 0 01-.4 1.8 3 3 0 01-1.1 1.2 3 3 0 01-1.6.5zm0-.9c.4 0 .8-.1 1-.3.4-.2.6-.6.8-1 .2-.4.3-.9.3-1.4 0-.5-.1-1-.3-1.4l-.7-1c-.3-.2-.7-.3-1.1-.3-.4 0-.8.1-1 .3-.4.3-.6.6-.8 1-.2.4-.3.9-.3 1.4 0 .8.2 1.5.6 2 .4.5.9.7 1.5.7zm5-6h.8l.1 1.2c.3-.5.6-.8.9-1a1.8 1.8 0 011.8-.3l-.2.9-.7-.1c-.3 0-.6.1-1 .4-.2.2-.5.6-.7 1.2v4.4h-1v-6.8zm7.5 9.7a2 2 0 01-.7-.2l.2-.8.5.1c.4 0 .7-.1 1-.4l.6-1.1.2-.6-2.8-6.8h1l1.5 3.9.7 2 .5-1.4.1-.6 1.3-3.9h1l-2.6 7.4c-.2.8-.6 1.3-1 1.7a2 2 0 01-1.5.7zm9-2.8a3 3 0 01-2.7-1.7 4 4 0 01-.4-1.9c0-.7.1-1.4.4-1.9a3 3 0 012.7-1.7c.6 0 1 .2 1.6.5.4.3.8.7 1 1.2.4.5.5 1.2.5 2a4 4 0 01-.4 1.8 3 3 0 01-1.1 1.2 3 3 0 01-1.6.5zm0-.9c.4 0 .8-.1 1-.3.4-.2.6-.6.8-1 .2-.4.3-.9.3-1.4 0-.5-.1-1-.3-1.4l-.7-1c-.3-.2-.7-.3-1-.3-.5 0-.9.1-1.2.3l-.7 1c-.2.4-.3.9-.3 1.4 0 .8.2 1.5.6 2 .4.5.9.7 1.5.7zm7 .9c-.8 0-1.3-.3-1.6-.7-.4-.4-.5-1.1-.5-2v-4.3h1v4.2c0 .6 0 1.1.3 1.4.2.3.6.5 1 .5s.7-.1 1-.3l1-1v-4.8h1v6.8h-.9v-1h-.1l-1 .8c-.4.3-.8.4-1.3.4zm-59.9 16a2 2 0 01-1.4-.5c-.4-.4-.6-.8-.6-1.4 0-.8.4-1.4 1-1.7.7-.4 1.8-.7 3.3-.9 0-.5-.2-1-.4-1.3-.2-.3-.6-.5-1.1-.5-.6 0-1.3.2-2 .7l-.5-.7c1-.6 1.8-.9 2.7-.9.8 0 1.3.3 1.7.8.4.5.6 1.1.6 2v4.2h-.9v-.8h-.1c-.8.6-1.6 1-2.3 1zm.3-.9c.3 0 .6 0 1-.2l1-.7v-2a7 7 0 00-2.5.6c-.5.3-.8.7-.8 1.2 0 .4.2.7.4.9l.9.2zm7.2.9c-.7 0-1.3-.3-1.6-.7-.3-.4-.5-1.1-.5-2v-4.3h1v4.2c0 .6.1 1.1.3 1.4.2.3.6.5 1 .5s.7-.1 1-.3l1-1v-4.8h1v6.8h-.9v-1l-1.2.8c-.3.3-.7.4-1.1.4zm7.6 0c-.7 0-1.1-.2-1.4-.6-.3-.4-.5-1-.5-1.6v-4h-1v-.7h1l.2-2h.9v2h1.8v.8h-1.8v3.9c0 .4 0 .8.2 1 .2.2.4.3.8.3.2 0 .5 0 .8-.2l.2.8a4 4 0 01-1.2.3zm5 0a3 3 0 01-2.7-1.7 4 4 0 01-.4-1.9c0-.7.1-1.4.4-1.9a3 3 0 012.7-1.7c.6 0 1 .2 1.6.5.4.3.8.7 1 1.2.4.5.5 1.2.5 2a4 4 0 01-.4 1.8 3 3 0 01-1.1 1.2 3 3 0 01-1.6.5zm0-.9c.4 0 .8-.1 1-.3.4-.2.6-.6.8-1 .2-.4.3-.9.3-1.4 0-.5-.1-1-.3-1.4l-.7-1c-.3-.2-.7-.3-1.1-.3-.4 0-.8.1-1 .3-.4.3-.6.6-.8 1-.2.4-.3.9-.3 1.4 0 .8.2 1.5.6 2 .4.5.9.7 1.5.7zm5-6h.8l.1 1c.8-.9 1.5-1.3 2.2-1.3 1 0 1.5.5 1.8 1.4.4-.5.8-.8 1.2-1 .3-.2.7-.4 1-.4 1.5 0 2.1 1 2.1 2.7v4.3h-1v-4.2c0-.6 0-1.1-.3-1.4-.2-.3-.6-.5-1-.5-.5 0-1.1.4-1.8 1.1v5h-1v-4.2c0-.6-.1-1.1-.3-1.4-.2-.3-.6-.5-1-.5-.6 0-1.2.4-1.8 1.1v5h-1v-6.8zm13 6.9a2 2 0 01-1.4-.5c-.3-.4-.5-.8-.5-1.4 0-.8.3-1.4 1-1.7.7-.4 1.7-.7 3.2-.9 0-.5-.1-1-.3-1.3-.2-.3-.6-.5-1.2-.5s-1.3.2-2 .7l-.4-.7c.9-.6 1.8-.9 2.6-.9s1.4.3 1.8.8c.3.5.5 1.1.5 2v4.2h-.8l-.1-.8c-.9.6-1.6 1-2.3 1zm.3-.9c.4 0 .7 0 1-.2l1-.7v-2a7 7 0 00-2.5.6c-.5.3-.7.7-.7 1.2 0 .4.1.7.3.9l1 .2zm7.1.9c-.7 0-1.1-.2-1.4-.6-.3-.4-.5-1-.5-1.6v-4h-1v-.7h1l.2-2h.9v2h1.8v.8h-1.8v3.9c0 .4 0 .8.2 1 .2.2.5.3.8.3.2 0 .5 0 .8-.2l.2.8a4 4 0 01-1.2.3zm2.6-7h1v6.8h-1v-6.8zm.5-1.4l-.5-.2a.7.7 0 01-.2-.6c0-.2 0-.3.2-.4.1-.2.3-.2.5-.2s.4 0 .5.2l.2.4c0 .3 0 .4-.2.6l-.5.2zm5.5 8.4c-.6 0-1.1-.2-1.6-.5a3 3 0 01-1.1-1.2c-.3-.5-.4-1.2-.4-1.9s.1-1.4.4-1.9c.3-.5.7-1 1.2-1.2.5-.3 1-.5 1.6-.5.7 0 1.4.3 2 .9l-.6.6-.6-.4-.8-.2a2 2 0 00-1.1.3l-.8 1c-.2.4-.3.9-.3 1.4 0 .8.2 1.5.6 2 .4.5 1 .7 1.6.7.6 0 1.1-.2 1.7-.7l.4.7c-.3.3-.6.5-1 .6l-1.2.3zm5.1 0a2 2 0 01-1.4-.5c-.4-.4-.5-.8-.5-1.4 0-.8.3-1.4 1-1.7.6-.4 1.7-.7 3.2-.9 0-.5-.1-1-.3-1.3-.3-.3-.6-.5-1.2-.5s-1.3.2-2 .7l-.4-.7c.9-.6 1.7-.9 2.6-.9.8 0 1.4.3 1.7.8.4.5.6 1.1.6 2v4.2h-.8l-.1-.8c-.9.6-1.6 1-2.4 1zm.3-.9c.3 0 .7 0 1-.2l1-.7v-2a7 7 0 00-2.5.6c-.5.3-.7.7-.7 1.2 0 .4 0 .7.3.9l1 .2zm6.3.9c-.4 0-.6-.1-.8-.4-.2-.2-.3-.6-.3-1V165h1v8.8l.1.4.3.1h.2l.1.8h-.6zm3.5 0c-.4 0-.6-.1-.8-.4-.2-.2-.3-.6-.3-1V165h1v8.8l.1.4.3.1h.2l.1.8h-.6zm2.4 2.8a2 2 0 01-.7-.2l.2-.8.5.1c.4 0 .7-.1 1-.4l.6-1.1.1-.6-2.7-6.8h1l1.5 3.9.7 2 .4-1.4.2-.6 1.3-3.9h1l-2.6 7.4c-.2.8-.6 1.3-1 1.7a2 2 0 01-1.5.7zm6.5-2.8c-.2 0-.4-.1-.5-.3a.8.8 0 01-.3-.5c0-.3.1-.5.3-.6.1-.2.3-.3.5-.3l.6.3.2.6c0 .2 0 .4-.2.5l-.6.3z" fill="#5257E6"/><g clip-path="url(#clip0)"><path d="M136 29.9a7.8 7.8 0 100-15.6 7.8 7.8 0 000 15.6zM158.5 29.9a7.8 7.8 0 100-15.6 7.8 7.8 0 000 15.6zM181 29.9a7.8 7.8 0 100-15.6 7.8 7.8 0 000 15.6z" fill="#5257E6"/><path d="M133 18.7l3 3.4M136 22.1l3-3.4M133 25.6l3-3.5M136 22.1l3 3.5" stroke="#fff" stroke-miterlimit="10" stroke-linecap="round"/><path d="M117.6 72V21.7a14 14 0 0114.1-14h70.8M202.7 34.3h-84.9" stroke="#5257E6" stroke-miterlimit="10"/><path d="M138.8 33.3l-1.9 12 3.1-2 1.2 4.6 2.8-.8-1.2-4.5h3.6l-7.6-9.3z" stroke="#5257E6" stroke-miterlimit="10"/><path d="M159.7 20.9h-4.6v4.7h4.6v-4.7z" stroke="#fff" stroke-miterlimit="10"/><path d="M162.8 17.8h-4.6v4.6h4.6v-4.6z" stroke="#fff" stroke-miterlimit="10"/><path d="M177.6 22.1h6.9" stroke="#fff" stroke-miterlimit="10" stroke-linecap="round"/></g><path d="M11.2 307.6l.8-1.3-1.3-.5.2-.6 1.4.3V304h.7l.1 1.5 1.4-.3.2.6-1.3.5.8 1.3-.5.4-1-1.2-1 1.2-.5-.4zm5.7-2.8h1v9.2h-1v-9.2zm5.6-.1c-.6 0-1 .4-1 1.3v1.2H23v.9h-1.5v5.9h-1v-6h-1v-.7h1V306c0-.7.2-1.2.5-1.6.3-.4.8-.6 1.4-.6.4 0 .8.1 1.1.3l-.2.7a2 2 0 00-.8-.1zm4.6 2.5h.9v1.3h.1c.2-.5.5-.8.9-1a1.8 1.8 0 011.7-.3l-.2.9-.6-.1c-.3 0-.6.1-1 .4-.3.2-.5.6-.8 1.2v4.4h-1v-6.8zm9.8 3v.6h-4.7c0 .8.3 1.4.7 1.9.5.4 1 .6 1.7.6a3 3 0 001.7-.5l.4.7-1 .5a3.7 3.7 0 01-2.9-.3c-.5-.2-.9-.7-1.1-1.2a4 4 0 01-.5-1.9c0-.7.2-1.3.5-1.9.2-.5.6-1 1-1.2.6-.3 1-.5 1.6-.5.8 0 1.5.3 2 .9.4.6.6 1.3.6 2.3zm-.9-.1c0-.7-.1-1.3-.4-1.7-.3-.3-.8-.5-1.3-.5s-1 .2-1.4.5c-.4.4-.6 1-.7 1.7H36zm7 4.3v-1.2a3 3 0 01-2 1c-1 0-1.6-.3-2.1-1-.5-.6-.8-1.5-.8-2.6 0-.7.2-1.3.5-1.9.2-.5.6-1 1-1.2a2.6 2.6 0 012.5-.2c.3 0 .6.3 1 .6v-.7h.9v9.7h-1v-2.5zm-1.8-1.1c.3 0 .6 0 .9-.2l.9-.8v-3.6l-.9-.6-.8-.2c-.4 0-.8.1-1 .4-.4.2-.6.5-.8 1-.2.3-.3.8-.3 1.3 0 .9.2 1.5.5 2s.8.7 1.5.7zm7.1.9c-.7 0-1.2-.3-1.5-.7-.4-.4-.5-1.1-.5-2v-4.3h1v4.2c0 .6 0 1.1.3 1.4.2.3.6.5 1 .5s.7-.1 1-.3l1-1v-4.8h1v6.8h-.9v-1h-.1l-1 .8c-.4.3-.8.4-1.3.4zm5.6-7h1v6.8h-1v-6.8zm.6-1.4l-.5-.2a.7.7 0 01-.2-.6c0-.2 0-.3.2-.4 0-.2.3-.2.5-.2s.3 0 .5.2l.2.4-.2.6-.5.2zm2.8 1.4h.9v1.3c.3-.5.6-.8 1-1a1.8 1.8 0 011.7-.3l-.2.9-.6-.1c-.3 0-.6.1-1 .4-.3.2-.5.6-.8 1.2v4.4h-1v-6.8zm9.8 3v.6h-4.7c0 .8.3 1.4.7 1.9.5.4 1 .6 1.7.6a3 3 0 001.7-.5l.4.7-1 .5a3.7 3.7 0 01-2.9-.3c-.5-.2-.9-.7-1.2-1.2a4 4 0 01-.4-1.9c0-.7.2-1.3.4-1.9.3-.5.7-1 1.2-1.2.4-.3 1-.5 1.5-.5.8 0 1.4.3 2 .9.4.6.6 1.3.6 2.3zm-.9-.1c0-.7-.1-1.3-.4-1.7-.4-.3-.8-.5-1.3-.5s-1 .2-1.4.5c-.4.4-.6 1-.7 1.7h3.8zm5 4c-1 0-1.6-.2-2.1-.9-.5-.6-.8-1.5-.8-2.6 0-.7.2-1.3.4-1.9.3-.5.7-1 1.1-1.2a2.6 2.6 0 012.5-.3l1 .6-.1-1.1V304h1v10h-.9v-.8l-1 .7-1.2.3zm.1-.8c.4 0 .7 0 1-.2l.9-.8v-3.6l-.9-.6-.9-.2c-.3 0-.7.1-1 .4-.3.2-.6.5-.7 1-.2.3-.3.8-.3 1.3 0 .9.2 1.5.5 2s.8.7 1.4.7zm10.1.9c-.6 0-1.1-.2-1.4-.6-.3-.4-.5-1-.5-1.6v-4h-1v-.7h1l.2-2h.9v2h1.8v.8h-1.8v3.9c0 .4 0 .8.2 1 .2.2.5.3.8.3.2 0 .5 0 .8-.2l.2.8a4 4 0 01-1.2.3zm5 0a3 3 0 01-2.7-1.7 4 4 0 01-.4-1.9c0-.7.1-1.4.4-1.9a3 3 0 012.7-1.7c.6 0 1 .2 1.6.5.4.3.8.7 1.1 1.2.3.5.4 1.2.4 2a4 4 0 01-.4 1.8 3 3 0 01-1.1 1.2 3 3 0 01-1.6.5zm0-.9c.4 0 .8-.1 1-.3.4-.2.6-.6.8-1 .2-.4.3-.9.3-1.4 0-.5-.1-1-.3-1.4l-.7-1c-.3-.2-.7-.3-1-.3-.5 0-.8.1-1.2.3l-.7 1c-.2.4-.2.9-.2 1.4 0 .8.1 1.5.5 2s1 .7 1.5.7zm-74.3 16.9c-.7 0-1.3-.3-1.6-.7-.3-.4-.5-1.1-.5-2v-4.3h1v4.2c0 .6.1 1.1.3 1.4.2.3.6.5 1 .5s.7-.1 1-.3l1-1v-4.8h1v6.8h-.9v-1l-1.2.8c-.3.3-.7.4-1.1.4zm7.3 0c-.5 0-1-.1-1.4-.3l-1.1-.7.5-.7 1 .7 1 .2c.5 0 .8-.1 1-.4.3-.2.4-.4.4-.8a1 1 0 00-.4-.7l-1.1-.6a6 6 0 01-1.6-.8c-.3-.2-.5-.6-.5-1.2 0-.5.2-1 .6-1.3.4-.4 1-.6 1.7-.6.4 0 .8.1 1.1.3.4 0 .7.3 1 .5l-.5.7a4 4 0 00-.8-.5 2 2 0 00-.8-.1c-.4 0-.7 0-1 .3a1 1 0 00-.3.7c0 .2 0 .4.2.5l.5.4a33 33 0 002 .8l.6.6a1.8 1.8 0 010 2 2 2 0 01-.8.7 3 3 0 01-1.3.3zm9.3-4v.6h-4.8c0 .8.3 1.4.8 1.9.4.4 1 .6 1.6.6a3 3 0 001.7-.5l.4.7-1 .5a3.7 3.7 0 01-2.9-.3c-.5-.2-.8-.7-1.1-1.2a4 4 0 01-.4-1.9c0-.7 0-1.3.4-1.9.3-.5.6-1 1.1-1.2.5-.3 1-.5 1.5-.5.8 0 1.5.3 2 .9.4.6.7 1.3.7 2.3zm-1-.1c0-.7-.1-1.3-.4-1.7-.3-.3-.7-.5-1.3-.5-.5 0-1 .2-1.3.5-.4.4-.7 1-.7 1.7h3.8zm7 4a2 2 0 01-1.4-.4c-.4-.4-.6-.8-.6-1.4 0-.8.4-1.4 1-1.7.7-.4 1.8-.7 3.3-.9 0-.5-.2-1-.4-1.3-.2-.3-.6-.5-1.1-.5-.6 0-1.3.2-2 .7l-.5-.7c1-.6 1.8-.9 2.7-.9.8 0 1.3.3 1.7.8.4.5.6 1.1.6 2v4.2H37v-.8H37c-.8.6-1.6 1-2.3 1zm.3-.8c.3 0 .6 0 1-.2l1-.7v-2a7 7 0 00-2.5.6c-.5.3-.8.7-.8 1.2 0 .4.2.7.4.9l.9.2zm7.1-6h1l1.2 4v.6l.4 1.2.5-1.8 1-4h1.1l1.1 4 .5 1.8.5-1.8 1-4h1l-1.8 6.7h-1.3l-1-3.8-.3-1.1-.2-.8-.5 2-1 3.7H44l-2-6.8zm16 3v.5h-4.8c0 .8.3 1.4.8 1.9.4.4 1 .6 1.6.6a3 3 0 001.7-.5l.4.7-1 .5a3.7 3.7 0 01-2.9-.3c-.4-.2-.8-.7-1.1-1.2a4 4 0 01-.4-1.9c0-.7.1-1.3.4-1.9.3-.5.6-1 1.1-1.2.5-.3 1-.5 1.5-.5.8 0 1.5.3 2 .9.4.6.7 1.3.7 2.3zm-1-.2c0-.7 0-1.3-.4-1.7-.3-.3-.7-.5-1.3-.5-.5 0-1 .2-1.3.5-.4.4-.7 1-.7 1.7h3.8zm5.6 4c-.3 0-.7 0-1-.2-.3-.1-.7-.3-1-.6l-.1.7h-.8v-10h1v4c.7-.6 1.4-1 2.1-1 1 0 1.6.4 2 1 .5.6.7 1.4.7 2.5 0 .7-.1 1.4-.4 2-.2.5-.6 1-1 1.2-.5.3-1 .5-1.5.5zm-.2-.8c.4 0 .8-.1 1-.3.4-.3.6-.6.8-1 .2-.4.3-1 .3-1.5 0-.8-.2-1.4-.5-1.9s-.7-.7-1.4-.7c-.6 0-1.2.3-2 1v3.7l1 .5.8.2zm7.6.9c-.6 0-1.1-.2-1.6-.5a3 3 0 01-1.1-1.2c-.3-.5-.4-1.2-.4-1.9s.1-1.4.4-1.9c.3-.5.7-1 1.2-1.2.5-.3 1-.5 1.6-.5.7 0 1.4.3 2 .9l-.6.6-.6-.4-.8-.2a2 2 0 00-1.1.3l-.8 1c-.2.4-.3.9-.3 1.4 0 .8.2 1.5.6 2 .4.5 1 .7 1.6.7.6 0 1.1-.2 1.7-.7l.4.7c-.3.3-.6.5-1 .6l-1.2.3zm5.2 0a2 2 0 01-1.5-.5c-.3-.4-.5-.8-.5-1.4 0-.8.3-1.4 1-1.7.6-.4 1.7-.7 3.2-.9 0-.5-.1-1-.3-1.3-.3-.3-.6-.5-1.2-.5s-1.3.2-2 .7l-.4-.7c.9-.6 1.7-.9 2.6-.9.8 0 1.4.3 1.7.8.4.5.6 1.1.6 2v4.2h-.8l-.1-.8c-.9.6-1.6 1-2.3 1zm.2-.9c.3 0 .7 0 1-.2l1-.7v-2a7 7 0 00-2.5.6c-.5.3-.7.7-.7 1.2 0 .4 0 .7.3.9l1 .2zm5.2-6h.9v1c.8-.9 1.5-1.3 2.2-1.3 1 0 1.6.5 1.9 1.4.4-.5.8-.8 1.1-1 .4-.2.8-.4 1.1-.4 1.4 0 2.1 1 2.1 2.7v4.3h-1v-4.2c0-.6-.1-1.1-.3-1.4-.3-.3-.6-.5-1-.5-.6 0-1.2.4-1.8 1.1v5h-1v-4.2c0-.6-.2-1.1-.4-1.4-.2-.3-.5-.5-1-.5s-1.1.4-1.8 1.1v5h-1v-6.8zm-76 22.9c-.8 0-1.5-.3-2-1-.5-.6-.7-1.5-.7-2.6 0-.7 0-1.3.4-1.9.2-.5.6-1 1-1.2a2.6 2.6 0 012.5-.3l1 .6-.1-1.1V336h1v10H7l-.1-.8-1 .7-1.2.3zm.3-.9c.3 0 .6 0 .9-.2l.9-.8v-3.6l-.9-.6-.8-.2c-.4 0-.8.1-1 .4-.4.2-.6.5-.8 1-.2.3-.3.8-.3 1.3 0 .9.2 1.5.5 2 .4.5.8.7 1.5.7zm7.1.9c-.7 0-1.2-.3-1.5-.7-.3-.4-.5-1.1-.5-2v-4.3h1v4.2c0 .6.1 1.1.3 1.4.2.3.6.5 1 .5s.7-.1 1-.3l1-1v-4.8h1v6.8h-.9v-1h-.1l-1 .8c-.4.3-.8.4-1.3.4zm5.6-7h.9v1.3h.1c.2-.5.5-.8.9-1a1.8 1.8 0 011.7-.3l-.1.9-.7-.1c-.3 0-.6.1-1 .4-.3.2-.5.6-.7 1.2v4.4h-1v-6.8zm4.8 0h1v6.8h-1v-6.8zm.5-1.4l-.5-.2a.7.7 0 01-.2-.6c0-.2 0-.3.2-.4.2-.2.3-.2.5-.2s.4 0 .5.2c.2 0 .2.2.2.4 0 .3 0 .4-.2.6l-.5.2zm2.9 1.4h.8l.1 1c.4-.4.8-.6 1.2-.8.3-.3.7-.4 1.1-.4.8 0 1.3.3 1.6.7.3.5.5 1.1.5 2v4.3h-1v-4.2c0-.6-.1-1.1-.3-1.4-.2-.3-.6-.5-1-.5s-.7.1-1 .3l-1 .8v5h-1v-6.8zm9.9 10c-.9 0-1.6-.2-2-.5-.6-.4-.8-.8-.8-1.4 0-.3 0-.5.2-.8.2-.3.4-.5.8-.7l-.5-.5-.1-.7c0-.3 0-.5.2-.7l.5-.6-.6-.8c-.2-.3-.3-.7-.3-1a2.4 2.4 0 011.3-2.1c.4-.3.8-.4 1.2-.4l1 .2H39v.8h-1.4l.4.7.2.8c0 .4-.1.9-.3 1.2-.2.4-.5.7-1 .9a2.6 2.6 0 01-2.2 0l-.3.4-.2.4c0 .3.1.5.3.6.2.2.5.2 1 .2h1.3c.8 0 1.4.1 1.8.4.3.3.5.7.5 1.2 0 .4-.1.8-.4 1.2-.3.3-.7.6-1.2.8-.5.3-1 .4-1.7.4zm0-6c.4 0 .7-.2 1-.5.3-.3.5-.7.5-1.2s-.2-1-.5-1.2c-.3-.3-.6-.5-1-.5-.5 0-.9.2-1.2.5-.2.3-.4.7-.4 1.2s.2.9.4 1.2c.3.3.7.4 1.1.4zm.1 5.2c.4 0 .8 0 1.2-.2l.8-.5.2-.7c0-.4 0-.6-.3-.7-.3-.2-.6-.2-1-.2h-1.3l-.9-.1c-.5.3-.7.7-.7 1.2 0 .4.1.7.5.9.4.2.9.3 1.5.3zm9.5-2.2c-.7 0-1.2-.2-1.5-.6-.3-.4-.4-1-.4-1.6v-4h-1v-.7h1l.2-2h.8v2h1.9v.8h-1.9v3.9c0 .4 0 .8.2 1 .2.2.5.3.9.3l.8-.2.2.8a4 4 0 01-1.2.3zm2.5-10.2h1V340.2a5 5 0 011.1-.8c.4-.3.8-.4 1.2-.4.7 0 1.2.3 1.6.7.3.5.5 1.1.5 2v4.3h-1v-4.2c0-.6-.2-1.1-.4-1.4-.2-.3-.5-.5-1-.5-.3 0-.7.1-1 .3l-1 .8v5h-1v-10zm12.8 6.2v.6h-4.8c0 .8.3 1.4.8 1.9.4.4 1 .6 1.6.6a3 3 0 001.7-.5l.4.7-1 .5a3.7 3.7 0 01-2.9-.3c-.4-.2-.8-.7-1.1-1.2a4 4 0 01-.4-1.9c0-.7.1-1.3.4-1.9.3-.5.7-1 1.1-1.2.5-.3 1-.5 1.5-.5.8 0 1.5.3 2 .9.4.6.7 1.3.7 2.3zm-1-.1c0-.7 0-1.3-.4-1.7-.3-.3-.7-.5-1.3-.5-.5 0-1 .2-1.3.5-.4.4-.7 1-.7 1.7h3.8zm10.7.1v.6h-4.8c0 .8.3 1.4.8 1.9.4.4 1 .6 1.6.6a3 3 0 001.7-.5l.4.7-1 .5a3.7 3.7 0 01-2.9-.3c-.4-.2-.8-.7-1.1-1.2a4 4 0 01-.4-1.9c0-.7.1-1.3.4-1.9.3-.5.6-1 1.1-1.2.5-.3 1-.5 1.5-.5.8 0 1.5.3 2 .9.4.6.7 1.3.7 2.3zm-1-.1c0-.7 0-1.3-.4-1.7-.3-.3-.7-.5-1.3-.5-.5 0-1 .2-1.3.5-.4.4-.7 1-.7 1.7h3.8zm3.8.4l-2-3.3h1l1 1.6.7 1 .7-1 .9-1.6h1l-2 3.4 2.2 3.4h-1l-1.1-1.7-.8-1.2-.5.8-.3.4-1 1.7h-1l2.2-3.5zm6.3 3.7a2 2 0 01-1.4-.5c-.4-.4-.6-.8-.6-1.4 0-.8.3-1.4 1-1.7.7-.4 1.8-.7 3.2-.9 0-.5 0-1-.3-1.3-.2-.3-.6-.5-1.1-.5-.7 0-1.3.2-2 .7l-.5-.7c1-.6 1.8-.9 2.7-.9.7 0 1.3.3 1.7.8.4.5.5 1.1.5 2v4.2H82v-.8h-.1c-.8.6-1.6 1-2.3 1zm.3-.9c.3 0 .6 0 1-.2l1-.7v-2a7 7 0 00-2.6.6c-.4.3-.7.7-.7 1.2 0 .4.1.7.4.9l.9.2zm5.2-6h.8l.1 1c.8-.9 1.5-1.3 2.2-1.3 1 0 1.5.5 1.8 1.4.4-.5.8-.8 1.2-1 .3-.2.7-.4 1-.4 1.5 0 2.1 1 2.1 2.7v4.3h-1v-4.2c0-.6 0-1.1-.3-1.4-.2-.3-.6-.5-1-.5-.5 0-1.1.4-1.8 1.1v5h-1v-4.2c0-.6-.1-1.1-.3-1.4-.2-.3-.6-.5-1-.5-.6 0-1.2.4-1.8 1.1v5h-1v-6.8zm12 5.2c.4 0 .6.1.7.4.2.2.3.5.3.9a2.9 2.9 0 01-1.7 2.5l-.3-.6c.4-.2.7-.4.9-.7.2-.3.3-.6.3-1h-.1c-.3 0-.4 0-.6-.2a.7.7 0 01-.2-.5c0-.3 0-.4.2-.6l.6-.2zM20.3 365a2 2 0 01-.8-.2l.2-.8.5.1c.4 0 .7-.1 1-.4.3-.3.5-.7.6-1.1l.2-.6-2.8-6.8h1.1l1.5 3.9.6 2 .5-1.4.2-.6 1.2-3.9h1l-2.5 7.4c-.3.8-.6 1.3-1 1.7a2 2 0 01-1.5.7zm9-2.8a3 3 0 01-2.8-1.7 4 4 0 01-.4-1.9c0-.7.2-1.4.4-1.9a3 3 0 012.7-1.7c.6 0 1.1.2 1.6.5s.9.7 1.1 1.2c.3.5.5 1.2.5 2a4 4 0 01-.5 1.8 3 3 0 01-1.1 1.2 3 3 0 01-1.6.5zm0-.9c.3 0 .7-.1 1-.3.3-.2.6-.6.7-1 .2-.4.3-.9.3-1.4 0-.5 0-1-.3-1.4-.1-.4-.4-.7-.7-1-.3-.2-.7-.3-1-.3-.5 0-.8.1-1.1.3l-.8 1-.2 1.4c0 .8.2 1.5.6 2 .3.5.8.7 1.4.7zm6.9.9c-.7 0-1.2-.3-1.6-.7-.3-.4-.5-1.1-.5-2v-4.3h1v4.2c0 .6.1 1.1.3 1.4.3.3.6.5 1 .5s.7-.1 1-.3l1-1v-4.8h1v6.8h-.8l-.1-1-1.1.8c-.4.3-.8.4-1.2.4zm7.5-7h1l1.1 4 .2.7.2 1.2h.1l.5-1.8 1-4h1l1.2 4 .5 1.8.5-1.8 1-4h1L51 362h-1.2l-1-3.8-.3-1.1-.2-.8-.6 2-1 3.7h-1.2l-1.9-6.8zm10.8 0h1v6.8h-1v-6.8zm.5-1.4l-.5-.2a.7.7 0 01-.2-.6l.2-.4c.2-.2.3-.2.5-.2s.4 0 .5.2c.2 0 .2.2.2.4 0 .3 0 .4-.2.6l-.5.2zm4 8.4c-.4 0-.6-.1-.8-.4-.2-.2-.3-.6-.3-1V352h1v8.8l.1.4.2.1h.3l.1.8H59zm3.5 0c-.4 0-.6-.1-.8-.4-.2-.2-.3-.6-.3-1V352h1v8.8l.1.4.2.1h.3l.1.8h-.6zm8.1 0l-1-.3-1-.6v.7h-.9v-10h1v4c.7-.6 1.5-1 2.2-1 .8 0 1.5.4 2 1 .4.6.7 1.4.7 2.5 0 .7-.2 1.4-.4 2-.3.5-.7 1-1.1 1.2-.5.3-1 .5-1.5.5zm-.1-.9c.3 0 .7-.1 1-.3.3-.3.6-.6.7-1 .2-.4.3-1 .3-1.5 0-.8-.1-1.4-.5-1.9-.2-.5-.7-.7-1.4-.7-.5 0-1.2.3-1.9 1v3.7l1 .5.8.2zm10.1-3v.5h-4.7c0 .8.3 1.4.7 1.9.4.4 1 .6 1.6.6a3 3 0 001.8-.5l.3.7-1 .5a3.7 3.7 0 01-2.8-.3c-.5-.2-.9-.7-1.2-1.2a4 4 0 01-.4-1.9c0-.7.1-1.3.4-1.9.3-.5.7-1 1.1-1.2.5-.3 1-.5 1.5-.5.9 0 1.5.3 2 .9.5.6.7 1.3.7 2.3zm-1-.2c0-.7 0-1.3-.4-1.7-.3-.3-.7-.5-1.3-.5-.5 0-1 .2-1.3.5-.4.4-.6 1-.7 1.7h3.8zM3.9 381c-.9 0-1.6-.1-2-.4-.6-.4-.8-.8-.8-1.4 0-.3 0-.5.2-.8l.7-.7-.4-.5-.2-.7c0-.3.1-.5.3-.7l.5-.6c-.3-.2-.5-.5-.6-.8-.2-.3-.3-.7-.3-1a2.4 2.4 0 011.3-2.1c.3-.3.8-.4 1.2-.4l1 .2H7v.8H5.6l.4.7.2.8c0 .4-.1.9-.3 1.2a2.6 2.6 0 01-3.2.9l-.4.4v.4c0 .3 0 .5.2.6.2.2.5.2 1 .2h1.3c.8 0 1.4.1 1.8.4.3.3.5.7.5 1.2 0 .4-.1.8-.4 1.2-.3.3-.7.6-1.2.8-.5.3-1 .4-1.7.4zm0-6c.3 0 .7-.1 1-.4.3-.3.4-.7.4-1.2s-.1-1-.4-1.2c-.3-.3-.6-.5-1-.5-.5 0-.9.2-1.2.5-.3.3-.4.7-.4 1.2s.1.9.4 1.2c.3.3.7.4 1.1.4zm0 5.3c.5 0 1 0 1.2-.2.4-.1.7-.3.8-.5.2-.2.3-.5.3-.7 0-.4-.1-.6-.3-.7-.3-.2-.6-.2-1-.2H3.4l-1-.1c-.4.3-.7.7-.7 1.2 0 .4.2.7.6.9.4.2.9.3 1.5.3zm6.6-2.2c-.7 0-1.2-.3-1.5-.7-.3-.4-.5-1.1-.5-2v-4.3h1v4.2c0 .6.1 1.1.3 1.4.2.3.6.5 1 .5s.7-.1 1-.3l1-1v-4.8h1v6.8h-.9v-1h-.1l-1 .8c-.4.3-.8.4-1.3.4zm5.6-7h1v6.8h-1v-6.8zm.6-1.4l-.5-.2a.7.7 0 01-.2-.6c0-.2 0-.3.2-.4 0-.2.3-.2.5-.2s.3 0 .5.2l.2.4-.2.6-.5.2zm5.1 8.4c-.8 0-1.5-.3-2-1-.5-.6-.8-1.5-.8-2.6 0-.7.2-1.3.4-1.9.3-.5.7-1 1.1-1.2a2.6 2.6 0 012.5-.3l1 .6-.1-1.1V368h1v10h-.9v-.8l-1 .7-1.2.3zm.2-.9c.4 0 .7 0 1-.2l.9-.8v-3.6l-.9-.6-.9-.2c-.3 0-.7.1-1 .4-.3.2-.6.5-.8 1l-.2 1.3c0 .9.2 1.5.5 2s.8.7 1.4.7zm10.4-3v.5h-4.7c0 .8.3 1.4.7 1.9.5.4 1 .6 1.7.6a3 3 0 001.7-.5l.4.7-1 .5a3.7 3.7 0 01-2.9-.3c-.5-.2-.9-.7-1.2-1.2a4 4 0 01-.4-1.9c0-.7.2-1.3.4-1.9.3-.5.7-1 1.2-1.2.5-.3 1-.5 1.5-.5.8 0 1.5.3 2 .9.4.6.6 1.3.6 2.3zm-.9-.2c0-.7-.1-1.3-.4-1.7-.3-.3-.8-.5-1.3-.5s-1 .2-1.4.5c-.4.4-.6 1-.7 1.7h3.8zm5 4c-1 0-1.6-.2-2.1-.9-.5-.6-.8-1.5-.8-2.6 0-.7.2-1.3.5-1.9.2-.5.6-1 1-1.2a2.6 2.6 0 012.5-.3l1 .6-.1-1.1V368h1v10h-.8l-.1-.8-1 .7-1.2.3zm.2-.8c.3 0 .6 0 .9-.2l.9-.8v-3.6l-.9-.6-.8-.2c-.4 0-.8.1-1 .4-.4.2-.6.5-.8 1-.2.3-.3.8-.3 1.3 0 .9.2 1.5.5 2s.8.7 1.5.7zm10 .9c-.6 0-1.1-.2-1.4-.6-.3-.4-.4-1-.4-1.6v-4h-1v-.7h1l.1-2h.9v2h1.8v.8h-1.8v3.9c0 .4 0 .8.2 1 .2.2.5.3.9.3.2 0 .4 0 .7-.2l.3.8a4 4 0 01-1.3.3zm2.6-10.2h1V372.2a5 5 0 011-.8c.4-.3.8-.4 1.3-.4.7 0 1.2.3 1.5.7.4.5.5 1.1.5 2v4.3h-1v-4.2c0-.6 0-1.1-.3-1.4-.2-.3-.6-.5-1-.5s-.7.1-1 .3l-1 .8v5h-1v-10zm7.6 3.2h.8l.1 1.3c.3-.5.6-.8.9-1a1.8 1.8 0 011.8-.3l-.2.9-.7-.1c-.3 0-.6.1-1 .4-.2.2-.5.6-.7 1.2v4.4h-1v-6.8zm7.2 7a3 3 0 01-2.7-1.7 4 4 0 01-.4-1.9c0-.7.1-1.4.4-1.9A3 3 0 0164 371c.5 0 1 .2 1.5.5s.9.7 1.2 1.2c.3.5.4 1.2.4 2a4 4 0 01-.4 1.8 3 3 0 01-1.2 1.2 3 3 0 01-1.5.5zm0-.9c.4 0 .7-.1 1-.3.4-.2.6-.6.8-1 .2-.4.3-.9.3-1.4 0-.5-.1-1-.3-1.4l-.7-1c-.4-.2-.7-.3-1.1-.3-.4 0-.8.1-1 .3-.4.3-.6.6-.8 1-.2.4-.3.9-.3 1.4 0 .8.2 1.5.6 2 .4.5.9.7 1.5.7zm7 .9c-.8 0-1.3-.3-1.6-.7-.4-.4-.5-1.1-.5-2v-4.3h1v4.2c0 .6 0 1.1.3 1.4.2.3.5.5 1 .5.4 0 .7-.1 1-.3l1-1v-4.8h1v6.8h-.9v-1h-.1l-1 .8c-.4.3-.8.4-1.3.4zm7.8 3c-.9 0-1.5-.2-2-.5-.6-.4-.8-.8-.8-1.4 0-.3 0-.5.2-.8l.8-.7-.5-.5-.1-.7c0-.3 0-.5.2-.7l.5-.6-.6-.8c-.2-.3-.2-.7-.2-1a2.4 2.4 0 011.2-2.1c.4-.3.8-.4 1.3-.4l.9.2H82v.8h-1.4l.4.7c.2.2.2.5.2.8 0 .4-.1.9-.3 1.2-.2.4-.5.7-.9.9a2.6 2.6 0 01-2.3 0l-.3.4-.1.4c0 .3 0 .5.2.6.2.2.5.2 1 .2h1.3c.8 0 1.4.1 1.8.4.4.3.6.7.6 1.2 0 .4-.2.8-.5 1.2-.2.3-.6.6-1.2.8-.5.3-1 .4-1.7.4zm0-6c.4 0 .7-.2 1-.5.3-.3.5-.7.5-1.2s-.2-1-.5-1.2c-.3-.3-.6-.5-1-.5-.5 0-.8.2-1.1.5-.3.3-.5.7-.5 1.2s.2.9.5 1.2c.3.3.6.4 1 .4zm.1 5.2c.5 0 .8 0 1.2-.2l.8-.5c.2-.2.3-.5.3-.7 0-.4-.2-.6-.4-.7-.2-.2-.6-.2-1-.2h-1.3l-.9-.1c-.5.3-.7.7-.7 1.2 0 .4.2.7.5.9.4.2.9.3 1.5.3zm4.6-12.4h1V372.2a5 5 0 011-.8c.4-.3.8-.4 1.3-.4.7 0 1.2.3 1.5.7.4.5.5 1.1.5 2v4.3h-1v-4.2c0-.6 0-1.1-.3-1.4-.2-.3-.6-.5-1-.5s-.7.1-1 .3l-1 .8v5h-1v-10zm12 10.2a2 2 0 01-1.5-.5c-.4-.4-.6-.8-.6-1.4 0-.8.4-1.4 1-1.7.7-.4 1.8-.7 3.3-.9 0-.5-.2-1-.4-1.3-.2-.3-.6-.5-1.1-.5-.6 0-1.3.2-2 .7l-.5-.7c1-.6 1.8-.9 2.7-.9.8 0 1.3.3 1.7.8.4.5.6 1.1.6 2v4.2h-.9v-.8h-.1c-.8.6-1.6 1-2.3 1zm.2-.9c.3 0 .6 0 1-.2l1-.7v-2a7 7 0 00-2.5.6c-.5.3-.8.7-.8 1.2 0 .4.2.7.4.9l.9.2zM9.4 394.2c-.5 0-1-.1-1.3-.3-.5-.2-.9-.4-1.2-.7l.5-.7 1 .7 1 .2c.5 0 .8-.1 1-.4.3-.2.5-.4.5-.8a1 1 0 00-.5-.7l-1.1-.6a6 6 0 01-1.5-.8c-.4-.2-.6-.6-.6-1.2 0-.5.2-1 .6-1.3.4-.4 1-.6 1.7-.6.4 0 .8.1 1.1.3.4 0 .7.3 1 .5l-.5.7a4 4 0 00-.8-.5 2 2 0 00-.8-.1c-.4 0-.7 0-1 .3a1 1 0 00-.3.7c0 .2 0 .4.2.5l.5.4a32.8 32.8 0 002 .8l.7.6.2 1c0 .3 0 .7-.2 1a2 2 0 01-.9.7 3 3 0 01-1.3.3zm4.1 2.8a2 2 0 01-.8-.2l.2-.8.6.1c.3 0 .7-.1 1-.4l.6-1.1.1-.6-2.7-6.8h1l1.5 3.9.7 2 .4-1.4.2-.6 1.3-3.9h1l-2.6 7.4c-.3.8-.6 1.3-1 1.7a2 2 0 01-1.5.7zm8.2-2.8c-.5 0-1-.1-1.4-.3l-1.2-.7.6-.7 1 .7 1 .2c.4 0 .8-.1 1-.4.3-.2.4-.4.4-.8a1 1 0 00-.4-.7l-1.2-.6a6 6 0 01-1.5-.8c-.4-.2-.5-.6-.5-1.2 0-.5.2-1 .6-1.3.4-.4 1-.6 1.7-.6.4 0 .7.1 1 .3.4 0 .7.3 1 .5l-.5.7a4 4 0 00-.7-.5 2 2 0 00-.8-.1c-.5 0-.8 0-1 .3a1 1 0 00-.3.7c0 .2 0 .4.2.5 0 .2.3.3.5.4a33 33 0 001.9.8c.3.1.5.3.7.6a1.8 1.8 0 010 2 2 2 0 01-.8.7 3 3 0 01-1.3.3zm6 0c-.7 0-1.2-.2-1.5-.6-.3-.4-.4-1-.4-1.6v-4h-1v-.7h1l.2-2h.8v2h1.9v.8h-1.9v3.9c0 .4 0 .8.3 1 .1.2.4.3.8.3l.8-.2.2.8a4 4 0 01-1.2.3zm7.5-4v.6h-4.7c0 .8.3 1.4.7 1.9.5.4 1 .6 1.7.6a3 3 0 001.7-.5l.4.7-1 .5a3.7 3.7 0 01-2.9-.3c-.5-.2-.9-.7-1.1-1.2a4 4 0 01-.5-1.9c0-.7.2-1.3.5-1.9.2-.5.6-1 1-1.2.6-.3 1-.5 1.6-.5.8 0 1.5.3 2 .9.4.6.6 1.3.6 2.3zm-.9-.1c0-.7-.1-1.3-.4-1.7-.3-.3-.8-.5-1.3-.5s-1 .2-1.4.5c-.3.4-.6 1-.7 1.7h3.8zm2.7-2.9h.8v1h.1c.7-.8 1.4-1.2 2.1-1.2 1 0 1.6.5 2 1.4.3-.5.7-.8 1-1 .4-.2.8-.4 1.2-.4 1.3 0 2 1 2 2.7v4.3h-1v-4.2c0-.6-.1-1.1-.3-1.4-.2-.3-.6-.5-1-.5-.6 0-1.2.4-1.8 1.1v5h-1v-4.2c0-.6-.1-1.1-.3-1.4-.3-.3-.6-.5-1-.5-.6 0-1.2.4-1.8 1.1v5h-1v-6.8zm13.2 7c-.4 0-.9-.1-1.3-.3l-1.2-.7.5-.7 1 .7 1 .2c.5 0 .9-.1 1.1-.4.3-.2.4-.4.4-.8a1 1 0 00-.4-.7l-1.2-.6a6 6 0 01-1.5-.8c-.4-.2-.6-.6-.6-1.2 0-.5.3-1 .7-1.3.4-.4 1-.6 1.7-.6.3 0 .7.1 1 .3.4 0 .7.3 1 .5l-.5.7a4 4 0 00-.7-.5 2 2 0 00-.8-.1c-.5 0-.8 0-1 .3a1 1 0 00-.4.7l.2.5.5.4a32.8 32.8 0 002 .8c.3.1.5.3.7.6a1.8 1.8 0 010 2 2 2 0 01-.9.7 3 3 0 01-1.3.3zm9.6 0c-.6 0-1.2-.2-1.7-.5a3 3 0 01-1-1.2c-.4-.5-.5-1.2-.5-1.9s.1-1.4.4-1.9c.3-.5.7-1 1.2-1.2.5-.3 1-.5 1.6-.5.8 0 1.4.3 2 .9l-.5.6-.7-.4-.7-.2a2 2 0 00-1.2.3l-.8 1-.2 1.4c0 .8.2 1.5.6 2 .4.5.9.7 1.6.7.5 0 1-.2 1.6-.7l.5.7-1 .6-1.2.3zm3.7-10.2h1V388.2a5 5 0 011-.8c.4-.3.8-.4 1.2-.4.8 0 1.3.3 1.6.7.3.5.5 1.1.5 2v4.3h-1v-4.2c0-.6-.1-1.1-.3-1.4-.2-.3-.6-.5-1-.5s-.7.1-1 .3l-1 .8v5h-1v-10zm12.7 6.2v.6h-4.7c0 .8.3 1.4.7 1.9.5.4 1 .6 1.7.6a3 3 0 001.7-.5l.4.7-1 .5a3.7 3.7 0 01-2.9-.3c-.5-.2-.9-.7-1.2-1.2a4 4 0 01-.4-1.9c0-.7.2-1.3.4-1.9.3-.5.7-1 1.2-1.2.4-.3 1-.5 1.5-.5.8 0 1.5.3 2 .9.4.6.6 1.3.6 2.3zm-.9-.1c0-.7-.1-1.3-.4-1.7-.3-.3-.8-.5-1.3-.5s-1 .2-1.4.5c-.4.4-.6 1-.7 1.7h3.8zm5.3 4c-.6 0-1.2 0-1.6-.4a3 3 0 01-1.2-1.2c-.3-.5-.4-1.2-.4-1.9s.2-1.4.4-1.9c.3-.5.7-1 1.2-1.2.5-.3 1-.5 1.6-.5.8 0 1.4.3 2 .9l-.5.6-.7-.4-.7-.2a2 2 0 00-1.1.3c-.4.3-.6.6-.8 1-.2.4-.3.9-.3 1.4 0 .8.2 1.5.6 2 .4.5 1 .7 1.6.7.5 0 1.1-.2 1.6-.7l.5.7c-.3.3-.7.5-1 .6l-1.2.3zm3.7-10.1h1v7l3-3.8h1.2l-2.3 2.7 2.6 4.1h-1.1l-2-3.4-1.4 1.6v1.8h-1v-10zm7.5 10.2c-.2 0-.4-.1-.5-.3a.8.8 0 01-.2-.5c0-.3 0-.5.2-.6.1-.2.3-.3.5-.3l.6.3.2.6c0 .2 0 .4-.2.5l-.6.3z" fill="#5257E6"/><g clip-path="url(#clip1)"><path d="M95.5 249.4c-.8-.5-1.7-.6-2.5-.2l-13.4 5.2v-7.1c0-2.9-2.3-5.2-5.2-5.2H18.6a5.2 5.2 0 00-5.2 5.2v29.9c0 2.8 2.3 5.2 5.2 5.2h55.8c3 0 5.2-2.4 5.2-5.2v-7.6l13.4 5c.3.2.7.3 1 .3.5 0 1-.2 1.5-.5.7-.5 1.1-1.3 1.1-2.1v-20.7c0-.9-.4-1.7-1.1-2.2zm-17.2 27.8a4 4 0 01-3.9 3.9H18.6a4 4 0 01-4-4v-29.8a4 4 0 014-4h55.8a4 4 0 014 4v29.9zm17-5c0 .5-.2.9-.6 1.1-.3.3-.8.3-1.2.2l-13.9-5.2v-12.6l14-5.3a1.3 1.3 0 011.7 1.2v20.7z" fill="#5257E6"/><path d="M13.5 255.4a10.5 10.5 0 100-21 10.5 10.5 0 000 21z" fill="#5257E6"/><path d="M8.7 243.7l5 5L27.5 235" stroke="#5257E6" stroke-width="3" stroke-miterlimit="10" stroke-linecap="round"/><path d="M8.7 243.7l5 5L27.5 235" stroke="#fff" stroke-miterlimit="10" stroke-linecap="round"/><path d="M55.6 261a9 9 0 11-18.2 0M46.5 270v6.5M42.6 276.5h7.8" stroke="#5257E6" stroke-miterlimit="10"/><path d="M46.5 247.3a5.9 5.9 0 00-5.8 5.8v8.2c.2 3 2.7 5.5 5.8 5.5 3.1 0 5.6-2.5 5.8-5.5v-8.2c0-3.2-2.6-5.8-5.8-5.8z" fill="#5257E6"/></g><path d="M120.1 310.4l-2.7-5.6h1l1.3 2.7.2.5.7 1.5.3-.5.7-1.5 1.3-2.7h1l-2.7 5.6v3.6h-1v-3.6zm7 3.8a3 3 0 01-2.7-1.7 4 4 0 01-.4-1.9c0-.7.2-1.4.4-1.9a3 3 0 012.7-1.7c.6 0 1.1.2 1.6.5s.9.7 1.1 1.2c.3.5.5 1.2.5 2a4 4 0 01-.5 1.8 3 3 0 01-1.1 1.2 3 3 0 01-1.6.5zm0-.9c.4 0 .8-.1 1.1-.3.3-.2.6-.6.8-1l.2-1.4c0-.5 0-1-.2-1.4l-.8-1c-.3-.2-.7-.3-1-.3-.5 0-.8.1-1.1.3l-.8 1-.2 1.4c0 .8.2 1.5.6 2 .3.5.8.7 1.4.7zm7 .9c-.7 0-1.2-.3-1.6-.7-.3-.4-.5-1.1-.5-2v-4.3h1v4.2c0 .6.1 1.1.3 1.4.3.3.6.5 1 .5s.7-.1 1-.3l1-1v-4.8h1v6.8h-.8l-.1-1-1.1.8c-.4.3-.8.4-1.2.4zm5.6-7h.8l.1 1.3c.3-.5.6-.8.9-1a1.8 1.8 0 011.8-.3l-.2.9-.7-.1c-.3 0-.6.1-1 .4-.2.2-.5.6-.7 1.2v4.4h-1v-6.8zm10.2 7c-.6 0-1.2-.2-1.7-.5a3 3 0 01-1-1.2c-.4-.5-.5-1.2-.5-1.9s.2-1.4.4-1.9c.3-.5.7-1 1.2-1.2.5-.3 1-.5 1.6-.5.8 0 1.4.3 2 .9l-.5.6-.7-.4-.7-.2a2 2 0 00-1.2.3l-.8 1-.2 1.4c0 .8.2 1.5.6 2 .4.5.9.7 1.6.7.5 0 1-.2 1.6-.7l.5.7-1 .6-1.2.3zm6 0a3 3 0 01-2.7-1.7 4 4 0 01-.4-1.9c0-.7.1-1.4.4-1.9a3 3 0 012.7-1.7c.6 0 1 .2 1.6.5.4.3.8.7 1.1 1.2.3.5.4 1.2.4 2a4 4 0 01-.4 1.8 3 3 0 01-1.1 1.2 3 3 0 01-1.6.5zm0-.9c.4 0 .8-.1 1-.3.4-.2.6-.6.8-1 .2-.4.3-.9.3-1.4 0-.5-.1-1-.3-1.4l-.7-1c-.3-.2-.7-.3-1-.3-.5 0-.8.1-1.2.3l-.7 1c-.2.4-.2.9-.2 1.4 0 .8.1 1.5.5 2s1 .7 1.5.7zm5-6h.8l.1 1c.8-.9 1.5-1.3 2.2-1.3 1 0 1.5.5 1.8 1.4.4-.5.8-.8 1.2-1 .3-.2.7-.4 1-.4 1.5 0 2.2 1 2.2 2.7v4.3h-1v-4.2c0-.6-.2-1.1-.4-1.4-.2-.3-.5-.5-1-.5s-1.1.4-1.8 1.1v5h-1v-4.2c0-.6-.1-1.1-.3-1.4-.2-.3-.6-.5-1-.5-.5 0-1.1.4-1.8 1.1v5h-1v-6.8zm11.5 0h.9v.7h.1c.8-.6 1.5-1 2.2-1 .9 0 1.5.4 2 1s.7 1.4.7 2.5c0 .7-.1 1.4-.4 2-.3.5-.6 1-1.1 1.2-.4.3-1 .5-1.5.5-.6 0-1.2-.3-1.9-.8v3.5h-1v-9.7zm2.8 6c.4 0 .7-.1 1-.3l.8-1 .2-1.5c0-.8-.1-1.4-.4-1.9-.3-.5-.8-.7-1.4-.7-.6 0-1.2.3-2 1v3.7l1 .5.8.2zm7 .9c-.8 0-1.3-.3-1.6-.7-.4-.4-.5-1.1-.5-2v-4.3h1v4.2c0 .6 0 1.1.3 1.4.2.3.6.5 1 .5s.7-.1 1-.3l1-1v-4.8h1v6.8h-.9v-1h-.1l-1 .8c-.4.3-.8.4-1.3.4zm7.6 0c-.7 0-1.2-.2-1.5-.6-.3-.4-.4-1-.4-1.6v-4h-1v-.7h1l.2-2h.8v2h1.9v.8h-1.9v3.9c0 .4.1.8.3 1 .1.2.4.3.8.3.2 0 .5 0 .8-.2l.2.8a4 4 0 01-1.2.3zm7.6-4v.6h-4.8c0 .8.3 1.4.8 1.9.4.4 1 .6 1.6.6a3 3 0 001.7-.5l.4.7-1 .5a3.7 3.7 0 01-2.9-.3c-.5-.2-.8-.7-1.1-1.2a4 4 0 01-.5-1.9c0-.7.2-1.3.5-1.9.3-.5.6-1 1.1-1.2.5-.3 1-.5 1.5-.5.8 0 1.5.3 2 .9.4.6.7 1.3.7 2.3zm-1-.1c0-.7-.1-1.3-.4-1.7-.3-.3-.8-.5-1.3-.5s-1 .2-1.3.5c-.4.4-.7 1-.7 1.7h3.7zm2.7-2.9h.8v1.3h.1c.3-.5.6-.8.9-1a1.8 1.8 0 011.8-.3l-.2.9-.7-.1c-.3 0-.6.1-1 .4-.2.2-.5.6-.7 1.2v4.4h-1v-6.8zm-83.5 16h1l1.1 4 .2.7.2 1.2h.1l.5-1.8 1-4h1l1.2 4 .5 1.8.5-1.8 1-4h1L123 330h-1.2l-1-3.8-.3-1.1-.2-.8-.6 2-1 3.7h-1.2l-1.9-6.8zm10.8 0h1v6.8h-1v-6.8zm.5-1.4l-.5-.2a.7.7 0 01-.2-.6l.2-.4c.2-.2.3-.2.5-.2s.4 0 .5.2c.2 0 .2.2.2.4 0 .3 0 .4-.2.6l-.5.2zm4 8.4c-.4 0-.6-.1-.8-.4-.2-.2-.3-.6-.3-1V320h1v8.8l.1.4.2.1h.3l.1.8h-.6zm3.5 0c-.4 0-.6-.1-.8-.4-.2-.2-.3-.6-.3-1V320h1v8.8l.1.4.2.1h.3l.1.8h-.6zm5.6-7.8l.5.2c.2.1.2.3.2.5s0 .4-.2.5c0 .2-.3.2-.5.2a.7.7 0 01-.6-.3l-.2-.9c0-1 .5-1.8 1.4-2.4l.3.5a3 3 0 00-.7.8c-.2.2-.3.6-.3 1h.1zm2.4 0l.5.2.2.5c0 .2 0 .4-.2.5-.1.2-.3.2-.5.2a.7.7 0 01-.6-.3c-.2-.2-.2-.5-.2-.9 0-1 .4-1.8 1.4-2.4l.3.5a3 3 0 00-.8.8l-.2 1zm4 7.8c-.3 0-.6-.1-.8-.4-.2-.2-.3-.6-.3-1V320h1v8.8l.1.4.3.1h.2l.2.8h-.7zm5 0a3 3 0 01-2.7-1.7 4 4 0 01-.4-1.9c0-.7.2-1.4.4-1.9a3 3 0 012.7-1.7c.6 0 1.1.2 1.6.5s.8.7 1.1 1.2c.3.5.5 1.2.5 2a4 4 0 01-.5 1.8 3 3 0 01-1.1 1.2 3 3 0 01-1.6.5zm0-.9c.4 0 .8-.1 1.1-.3.3-.2.6-.6.7-1 .2-.4.3-.9.3-1.4 0-.5 0-1-.3-1.4-.1-.4-.4-.7-.7-1-.3-.2-.7-.3-1-.3-.5 0-.8.1-1.1.3-.4.3-.6.6-.8 1l-.2 1.4c0 .8.2 1.5.5 2 .4.5 1 .7 1.5.7zm7.6.9c-.6 0-1.1-.2-1.6-.5a3 3 0 01-1.1-1.2c-.3-.5-.4-1.2-.4-1.9s.1-1.4.4-1.9c.3-.5.7-1 1.2-1.2.5-.3 1-.5 1.6-.5.7 0 1.4.3 2 .9l-.6.6-.6-.4-.8-.2a2 2 0 00-1 .3c-.4.3-.7.6-.9 1-.2.4-.3.9-.3 1.4 0 .8.2 1.5.6 2 .4.5 1 .7 1.6.7.6 0 1.2-.2 1.7-.7l.4.7c-.3.3-.6.5-1 .6l-1.2.3zm3.8-10.2h1v7l3-3.8h1.1l-2.2 2.7 2.6 4.1H167l-2-3.4-1.3 1.6v1.8h-1v-10zm7 .2c.3 0 .5.1.6.3.2.2.2.5.2.9 0 1-.4 1.9-1.4 2.4l-.3-.5c.4-.2.6-.5.8-.7l.2-1h-.1c-.2 0-.3 0-.5-.2a.6.6 0 01-.2-.5c0-.2 0-.4.2-.5l.5-.2zm2.4 0l.6.3.2.9c0 1-.5 1.9-1.4 2.4l-.4-.5c.4-.2.7-.5.8-.7.2-.3.3-.6.3-1h-.1c-.2 0-.4 0-.5-.2a.6.6 0 01-.2-.5c0-.2 0-.4.2-.5l.5-.2zm8.2 10a3 3 0 01-2.8-1.7 4 4 0 01-.4-1.9c0-.7.2-1.4.4-1.9a3 3 0 012.8-1.7c.5 0 1 .2 1.5.5s.9.7 1.1 1.2c.3.5.5 1.2.5 2a4 4 0 01-.5 1.8 3 3 0 01-1.1 1.2 3 3 0 01-1.6.5zm0-.9c.4 0 .7-.1 1-.3.3-.2.6-.6.8-1l.2-1.4c0-.5 0-1-.2-1.4l-.8-1c-.3-.2-.6-.3-1-.3-.5 0-.8.1-1.1.3l-.8 1-.2 1.4c0 .8.2 1.5.6 2 .3.5.8.7 1.4.7zm5-6h.8v1l1.2-1c.3-.2.7-.3 1.2-.3.7 0 1.2.3 1.5.7.4.5.5 1.1.5 2v4.3h-1v-4.2c0-.6 0-1.1-.3-1.4-.2-.3-.5-.5-1-.5-.4 0-.7.1-1 .3l-1 .8v5h-1v-6.8zm10.2 6.9c-.6 0-1.2-.2-1.7-.5a3 3 0 01-1.1-1.2c-.3-.5-.4-1.2-.4-1.9s.1-1.4.4-1.9c.3-.5.7-1 1.2-1.2.5-.3 1-.5 1.6-.5.8 0 1.4.3 2 .9l-.5.6-.7-.4-.7-.2a2 2 0 00-1.2.3l-.8 1c-.2.4-.2.9-.2 1.4 0 .8.2 1.5.6 2 .4.5.9.7 1.5.7s1.2-.2 1.7-.7l.4.7c-.3.3-.6.5-1 .6-.4.2-.7.3-1.1.3zm8.6-4v.6h-4.7c0 .8.2 1.4.7 1.9.4.4 1 .6 1.6.6a3 3 0 001.7-.5l.4.7-1 .5a3.7 3.7 0 01-2.8-.3c-.5-.2-1-.7-1.2-1.2a4 4 0 01-.4-1.9c0-.7.1-1.3.4-1.9.3-.5.7-1 1.1-1.2.5-.3 1-.5 1.5-.5.9 0 1.5.3 2 .9.4.6.7 1.3.7 2.3zm-1-.1c0-.7 0-1.3-.4-1.7-.3-.3-.7-.5-1.3-.5-.5 0-1 .2-1.3.5-.4.4-.6 1-.7 1.7h3.8zm-85 22.9a2 2 0 01-.8-.2l.2-.8.6.1c.4 0 .7-.1 1-.4l.6-1.1.1-.6-2.7-6.8h1l1.5 3.9.7 2 .4-1.4.2-.6 1.3-3.9h1l-2.6 7.4c-.3.8-.6 1.3-1 1.7a2 2 0 01-1.5.7zm9-2.8a3 3 0 01-2.7-1.7 4 4 0 01-.4-1.9c0-.7.1-1.4.4-1.9a3 3 0 012.7-1.7c.5 0 1 .2 1.5.5s.9.7 1.2 1.2c.3.5.4 1.2.4 2a4 4 0 01-.4 1.8 3 3 0 01-1.2 1.2 3 3 0 01-1.5.5zm0-.9c.4 0 .7-.1 1-.3.4-.2.6-.6.8-1 .2-.4.3-.9.3-1.4 0-.5-.1-1-.3-1.4-.2-.4-.4-.7-.8-1-.3-.2-.6-.3-1-.3s-.8.1-1.1.3l-.7 1c-.2.4-.3.9-.3 1.4 0 .8.2 1.5.6 2 .4.5.9.7 1.5.7zm7 .9c-.8 0-1.3-.3-1.6-.7-.4-.4-.5-1.1-.5-2v-4.3h1v4.2c0 .6 0 1.1.3 1.4.2.3.5.5 1 .5.4 0 .7-.1 1-.3l1-1v-4.8h1v6.8h-1v-1l-1.1.8c-.4.3-.8.4-1.2.4zm11.2 0l-1-.3-1-.6v.7h-.9v-10h1v4c.8-.6 1.5-1 2.2-1 .8 0 1.5.4 2 1 .4.6.7 1.4.7 2.5 0 .7-.2 1.4-.4 2-.3.5-.7 1-1.1 1.2-.5.3-1 .5-1.5.5zm-.1-.9c.3 0 .7-.1 1-.3l.8-1 .2-1.5c0-.8-.1-1.4-.4-1.9-.3-.5-.8-.7-1.5-.7-.5 0-1.2.3-1.9 1v3.7l1 .5.8.2zm10.1-3v.5h-4.7c0 .8.3 1.4.7 1.9.4.4 1 .6 1.6.6a3 3 0 001.8-.5l.3.7-1 .5a3.7 3.7 0 01-2.8-.3c-.5-.2-.9-.7-1.2-1.2a4 4 0 01-.4-1.9c0-.7.1-1.3.4-1.9.3-.5.7-1 1.1-1.2.5-.3 1-.5 1.5-.5.9 0 1.5.3 2 .9.5.6.7 1.3.7 2.3zm-1-.2c0-.7 0-1.3-.4-1.7-.3-.3-.7-.5-1.3-.5-.5 0-1 .2-1.3.5-.4.4-.6 1-.7 1.7h3.8zm5 7c-.9 0-1.5-.1-2-.4-.6-.4-.8-.8-.8-1.4 0-.3 0-.5.2-.8l.8-.7-.5-.5-.1-.7c0-.3 0-.5.2-.7l.5-.6-.6-.8c-.2-.3-.3-.7-.3-1a2.4 2.4 0 011.3-2.1c.4-.3.8-.4 1.3-.4l.9.2h2.3v.8h-1.4l.4.7c.2.2.2.5.2.8 0 .4-.1.9-.3 1.2-.2.4-.5.7-.9.9a2.6 2.6 0 01-2.3 0l-.3.4-.1.4c0 .3 0 .5.2.6.2.2.5.2 1 .2h1.3c.8 0 1.4.1 1.8.4.4.3.6.7.6 1.2 0 .4-.2.8-.5 1.2-.2.3-.6.6-1.2.8-.5.3-1 .4-1.7.4zm0-6c.4 0 .7-.1 1-.4.3-.3.5-.7.5-1.2s-.2-1-.5-1.2c-.3-.3-.6-.5-1-.5-.5 0-.8.2-1.1.5-.3.3-.5.7-.5 1.2s.2.9.5 1.2c.3.3.6.4 1 .4zm.1 5.3c.5 0 .8 0 1.2-.2l.8-.5c.2-.2.3-.5.3-.7 0-.4-.2-.6-.4-.7-.2-.2-.6-.2-1-.2H159l-.9-.1c-.5.3-.7.7-.7 1.2 0 .4.2.7.5.9.4.2.9.3 1.5.3zm4.6-9.2h1v6.8h-1v-6.8zm.5-1.4l-.5-.2a.7.7 0 01-.2-.6l.2-.4c.2-.2.3-.2.5-.2s.4 0 .5.2c.2 0 .2.2.2.4 0 .3 0 .4-.2.6l-.5.2zm3 1.4h.7l.1 1c.4-.4.8-.6 1.2-.8.3-.3.7-.4 1.2-.4.7 0 1.2.3 1.5.7.4.5.5 1.1.5 2v4.3h-1v-4.2c0-.6-.1-1.1-.3-1.4-.2-.3-.6-.5-1-.5s-.7.1-1 .3l-1 .8v5h-1v-6.8zm10.3 9.8a2 2 0 01-.7-.2l.2-.8.5.1c.4 0 .7-.1 1-.4l.6-1.1.1-.6-2.7-6.8h1l1.5 3.9.7 2 .4-1.4.2-.6 1.3-3.9h1l-2.6 7.4c-.3.8-.6 1.3-1 1.7a2 2 0 01-1.5.7zm9-2.8a3 3 0 01-2.7-1.7 4 4 0 01-.4-1.9c0-.7.1-1.4.4-1.9a3 3 0 012.7-1.7c.5 0 1 .2 1.5.5s.9.7 1.2 1.2c.3.5.4 1.2.4 2a4 4 0 01-.4 1.8 3 3 0 01-1.2 1.2 3 3 0 01-1.5.5zm0-.9c.4 0 .7-.1 1-.3.4-.2.6-.6.8-1 .2-.4.3-.9.3-1.4 0-.5-.1-1-.3-1.4-.2-.4-.4-.7-.8-1-.3-.2-.6-.3-1-.3s-.8.1-1 .3c-.4.3-.6.6-.8 1-.2.4-.3.9-.3 1.4 0 .8.2 1.5.6 2 .4.5.9.7 1.5.7zm7 .9c-.8 0-1.3-.3-1.6-.7-.4-.4-.5-1.1-.5-2v-4.3h1v4.2c0 .6 0 1.1.3 1.4.2.3.5.5 1 .5.4 0 .7-.1 1-.3l1-1v-4.8h1v6.8h-.9v-1h-.1l-1 .8c-.4.3-.8.4-1.3.4zm5.5-7h.9v1.3c.3-.5.6-.8 1-1a1.8 1.8 0 011.7-.3l-.2.9-.6-.1c-.3 0-.7.1-1 .4-.3.2-.6.6-.8 1.2v4.4h-1v-6.8zm-74 19v.6h-4.7c0 .8.3 1.4.8 1.9.4.4 1 .6 1.6.6a3 3 0 001.7-.5l.4.7-1 .5a3.7 3.7 0 01-2.9-.3c-.4-.2-.8-.7-1.1-1.2a4 4 0 01-.4-1.9c0-.7.1-1.3.4-1.9.3-.5.7-1 1.1-1.2.5-.3 1-.5 1.5-.5.8 0 1.5.3 2 .9.4.6.7 1.3.7 2.3zm-.8-.1c0-.7-.2-1.3-.5-1.7-.3-.3-.7-.5-1.3-.5-.5 0-1 .2-1.3.5-.4.4-.7 1-.7 1.7h3.8zm3.8.4l-2.1-3.3h1l1 1.6.7 1 .7-1 .9-1.6h1l-2 3.4 2.2 3.4h-1l-1.1-1.7-.8-1.2-.5.8-.2.4-1 1.7h-1l2.2-3.5zm6.2 3.7a2 2 0 01-1.4-.5c-.4-.4-.6-.8-.6-1.4 0-.8.4-1.4 1-1.7.7-.4 1.8-.7 3.2-.9 0-.5 0-1-.3-1.3-.2-.3-.6-.5-1.1-.5-.7 0-1.3.2-2 .7l-.5-.7c1-.6 1.8-.9 2.7-.9.7 0 1.3.3 1.7.8.4.5.6 1.1.6 2v4.2h-.9v-.8h-.1c-.8.6-1.6 1-2.3 1zm.3-.9c.3 0 .6 0 1-.2l1-.7v-2a7 7 0 00-2.5.6c-.5.3-.8.7-.8 1.2 0 .4.1.7.4.9l.9.2zm5.2-6h.8l.1 1c.8-.9 1.5-1.3 2.2-1.3 1 0 1.5.5 1.8 1.4.4-.5.8-.8 1.2-1 .3-.2.7-.4 1-.4 1.5 0 2.1 1 2.1 2.7v4.3h-1v-4.2c0-.6 0-1.1-.3-1.4-.2-.3-.5-.5-1-.5s-1.1.4-1.8 1.1v5h-1v-4.2c0-.6-.1-1.1-.3-1.4-.2-.3-.6-.5-1-.5-.6 0-1.1.4-1.8 1.1v5h-1v-6.8zm12 6.9c-.2 0-.4-.1-.5-.3a.8.8 0 01-.2-.5c0-.3 0-.5.2-.6.1-.2.3-.3.5-.3.3 0 .4.1.6.3l.2.6c0 .2 0 .4-.2.5-.2.2-.3.3-.6.3zm7.3-3.8l-2.8-5.6h1.1l1.3 2.7.2.5.7 1.5.3-.5.7-1.5 1.2-2.7h1.1l-2.8 5.6v3.6h-1v-3.6zm7 3.8a3 3 0 01-2.7-1.7 4 4 0 01-.4-1.9c0-.7.1-1.4.4-1.9a3 3 0 012.7-1.7c.6 0 1.1.2 1.6.5.4.3.8.7 1.1 1.2.3.5.4 1.2.4 2a4 4 0 01-.4 1.8 3 3 0 01-1.1 1.2 3 3 0 01-1.6.5zm0-.9c.4 0 .8-.1 1-.3.4-.2.6-.6.8-1 .2-.4.3-.9.3-1.4 0-.5-.1-1-.3-1.4l-.7-1c-.3-.2-.7-.3-1-.3-.5 0-.8.1-1.2.3l-.7 1c-.2.4-.2.9-.2 1.4 0 .8.2 1.5.5 2 .4.5 1 .7 1.5.7zm7 .9c-.8 0-1.3-.3-1.6-.7-.3-.4-.5-1.1-.5-2v-4.3h1v4.2c0 .6.1 1.1.3 1.4.2.3.6.5 1 .5s.7-.1 1-.3l1-1v-4.8h1v6.8h-.9v-1h-.1l-1 .8c-.4.3-.8.4-1.3.4zm7.5-7h1l1.1 4 .1.7.3 1.2.6-1.8 1-4h1l1.2 4 .4 1.8h.1l.5-1.8 1-4h1l-1.9 6.7h-1.2l-1-3.8-.3-1.1-.2-.8a29 29 0 01-.6 2l-1 3.7h-1.2l-1.9-6.8zm10.8 0h1v6.8h-1v-6.8zm.5-1.4l-.5-.2a.7.7 0 01-.2-.6c0-.2 0-.3.2-.4.1-.2.3-.2.5-.2s.4 0 .5.2l.2.4c0 .3 0 .4-.2.6l-.5.2zm4 8.4c-.4 0-.7-.1-.9-.4l-.2-1V352h1V361.2l.3.1h.3l.1.8h-.6zm3.5 0c-.4 0-.7-.1-.9-.4l-.2-1V352h1V361.2l.3.1h.3l.1.8h-.6zm-87.4 9h.8l.1 1 1.1-.8c.4-.3.8-.4 1.2-.4.7 0 1.3.3 1.6.7.3.5.5 1.1.5 2v4.3h-1v-4.2c0-.6-.1-1.1-.3-1.4-.2-.3-.6-.5-1-.5s-.7.1-1 .3l-1 .8v5h-1v-6.8zm10.2 7a3 3 0 01-2.7-1.7 4 4 0 01-.4-1.9c0-.7 0-1.4.4-1.9a3 3 0 012.7-1.7c.5 0 1 .2 1.5.5s.9.7 1.2 1.2c.3.5.4 1.2.4 2a4 4 0 01-.4 1.8 3 3 0 01-1.2 1.2 3 3 0 01-1.5.5zm0-.9c.4 0 .7-.1 1-.3.4-.2.6-.6.8-1 .2-.4.2-.9.2-1.4 0-.5 0-1-.2-1.4-.2-.4-.4-.7-.8-1-.3-.2-.6-.3-1-.3s-.8.1-1.1.3c-.3.3-.6.6-.7 1-.2.4-.3.9-.3 1.4 0 .8.2 1.5.6 2 .4.5.9.7 1.5.7zm6.8.9c-.7 0-1.2-.2-1.5-.6-.2-.4-.4-1-.4-1.6v-4h-1v-.7h1l.2-2h.8v2h1.9v.8h-1.9v3.9c0 .4.1.8.3 1 .1.2.4.3.8.3.2 0 .5 0 .8-.2l.2.8a4 4 0 01-1.2.3zm8.3 0c-.3 0-.7-.1-1-.3-.4-.1-.7-.3-1-.6l-.1.7h-.8v-10h1v4c.7-.6 1.4-1 2.1-1 .9 0 1.6.4 2 1 .5.6.7 1.4.7 2.5 0 .7-.1 1.4-.4 2-.3.5-.6 1-1 1.2-.5.3-1 .5-1.5.5zm-.2-.9c.4 0 .8-.1 1-.3.4-.3.6-.6.8-1 .2-.4.3-1 .3-1.5 0-.8-.2-1.4-.5-1.9s-.8-.7-1.4-.7c-.6 0-1.2.3-2 1v3.7l1 .5.8.2zm10.2-3v.5h-4.8c0 .8.3 1.4.8 1.9.4.4 1 .6 1.6.6a3 3 0 001.7-.5l.4.7-1 .5a3.7 3.7 0 01-2.9-.3c-.5-.2-.8-.7-1.1-1.2a4 4 0 01-.5-1.9c0-.7.2-1.3.5-1.9.3-.5.6-1 1.1-1.2.5-.3 1-.5 1.5-.5.8 0 1.5.3 2 .9.4.6.7 1.3.7 2.3zm-1-.2c0-.7-.1-1.3-.4-1.7-.3-.3-.8-.5-1.3-.5s-1 .2-1.3.5c-.4.4-.7 1-.7 1.7h3.7zm7 4a2 2 0 01-1.4-.4c-.4-.4-.6-.8-.6-1.4 0-.8.4-1.4 1-1.7.7-.4 1.8-.7 3.3-.9 0-.5-.2-1-.4-1.3-.2-.3-.6-.5-1.1-.5-.6 0-1.3.2-2 .7l-.5-.7c1-.6 1.8-.9 2.7-.9.7 0 1.3.3 1.7.8.4.5.6 1.1.6 2v4.2h-.9v-.8h-.1c-.8.6-1.6 1-2.3 1zm.3-.8c.3 0 .6 0 1-.2l1-.7v-2a7 7 0 00-2.5.6c-.5.3-.8.7-.8 1.2 0 .4.1.7.4.9l.9.2zm8.1.9c-.3 0-.7-.1-1-.3-.3-.1-.7-.3-1-.6l-.1.7h-.8v-10h1v4c.7-.6 1.4-1 2.1-1 1 0 1.6.4 2 1 .5.6.7 1.4.7 2.5 0 .7-.1 1.4-.4 2-.2.5-.6 1-1 1.2-.5.3-1 .5-1.5.5zm-.2-.9c.4 0 .8-.1 1-.3.4-.3.6-.6.8-1 .2-.4.3-1 .3-1.5 0-.8-.2-1.4-.5-1.9s-.7-.7-1.4-.7c-.6 0-1.2.3-2 1v3.7l1 .5.8.2zm6.1.9c-.4 0-.7-.1-.8-.4-.2-.2-.3-.6-.3-1V368h1V377.2l.3.1h.3l.1.8h-.6zm7.6-4v.6h-4.8c0 .8.3 1.4.8 1.9.4.4 1 .6 1.6.6a3 3 0 001.7-.5l.4.7-1 .5a3.7 3.7 0 01-2.9-.3c-.4-.2-.8-.7-1.1-1.2a4 4 0 01-.4-1.9c0-.7.1-1.3.4-1.9.3-.5.7-1 1.1-1.2.5-.3 1-.5 1.5-.5.8 0 1.5.3 2 .9.4.6.7 1.3.7 2.3zm-1-.1c0-.7 0-1.3-.4-1.7-.3-.3-.7-.5-1.3-.5-.5 0-1 .2-1.3.5-.4.4-.7 1-.7 1.7h3.8zm7.5 4c-.6 0-1.1-.1-1.4-.5-.3-.4-.4-1-.4-1.6v-4h-1v-.7h1l.1-2h.9v2h1.9v.8h-2v3.9c0 .4.2.8.3 1 .2.2.5.3.9.3l.8-.2.2.8a4 4 0 01-1.3.3zm5 0a3 3 0 01-2.7-1.6 4 4 0 01-.4-1.9c0-.7.2-1.4.4-1.9a3 3 0 012.7-1.7c.6 0 1.1.2 1.6.5s.8.7 1.1 1.2c.3.5.5 1.2.5 2a4 4 0 01-.5 1.8 3 3 0 01-1.1 1.2 3 3 0 01-1.6.5zm0-.8c.4 0 .8-.1 1.1-.3.3-.2.6-.6.7-1 .2-.4.3-.9.3-1.4 0-.5 0-1-.3-1.4-.1-.4-.4-.7-.7-1-.3-.2-.7-.3-1-.3-.5 0-.8.1-1.1.3l-.8 1-.2 1.4c0 .8.2 1.5.6 2 .3.5.8.7 1.4.7zm10 .9c-.8 0-1.4-.3-2-1-.4-.6-.7-1.5-.7-2.6 0-.7.1-1.3.4-1.9.3-.5.6-1 1-1.2a2.6 2.6 0 012.5-.3l1 .6V368h1v10h-.9v-.8h-.1l-1 .7c-.3.2-.7.3-1.1.3zm.3-.9c.3 0 .6 0 1-.2l.8-.8v-3.6c-.3-.3-.5-.5-.8-.6l-.9-.2c-.4 0-.7.1-1 .4-.3.2-.6.5-.8 1-.2.3-.2.8-.2 1.3 0 .9.1 1.5.5 2 .3.5.8.7 1.4.7zm7.8.9a3 3 0 01-2.7-1.7 4 4 0 01-.4-1.9c0-.7.1-1.4.4-1.9a3 3 0 012.7-1.7c.6 0 1.1.2 1.6.5s.8.7 1.1 1.2c.3.5.4 1.2.4 2a4 4 0 01-.4 1.8 3 3 0 01-1.1 1.2 3 3 0 01-1.6.5zm0-.9c.4 0 .8-.1 1-.3.4-.2.7-.6.8-1 .2-.4.3-.9.3-1.4 0-.5 0-1-.3-1.4-.1-.4-.4-.7-.7-1-.3-.2-.7-.3-1-.3-.5 0-.8.1-1.2.3l-.7 1c-.2.4-.2.9-.2 1.4 0 .8.2 1.5.5 2 .4.5 1 .7 1.5.7zm-81 16.9a2 2 0 01-1.4-.5c-.3-.4-.5-.8-.5-1.4 0-.8.3-1.4 1-1.7.7-.4 1.7-.7 3.2-.9 0-.5-.1-1-.3-1.3-.2-.3-.6-.5-1.2-.5s-1.3.2-2 .7l-.4-.7c.9-.6 1.8-.9 2.6-.9s1.4.3 1.8.8c.3.5.5 1.1.5 2v4.2h-.8l-.1-.8c-.9.6-1.6 1-2.3 1zm.3-.9c.4 0 .7 0 1-.2l1-.7v-2c-1.2.1-2 .4-2.5.6-.5.3-.7.7-.7 1.2 0 .4.1.7.3.9l1 .2zm5.2-6h.9v1h.1l1-1 1.3-.3c.7 0 1.2.3 1.6.7.3.5.5 1.1.5 2v4.3h-1v-4.2c0-.6-.2-1.1-.4-1.4-.2-.3-.5-.5-1-.5-.3 0-.7.1-1 .3l-1 .8v5h-1v-6.8zm7.7 9.7a2 2 0 01-.8-.2l.2-.8.5.1c.4 0 .7-.1 1-.4l.6-1.1.2-.6-2.8-6.8h1l1.5 3.9.7 2 .5-1.4.1-.6 1.3-3.9h1l-2.6 7.4c-.2.8-.6 1.3-1 1.7a2 2 0 01-1.4.7zm8.4-2.8c-.7 0-1.1-.2-1.4-.6-.3-.4-.5-1-.5-1.6v-4h-1v-.7h1l.2-2h.9v2h1.8v.8H145v3.9c0 .4 0 .8.2 1 .2.2.5.3.8.3.2 0 .5 0 .8-.2l.2.8a4 4 0 01-1.2.3zm2.6-10.2h1V388.2a5 5 0 011-.8c.4-.3.8-.4 1.2-.4.8 0 1.3.3 1.6.7.3.5.5 1.1.5 2v4.3h-1v-4.2c0-.6-.1-1.1-.3-1.4-.2-.3-.6-.5-1-.5s-.7.1-1 .3l-1 .8v5h-1v-10zm7.6 3.2h1v6.8h-1v-6.8zm.5-1.4l-.5-.2a.7.7 0 01-.2-.6c0-.2 0-.3.2-.4.1-.2.3-.2.5-.2s.3 0 .5.2l.2.4c0 .3 0 .4-.2.6l-.5.2zm2.8 1.4h.9v1h.1l1.1-.8c.4-.3.8-.4 1.2-.4.7 0 1.2.3 1.6.7.3.5.5 1.1.5 2v4.3h-1v-4.2c0-.6-.2-1.1-.4-1.4-.2-.3-.5-.5-1-.5l-1 .3-1 .8v5h-1v-6.8zm10 10c-1 0-1.6-.2-2.1-.5-.5-.4-.8-.8-.8-1.4 0-.3.1-.5.3-.8.1-.3.4-.5.7-.7l-.4-.5-.2-.7c0-.3 0-.5.2-.7l.6-.6-.7-.8-.2-1a2.4 2.4 0 011.2-2.1c.4-.3.8-.4 1.3-.4l1 .2h2.3v.8h-1.5l.5.7.1.8c0 .4 0 .9-.3 1.2-.2.4-.5.7-.9.9a2.6 2.6 0 01-2.2 0l-.4.4-.1.4c0 .3 0 .5.3.6.1.2.5.2.9.2h1.4c.7 0 1.3.1 1.7.4.4.3.6.7.6 1.2 0 .4-.1.8-.4 1.2-.3.3-.7.6-1.2.8-.5.3-1.1.4-1.8.4zm-.1-6c.4 0 .8-.2 1-.5.4-.3.5-.7.5-1.2s-.1-1-.4-1.2c-.3-.3-.7-.5-1.1-.5-.4 0-.8.2-1.1.5-.3.3-.4.7-.4 1.2s.1.9.4 1.2c.3.3.7.4 1 .4zm.2 5.2c.4 0 .8 0 1.1-.2.4-.1.6-.3.8-.5.2-.2.3-.5.3-.7 0-.4-.1-.6-.4-.7-.2-.2-.6-.2-1-.2h-1.3l-.8-.1c-.5.3-.8.7-.8 1.2 0 .4.2.7.6.9.3.2.8.3 1.5.3zm12.5-6.2v.6H177c0 .8.3 1.4.7 1.9.5.4 1 .6 1.7.6a3 3 0 001.7-.5l.4.7-1 .5a3.7 3.7 0 01-2.9-.3c-.5-.2-.9-.7-1.2-1.2a4 4 0 01-.4-1.9c0-.7.2-1.3.4-1.9.3-.5.7-1 1.2-1.2.4-.3 1-.5 1.5-.5.8 0 1.5.3 2 .9.4.6.6 1.3.6 2.3zm-.9-.1c0-.7-.1-1.3-.4-1.7-.3-.3-.8-.5-1.3-.5s-1 .2-1.4.5c-.4.4-.6 1-.7 1.7h3.8zm3.8 4c-.4 0-.7 0-.9-.3-.2-.2-.3-.6-.3-1V384h1v8.8l.1.4.3.1h.2l.2.8h-.7zm4 0c-.4 0-.8 0-1.3-.2l-1.1-.7.5-.7 1 .7 1 .2c.5 0 .8-.1 1-.4.3-.2.4-.4.4-.8a1 1 0 00-.4-.7l-1.2-.6a6 6 0 01-1.5-.8c-.3-.2-.5-.6-.5-1.2 0-.5.2-1 .6-1.3.4-.4 1-.6 1.7-.6.4 0 .7.1 1.1.3.4 0 .7.3 1 .5l-.5.7a4 4 0 00-.8-.5 2 2 0 00-.8-.1c-.4 0-.8 0-1 .3a1 1 0 00-.3.7c0 .2 0 .4.2.5l.5.4a32.3 32.3 0 002 .8l.6.6a1.8 1.8 0 010 2 2 2 0 01-.8.7 3 3 0 01-1.3.3zm9.3-3.9v.6h-4.7c0 .8.3 1.4.7 1.9.5.4 1 .6 1.7.6a3 3 0 001.7-.5l.4.7-1 .5a3.7 3.7 0 01-2.9-.3c-.5-.2-.9-.7-1.1-1.2a4 4 0 01-.5-1.9c0-.7.2-1.3.5-1.9.2-.5.6-1 1-1.2.6-.3 1-.5 1.6-.5.8 0 1.5.3 2 .9.4.6.6 1.3.6 2.3zm-.9-.1c0-.7-.1-1.3-.4-1.7-.3-.3-.8-.5-1.3-.5s-1 .2-1.4.5c-.3.4-.6 1-.7 1.7h3.8zm-78.4 20c-.7 0-1.2-.2-1.6-.6-.3-.4-.5-1.1-.5-2v-4.3h1v4.2c0 .6.1 1.1.4 1.4.2.3.5.5 1 .5l1-.3.9-1v-4.8h1v6.8h-.8l-.1-1-1.1.8c-.4.3-.8.4-1.2.4zm5.6-6.9h.8l.1 1 1.1-.8c.4-.3.8-.4 1.2-.4.7 0 1.3.3 1.6.7.3.5.5 1.1.5 2v4.3h-1v-4.2c0-.6-.1-1.1-.3-1.4-.2-.3-.6-.5-1-.5s-.7.1-1 .3l-1 .8v5h-1v-6.8zm9.6 7c-.6 0-1.1-.2-1.4-.6-.3-.4-.4-1-.4-1.6v-4h-1v-.7h1l.1-2h.9v2h1.8v.8h-1.8v3.9c0 .4 0 .8.2 1 .2.2.5.3.9.3l.8-.2.2.8a4 4 0 01-1.3.3zm2.6-7h1v6.8h-1v-6.8zm.5-1.4l-.5-.2a.7.7 0 01-.2-.6l.2-.4c.2-.2.3-.2.5-.2s.4 0 .5.2c.2 0 .2.2.2.4 0 .3 0 .4-.2.6l-.5.2zm4 8.4c-.4 0-.6-.1-.8-.4-.2-.2-.3-.6-.3-1V400h1v8.8l.1.4.2.1h.3l.1.8h-.6zm5.2 2.8a2 2 0 01-.7-.2l.2-.8.5.1c.4 0 .7-.1 1-.4l.6-1.1.1-.6-2.7-6.8h1l1.5 3.9.7 2 .4-1.4.2-.6 1.3-3.9h1l-2.6 7.4c-.3.8-.6 1.3-1 1.7a2 2 0 01-1.5.7zm9-2.8a3 3 0 01-2.7-1.7 4 4 0 01-.4-1.9c0-.7.1-1.4.4-1.9a3 3 0 012.7-1.7c.5 0 1 .2 1.5.5s.9.7 1.2 1.2c.3.5.4 1.2.4 2a4 4 0 01-.4 1.8 3 3 0 01-1.2 1.2 3 3 0 01-1.5.5zm0-.9c.4 0 .7-.1 1-.3.4-.2.6-.6.8-1 .2-.4.3-.9.3-1.4 0-.5-.1-1-.3-1.4l-.7-1c-.4-.2-.7-.3-1.1-.3-.4 0-.8.1-1 .3-.4.3-.6.6-.8 1-.2.4-.3.9-.3 1.4 0 .8.2 1.5.6 2 .4.5.9.7 1.5.7zm7 .9c-.8 0-1.3-.3-1.6-.7-.4-.4-.5-1.1-.5-2v-4.3h1v4.2c0 .6 0 1.1.3 1.4.2.3.5.5 1 .5.4 0 .7-.1 1-.3l1-1v-4.8h1v6.8h-.9v-1h-.1l-1 .8c-.4.3-.8.4-1.3.4zm10.5-9.5c-.7 0-1 .4-1 1.3v1.2h1.5v.9h-1.5v5.9h-1v-6h-1v-.7h1V402c0-.7.1-1.2.5-1.6.3-.4.8-.6 1.4-.6.4 0 .7.1 1 .3l-.1.7a2 2 0 00-.8-.1zm1.8 2.5h1v6.8h-1v-6.8zm.5-1.4l-.5-.2a.7.7 0 01-.2-.6c0-.2 0-.3.2-.4.1-.2.3-.2.5-.2s.4 0 .5.2c.2 0 .2.2.2.4 0 .3 0 .4-.2.6l-.5.2zm2.9 1.4h.8l.1 1 1.1-.8c.4-.3.8-.4 1.2-.4.7 0 1.3.3 1.6.7.3.5.5 1.1.5 2v4.3h-1v-4.2c0-.6-.1-1.1-.3-1.4-.2-.3-.6-.5-1-.5s-.7.1-1 .3l-1 .8v5h-1v-6.8zm7.6 0h1v6.8h-1v-6.8zm.5-1.4l-.5-.2a.7.7 0 01-.2-.6c0-.2 0-.3.2-.4.1-.2.3-.2.5-.2s.4 0 .5.2l.2.4c0 .3 0 .4-.2.6l-.5.2zm4.6 8.4c-.4 0-.9-.1-1.3-.3-.5-.2-.9-.4-1.2-.7l.5-.7 1 .7 1 .2c.5 0 .9-.1 1.1-.4.2-.2.4-.4.4-.8a1 1 0 00-.5-.7l-1.1-.6a6 6 0 01-1.5-.8c-.4-.2-.6-.6-.6-1.2 0-.5.2-1 .6-1.3.5-.4 1-.6 1.7-.6.4 0 .8.1 1.1.3.4 0 .7.3 1 .5l-.5.7a4 4 0 00-.8-.5 2 2 0 00-.8-.1c-.4 0-.7 0-1 .3a1 1 0 00-.3.7c0 .2 0 .4.2.5l.5.4a34 34 0 002 .8l.7.6a1.8 1.8 0 010 2 2 2 0 01-.9.7 3 3 0 01-1.3.3zm4.1-10.2h1V404.2a5 5 0 011-.8c.4-.3.8-.4 1.3-.4.7 0 1.2.3 1.5.7.4.5.5 1.1.5 2v4.3h-1v-4.2c0-.6-.1-1.1-.3-1.4-.2-.3-.6-.5-1-.5s-.7.1-1 .3l-1 .8v5h-1v-10zm8 10.2l-.5-.3a.8.8 0 01-.2-.5c0-.3 0-.5.2-.6l.6-.3c.2 0 .4.1.5.3.2.1.2.3.2.6 0 .2 0 .4-.2.5-.1.2-.3.3-.5.3z" fill="#5257E6"/><g clip-path="url(#clip2)"><path d="M115 238.7h90.3M159 226.6h-38a6.4 6.4 0 00-6.4 6.4v51c0 3.5 2.9 6.3 6.4 6.3h78.3c3.5 0 6.3-2.8 6.3-6.3v-51c0-3.5-2.8-6.4-6.3-6.4H159z" stroke="#5257E6" stroke-miterlimit="10"/><path d="M122.7 234.2a1.6 1.6 0 100-3.2 1.6 1.6 0 000 3.2zM127.3 234.2a1.6 1.6 0 100-3.2 1.6 1.6 0 000 3.2zM132 234.2a1.6 1.6 0 100-3.2 1.6 1.6 0 000 3.2z" fill="#5257E6"/><path d="M169.6 280h-18.8c-1 0-1.7-.7-1.7-1.6v-18.8c0-.9.8-1.6 1.7-1.6h18.8c.9 0 1.6.7 1.6 1.6v18.8c0 .9-.8 1.6-1.6 1.6z" stroke="#5257E6" stroke-miterlimit="10"/><path d="M154 258v-4.7a6.2 6.2 0 1112.3 0v4.8" stroke="#5257E6" stroke-miterlimit="10"/><path d="M163.2 267.6a3 3 0 00-6-.8 3 3 0 001.4 3.4v4.2c0 .4.4.7.7.7h1.7c.4 0 .7-.3.7-.7v-4.2a3 3 0 001.5-2.6z" fill="#5257E6"/></g><path d="M238.1 314.2a4.4 4.4 0 01-3.2-1.4l.7-.7 1.1.8c.5.3 1 .4 1.4.4.7 0 1.2-.2 1.5-.5a1.4 1.4 0 00.3-2l-.4-.4-1-.4-1.2-.6c-.6-.3-1-.6-1.4-1a2 2 0 01-.5-1.4c0-.4.1-.8.4-1.2.2-.4.5-.7 1-.9a3.6 3.6 0 013 0c.4.2.8.5 1.1.9l-.6.6a3 3 0 00-2-.9 2 2 0 00-1.4.4c-.3.3-.5.6-.5 1s.1.6.3.8l.5.5.8.4 1.3.5c.6.3 1 .6 1.4 1 .3.4.5.9.5 1.5 0 .5-.1 1-.4 1.3-.2.4-.6.7-1 1-.5.2-1 .3-1.7.3zm6.8 0c-.7 0-1.2-.3-1.6-.7-.3-.4-.5-1.1-.5-2v-4.3h1v4.2c0 .6.2 1.1.4 1.4.2.3.5.5 1 .5.4 0 .7-.1 1-.3l1-1v-4.8h1v6.8h-1v-1l-1.1.8c-.4.3-.8.4-1.2.4zm8.5 0l-1-.3-1-.6v.7h-.9v-10h1v4c.7-.6 1.5-1 2.2-1 .8 0 1.5.4 2 1 .4.6.7 1.4.7 2.5 0 .7-.2 1.4-.4 2-.3.5-.7 1-1.1 1.2-.5.3-1 .5-1.5.5zm-.2-.9c.4 0 .8-.1 1.1-.3.3-.3.6-.6.7-1 .2-.4.3-1 .3-1.5 0-.8-.1-1.4-.5-1.9-.3-.5-.7-.7-1.4-.7-.5 0-1.2.3-1.9 1v3.7l1 .5.7.2zm5-6h.9v1c.8-.9 1.5-1.3 2.2-1.3 1 0 1.6.5 1.9 1.4.4-.5.7-.8 1.1-1 .4-.2.7-.4 1.1-.4 1.4 0 2 1 2 2.7v4.3h-1v-4.2c0-.6 0-1.1-.3-1.4-.2-.3-.5-.5-1-.5s-1 .4-1.7 1.1v5h-1v-4.2c0-.6-.2-1.1-.4-1.4-.2-.3-.5-.5-1-.5s-1.1.4-1.8 1.1v5h-1v-6.8zm11.6 0h1v6.7h-1v-6.8zm.5-1.5l-.5-.2a.7.7 0 01-.2-.6c0-.2 0-.3.2-.4.1-.2.3-.2.5-.2s.4 0 .5.2l.2.4c0 .3 0 .4-.2.6l-.5.2zm5 8.4c-.8 0-1.2-.2-1.5-.6-.3-.4-.5-1-.5-1.6v-4h-1v-.7h1l.2-2h.9v2h1.8v.8h-1.8v3.9c0 .4 0 .8.2 1 .2.2.4.3.8.3.2 0 .5 0 .8-.2l.2.8a4 4 0 01-1.2.3zm5.3 2.8a2 2 0 01-.8-.2l.2-.8.6.1c.3 0 .7-.1 1-.4l.5-1.1.2-.6-2.7-6.8h1l1.5 3.9.7 2 .4-1.4.2-.6 1.3-3.9h1l-2.6 7.4c-.3.8-.6 1.3-1 1.7a2 2 0 01-1.5.7zm9-2.8a3 3 0 01-2.7-1.7 4 4 0 01-.5-1.9c0-.7.2-1.4.5-1.9a3 3 0 012.7-1.7c.5 0 1 .2 1.5.5s.9.7 1.2 1.2c.2.5.4 1.2.4 2a4 4 0 01-.4 1.8 3 3 0 01-1.2 1.2 3 3 0 01-1.5.5zm0-.9c.4 0 .7-.1 1-.3.4-.2.6-.6.8-1 .2-.4.2-.9.2-1.4 0-.5 0-1-.2-1.4-.2-.4-.4-.7-.8-1-.3-.2-.6-.3-1-.3s-.8.1-1.1.3c-.3.3-.6.6-.7 1-.2.4-.3.9-.3 1.4 0 .8.2 1.5.6 2 .4.5.9.7 1.5.7zm6.9.9c-.7 0-1.2-.3-1.6-.7-.3-.4-.5-1.1-.5-2v-4.3h1v4.2c0 .6.2 1.1.4 1.4.2.3.5.5 1 .5.4 0 .7-.1 1-.3l1-1v-4.8h1v6.8h-1v-1l-1.1.8c-.4.3-.8.4-1.2.4zm5.6-7h.8l.1 1.3c.3-.5.6-.8 1-1a1.8 1.8 0 011.7-.3l-.2.9-.6-.1c-.4 0-.7.1-1 .4-.3.2-.6.6-.8 1.2v4.4h-1v-6.8zm-65.8 19v.6h-4.8c0 .8.3 1.4.8 1.9.4.4 1 .6 1.6.6a3 3 0 001.7-.5l.4.7-1 .5a3.7 3.7 0 01-2.9-.3c-.5-.2-.8-.7-1.1-1.2a4 4 0 01-.4-1.9c0-.7 0-1.3.4-1.9.3-.5.6-1 1.1-1.2.5-.3 1-.5 1.5-.5.8 0 1.5.3 2 .9.4.6.7 1.3.7 2.3zm-1-.1c0-.7-.1-1.3-.4-1.7-.3-.3-.7-.5-1.3-.5-.5 0-1 .2-1.3.5-.4.4-.7 1-.7 1.7h3.8zm3.8.4l-2-3.3h1l1 1.6.7 1 .7-1 .9-1.6h1l-2 3.4 2.2 3.4h-1.1l-1-1.7-.8-1.2-.5.8-.3.4-1 1.7h-1l2.2-3.5zm6.3 3.7a2 2 0 01-1.4-.5c-.4-.4-.6-.8-.6-1.4 0-.8.3-1.4 1-1.7.7-.4 1.8-.7 3.2-.9 0-.5 0-1-.3-1.3-.2-.3-.6-.5-1.1-.5-.7 0-1.4.2-2 .7l-.5-.7c1-.6 1.8-.9 2.6-.9s1.4.3 1.8.8c.4.5.5 1.1.5 2v4.2h-.8v-.8h-.1c-.8.6-1.6 1-2.3 1zm.3-.9c.3 0 .6 0 1-.2l1-.7v-2a7 7 0 00-2.6.6c-.4.3-.7.7-.7 1.2 0 .4.1.7.4.9l.9.2zm5.2-6h.8v1h.1c.8-.9 1.5-1.3 2.1-1.3 1 0 1.6.5 2 1.4.3-.5.7-.8 1-1 .4-.2.8-.4 1.2-.4 1.3 0 2 1 2 2.7v4.3h-1v-4.2c0-.6-.1-1.1-.3-1.4-.2-.3-.6-.5-1-.5-.5 0-1.1.4-1.8 1.1v5h-1v-4.2c0-.6-.1-1.1-.3-1.4-.3-.3-.6-.5-1-.5-.6 0-1.2.4-1.8 1.1v5h-1v-6.8zm15.9 6.9a2 2 0 01-1.5-.5c-.3-.4-.5-.8-.5-1.4 0-.8.3-1.4 1-1.7.7-.4 1.7-.7 3.2-.9 0-.5-.1-1-.3-1.3-.2-.3-.6-.5-1.2-.5s-1.3.2-2 .7l-.4-.7c.9-.6 1.8-.9 2.6-.9s1.4.3 1.8.8c.3.5.5 1.1.5 2v4.2h-.8l-.1-.8c-.9.6-1.6 1-2.3 1zm.2-.9c.4 0 .7 0 1-.2l1-.7v-2a7 7 0 00-2.5.6c-.5.3-.7.7-.7 1.2 0 .4.1.7.3.9l1 .2zm5.2-6h.9v1h.1l1-1 1.3-.3c.7 0 1.2.3 1.6.7.3.5.5 1.1.5 2v4.3h-1v-4.2c0-.6-.2-1.1-.4-1.4-.2-.3-.5-.5-1-.5-.3 0-.7.1-1 .3l-1 .8v5h-1v-6.8zm10 6.9c-1 0-1.6-.3-2.1-1-.5-.6-.8-1.5-.8-2.6 0-.7.2-1.3.4-1.9.3-.5.7-1 1.1-1.2a2.6 2.6 0 012.5-.3l1 .6-.1-1.1V320h1v10h-.9v-.8l-1 .7-1.2.3zm.1-.9c.4 0 .7 0 1-.2l.9-.8v-3.6a3 3 0 00-.9-.6l-.9-.2c-.3 0-.7.1-1 .4-.3.2-.6.5-.8 1l-.2 1.3c0 .9.2 1.5.5 2s.8.7 1.4.7zm13.2-3v.5h-4.7c0 .8.3 1.4.7 1.9.5.4 1 .6 1.7.6a3 3 0 001.7-.5l.4.7-1 .5a3.7 3.7 0 01-2.9-.3c-.5-.2-.9-.7-1.1-1.2a4 4 0 01-.5-1.9c0-.7.2-1.3.5-1.9.2-.5.6-1 1-1.2.6-.3 1-.5 1.6-.5.8 0 1.5.3 2 .9.4.6.6 1.3.6 2.3zm-.9-.2c0-.7-.1-1.3-.4-1.7-.3-.3-.8-.5-1.3-.5s-1 .2-1.4.5c-.4.4-.6 1-.7 1.7h3.8zm3.8.4l-2-3.3h1l1 1.6.7 1 .7-1 .9-1.6h1l-2 3.4 2.2 3.4h-1.1l-1-1.7-.8-1.2-.5.8-.3.4-1 1.7h-1l2.2-3.5zm4.9-3.3h1v6.8h-1v-6.8zm.5-1.4l-.5-.2a.7.7 0 01-.2-.6c0-.2 0-.3.2-.4.1-.2.3-.2.5-.2s.4 0 .5.2l.2.4c0 .3 0 .4-.2.6l-.5.2zm5 8.4c-.8 0-1.2-.2-1.5-.6-.3-.4-.5-1-.5-1.6v-4h-1v-.7h1l.2-2h.9v2h1.8v.8H308v3.9c0 .4 0 .8.2 1 .2.2.5.3.8.3.2 0 .5 0 .8-.2l.2.8a4 4 0 01-1.2.3zm-71.5 16c-.6 0-1.1-.2-1.4-.6-.3-.4-.4-1-.4-1.6v-4h-1v-.7h1l.1-2h.9v2h1.8v.8h-1.8v3.9c0 .4 0 .8.2 1 .2.2.5.3.9.3.2 0 .4 0 .7-.2l.3.8a4 4 0 01-1.3.3zM240 336h1V340.2a5 5 0 011-.8c.4-.3.8-.4 1.3-.4.7 0 1.2.3 1.5.7.4.5.5 1.1.5 2v4.3h-1v-4.2c0-.6 0-1.1-.3-1.4-.2-.3-.6-.5-1-.5s-.7.1-1 .3l-1 .8v5h-1v-10zm12.8 6.2v.6h-4.8c0 .8.3 1.4.8 1.9.4.4 1 .6 1.6.6a3 3 0 001.7-.5l.4.7-1 .5a3.7 3.7 0 01-2.9-.3c-.5-.2-.8-.7-1.1-1.2a4 4 0 01-.5-1.9c0-.7.2-1.3.5-1.9.3-.5.6-1 1.1-1.2.5-.3 1-.5 1.5-.5.8 0 1.5.3 2 .9.4.6.7 1.3.7 2.3zm-1-.1c0-.7-.1-1.3-.4-1.7-.3-.3-.8-.5-1.3-.5s-1 .2-1.3.5c-.4.4-.7 1-.7 1.7h3.7zm8.4 4c-.3 0-.7 0-1-.2-.4-.1-.7-.3-1-.6l-.1.7h-.8v-10h1v4c.7-.6 1.4-1 2.1-1 .9 0 1.6.4 2 1 .5.6.7 1.4.7 2.5 0 .7-.1 1.4-.4 2-.3.5-.6 1-1 1.2-.5.3-1 .5-1.5.5zm-.2-.8c.4 0 .8-.1 1-.3.4-.3.6-.6.8-1 .2-.4.3-1 .3-1.5 0-.8-.2-1.4-.5-1.9s-.8-.7-1.4-.7c-.6 0-1.2.3-2 1v3.7l1 .5.8.2zm5-6h.8l.1 1.2c.3-.5.6-.8.9-1a1.8 1.8 0 011.8-.3l-.2.9-.7-.1c-.3 0-.6.1-1 .4-.2.2-.5.6-.7 1.2v4.4h-1v-6.8zm7.2 6.9a3 3 0 01-2.7-1.7 4 4 0 01-.4-1.9c0-.7.1-1.4.4-1.9a3 3 0 012.7-1.7c.6 0 1 .2 1.5.5s.9.7 1.2 1.2c.3.5.4 1.2.4 2a4 4 0 01-.4 1.8 3 3 0 01-1.2 1.2 3 3 0 01-1.5.5zm0-.9c.4 0 .7-.1 1-.3.4-.2.6-.6.8-1 .2-.4.3-.9.3-1.4 0-.5-.1-1-.3-1.4l-.7-1c-.4-.2-.7-.3-1.1-.3-.4 0-.8.1-1 .3-.4.3-.6.6-.8 1-.2.4-.3.9-.3 1.4 0 .8.2 1.5.6 2 .4.5.9.7 1.5.7zm4-6h1.1l1 4 .2.6.3 1.2.5-1.8 1.1-4h1l1.1 4 .5 1.8.5-1.8 1-4h1l-1.8 6.7h-1.3l-1-3.8-.3-1.1-.2-.8-.5 2-1 3.7H278l-2-6.8zm12.6 6.9c-.5 0-1-.1-1.4-.3l-1.1-.7.5-.7 1 .7 1 .2c.5 0 .8-.1 1-.4.3-.2.4-.4.4-.8a1 1 0 00-.4-.7l-1.1-.6a6 6 0 01-1.6-.8c-.3-.2-.5-.6-.5-1.2 0-.5.2-1 .6-1.3.4-.4 1-.6 1.7-.6.4 0 .8.1 1.1.3.4 0 .7.3 1 .5l-.5.7a4 4 0 00-.8-.5 2 2 0 00-.8-.1c-.4 0-.7 0-1 .3a1 1 0 00-.3.7c0 .2 0 .4.2.5l.5.4a32.3 32.3 0 002 .8l.6.6a1.8 1.8 0 010 2 2 2 0 01-.8.7 3 3 0 01-1.3.3zm9.3-4v.6h-4.8c0 .8.3 1.4.8 1.9.4.4 1 .6 1.6.6a3 3 0 001.7-.5l.4.7-1 .5a3.7 3.7 0 01-2.9-.3c-.5-.2-.8-.7-1.1-1.2a4 4 0 01-.4-1.9c0-.7 0-1.3.4-1.9.3-.5.6-1 1.1-1.2.5-.3 1-.5 1.5-.5.8 0 1.5.3 2 .9.4.6.7 1.3.7 2.3zm-1-.1c0-.7-.1-1.3-.4-1.7-.3-.3-.7-.5-1.3-.5-.5 0-1 .2-1.3.5-.4.4-.7 1-.7 1.7h3.8zm2.7-2.9h.8l.1 1.3c.3-.5.6-.8.9-1a1.8 1.8 0 011.8-.3l-.2.9-.7-.1c-.3 0-.6.1-1 .4-.2.2-.5.6-.7 1.2v4.4h-1v-6.8zm4.5 7c-.2 0-.4-.1-.5-.3a.8.8 0 01-.3-.5c0-.3.1-.5.3-.6.1-.2.3-.3.5-.3l.6.3.2.6c0 .2 0 .4-.2.5l-.6.3z" fill="#5257E6"/><g clip-path="url(#clip3)"><path d="M289.5 273v14.2c0 1.7-1.4 3.2-3.2 3.2h-39.5a3.2 3.2 0 01-3.2-3.2v-57.4c0-1.7 1.5-3.2 3.2-3.2h28.7l14 14.7V273z" fill="#fff" stroke="#5257E6" stroke-miterlimit="10" stroke-linecap="round"/><path d="M275.5 226.6v11.5c0 1.8 1.4 3.2 3.2 3.2h10.8M252.5 276.9l2.8 3.2M255.3 280l2.8-3.1M252.5 283.3l2.8-3.2M255.3 280l2.8 3.3M264.6 262.8h17.6M264.6 267.2H277M264.6 278.2h15.8M264.6 282.6h17.6" stroke="#5257E6" stroke-miterlimit="10" stroke-linecap="round"/><path d="M254.8 268.3a3.3 3.3 0 100-6.6 3.3 3.3 0 000 6.6z" fill="#5257E6"/><path d="M264.6 247.5h17.6M264.6 251.9H277" stroke="#5257E6" stroke-miterlimit="10" stroke-linecap="round"/><path d="M254.8 253a3.3 3.3 0 100-6.6 3.3 3.3 0 000 6.6zM285 271a12.7 12.7 0 100-25.4 12.7 12.7 0 000 25.5z" fill="#5257E6"/><path d="M276.7 257.5L291 252s.2 0 .2.2l-5.4 14.4c0 .1-.1.1-.2 0l-2.4-6.4-6.4-2.4c-.2 0-.2-.2 0-.3zM285 258.4l2.2-2.2" stroke="#fff" stroke-miterlimit="10" stroke-linecap="round"/></g><path d="M231.9 85.8h1v8.3h4v.9h-5v-9.2zm9 9.4a3 3 0 01-2.7-1.7 4 4 0 01-.4-1.9c0-.7.2-1.4.4-1.9A3 3 0 01241 88c.6 0 1.1.2 1.6.5s.9.7 1.1 1.2c.3.5.5 1.2.5 2a4 4 0 01-.5 1.8 3 3 0 01-1.1 1.2 3 3 0 01-1.6.5zm0-.9c.4 0 .8-.1 1.1-.3.3-.2.6-.6.8-1l.2-1.4c0-.5 0-1-.2-1.4l-.8-1c-.3-.2-.7-.3-1-.3-.5 0-.8.1-1.1.3l-.8 1-.2 1.4c0 .8.2 1.5.6 2 .3.5.8.7 1.4.7zm7.3 3.9c-.9 0-1.5-.2-2-.5-.6-.4-.8-.8-.8-1.4 0-.3 0-.5.2-.8l.8-.7-.5-.5-.1-.7c0-.3 0-.5.2-.7l.5-.6-.6-.8c-.2-.3-.2-.7-.2-1a2.4 2.4 0 011.2-2.2 2.8 2.8 0 012.2-.1h2.3v.8H250l.4.7c.2.2.2.5.2.8 0 .4-.1.9-.3 1.2-.2.4-.5.7-.9.8a2.6 2.6 0 01-2.3.1l-.3.4-.1.4c0 .3 0 .5.2.6.2.2.5.2 1 .2h1.3c.8 0 1.4.1 1.8.4.4.3.6.7.6 1.2 0 .4-.2.8-.5 1.2-.2.3-.6.6-1.2.8-.5.3-1 .4-1.7.4zm0-6c.4 0 .7-.2 1-.5.3-.3.5-.7.5-1.2s-.2-1-.5-1.2c-.3-.3-.6-.5-1-.5-.5 0-.8.2-1.1.5-.3.3-.5.7-.5 1.2s.2.9.5 1.2c.3.3.6.4 1 .4zm.1 5.2c.5 0 .8 0 1.2-.2l.8-.5c.2-.2.3-.5.3-.7 0-.4-.2-.6-.4-.7-.2-.2-.6-.2-1-.2h-1.3l-.9-.1c-.5.3-.7.7-.7 1.2 0 .4.2.7.5.9.4.2.9.3 1.5.3zm7.4-9.2h1V95h-1v-6.8zm.5-1.4l-.5-.2a.7.7 0 01-.2-.6l.2-.5.5-.1.5.1c.2.2.2.3.2.5 0 .3 0 .4-.2.6l-.5.2zm3 1.4h.8v1l1.2-.9c.3-.2.7-.3 1.2-.3.7 0 1.2.3 1.5.7.4.5.5 1.1.5 2V95h-1v-4.2c0-.6-.1-1.1-.3-1.4-.2-.3-.6-.5-1-.5s-.7.1-1 .3l-1 .8v5h-1v-6.8zm12.4 7c-.7 0-1.2-.2-1.5-.6-.3-.4-.4-1-.4-1.6v-4h-1v-.7h1l.2-2h.8v2h1.9v.8h-1.9V93c0 .4.1.8.3 1 .1.2.4.3.8.3.2 0 .5 0 .8-.2l.2.8a4 4 0 01-1.2.3zm5 0a3 3 0 01-2.7-1.7 4 4 0 01-.5-1.9c0-.7.2-1.4.5-1.9a3 3 0 012.7-1.7c.5 0 1 .2 1.5.5s.9.7 1.1 1.2c.3.5.5 1.2.5 2a4 4 0 01-.4 1.8 3 3 0 01-1.2 1.2 3 3 0 01-1.5.5zm0-.9c.4 0 .7-.1 1-.3.3-.2.6-.6.8-1l.2-1.4c0-.5 0-1-.2-1.4l-.8-1c-.3-.2-.6-.3-1-.3s-.8.1-1.1.3c-.3.3-.6.6-.7 1-.2.4-.3.9-.3 1.4 0 .8.2 1.5.6 2 .4.5.9.7 1.5.7zm7.8 3.7a2 2 0 01-.8-.2l.2-.8.5.1c.4 0 .7-.1 1-.4l.6-1.1.2-.6-2.8-6.8h1l1.5 3.9.7 2 .5-1.4.1-.6 1.3-3.9h1l-2.6 7.4c-.2.8-.6 1.3-1 1.7a2 2 0 01-1.4.7zm9-2.8a3 3 0 01-2.8-1.7 4 4 0 01-.4-1.9c0-.7.1-1.4.4-1.9a3 3 0 012.7-1.7c.6 0 1 .2 1.6.5.4.3.8.7 1.1 1.2.3.5.4 1.2.4 2a4 4 0 01-.4 1.8 3 3 0 01-1.1 1.2 3 3 0 01-1.6.5zm0-.9c.3 0 .7-.1 1-.3.3-.2.5-.6.7-1 .2-.4.3-.9.3-1.4 0-.5-.1-1-.3-1.4l-.7-1c-.3-.2-.7-.3-1-.3-.5 0-.8.1-1.2.3l-.7 1c-.2.4-.2.9-.2 1.4 0 .8.1 1.5.5 2s.9.7 1.5.7zm6.8.9c-.7 0-1.2-.3-1.5-.7-.3-.4-.5-1.1-.5-2v-4.3h1v4.2c0 .6.1 1.1.3 1.4.2.3.6.5 1 .5s.7-.1 1-.3l1-1v-4.8h1V95h-.9v-1h-.1l-1 .8c-.4.3-.8.4-1.3.4zm5.6-7h.9v1.3h.1c.2-.5.5-.8.9-1a1.8 1.8 0 011.7-.3l-.2.9-.6-.1c-.3 0-.6.1-1 .4-.3.2-.5.6-.8 1.2V95h-1v-6.8zm-81.5 23c-.5 0-1-.1-1.3-.3-.5-.2-.9-.4-1.2-.7l.5-.7 1 .7 1 .2c.5 0 .8-.1 1-.4.3-.2.5-.4.5-.8a1 1 0 00-.5-.7l-1.1-.6a6 6 0 01-1.5-.8c-.4-.2-.6-.6-.6-1.2 0-.5.2-1 .6-1.3.4-.4 1-.6 1.7-.6.4 0 .8.1 1.1.3.4 0 .7.3 1 .5l-.5.7a4 4 0 00-.8-.5 2 2 0 00-.8-.1c-.4 0-.7 0-1 .3a1 1 0 00-.3.7c0 .2 0 .4.2.5l.5.4a32.3 32.3 0 002 .8l.7.6.2 1c0 .3 0 .7-.2 1a2 2 0 01-.9.7 3 3 0 01-1.3.3zm6.7 0c-.6 0-1.1-.2-1.6-.5a3 3 0 01-1.1-1.2c-.3-.5-.4-1.2-.4-1.9s.1-1.4.4-1.9c.3-.5.7-1 1.2-1.2.5-.3 1-.5 1.6-.5.7 0 1.4.3 2 .9l-.6.6-.6-.4-.8-.2a2 2 0 00-1 .3c-.4.3-.7.6-.9 1-.2.4-.3.9-.3 1.4 0 .8.2 1.5.6 2 .4.5 1 .7 1.6.7.6 0 1.2-.2 1.7-.7l.4.7c-.3.3-.6.5-1 .6l-1.2.3zm3.8-10.2h1V105.2a5 5 0 011-.9l1.2-.3c.7 0 1.2.3 1.6.7.3.5.5 1.1.5 2v4.3h-1v-4.2c0-.6-.2-1.1-.4-1.4-.2-.3-.5-.5-1-.5l-1 .3-1 .8v5h-1v-10zm10.1 10.2a3 3 0 01-2.7-1.7 4 4 0 01-.4-1.9c0-.7.1-1.4.4-1.9a3 3 0 012.7-1.7c.6 0 1 .2 1.6.5.4.3.8.7 1 1.2.4.5.5 1.2.5 2a4 4 0 01-.4 1.8 3 3 0 01-1.1 1.2 3 3 0 01-1.6.5zm0-.9c.4 0 .8-.1 1-.3.4-.2.6-.6.8-1 .2-.4.3-.9.3-1.4 0-.5-.1-1-.3-1.4l-.7-1c-.3-.2-.7-.3-1-.3-.5 0-.9.1-1.2.3l-.7 1c-.2.4-.3.9-.3 1.4 0 .8.2 1.5.6 2 .4.5.9.7 1.5.7zm7.6.9a3 3 0 01-2.7-1.7 4 4 0 01-.5-1.9c0-.7.2-1.4.5-1.9a3 3 0 012.7-1.7c.5 0 1 .2 1.5.5s.9.7 1.2 1.2c.2.5.4 1.2.4 2a4 4 0 01-.4 1.8 3 3 0 01-1.2 1.2 3 3 0 01-1.5.5zm0-.9c.4 0 .7-.1 1-.3.3-.2.6-.6.8-1l.2-1.4c0-.5 0-1-.2-1.4l-.8-1c-.3-.2-.6-.3-1-.3s-.8.1-1.1.3c-.3.3-.6.6-.7 1-.2.4-.3.9-.3 1.4 0 .8.2 1.5.6 2 .4.5.9.7 1.5.7zm6 .9c-.3 0-.6-.1-.8-.4-.2-.2-.3-.6-.3-1V101h1v8.8l.1.4.3.1h.2l.2.8h-.7zm3-10c.3 0 .5.1.6.3.2.2.2.5.2.9 0 1-.4 1.9-1.4 2.4l-.3-.5c.4-.2.6-.5.8-.7.2-.3.2-.6.2-1-.3 0-.4 0-.6-.2a.6.6 0 01-.2-.5c0-.2 0-.4.2-.5l.5-.2zm3.9 10c-.5 0-1-.1-1.4-.3l-1.2-.7.6-.7 1 .7 1 .2c.4 0 .8-.1 1-.4.3-.2.4-.4.4-.8a1 1 0 00-.4-.7l-1.2-.6a6 6 0 01-1.5-.8c-.4-.2-.5-.6-.5-1.2 0-.5.2-1 .6-1.3.4-.4 1-.6 1.7-.6.3 0 .7.1 1 .3.4 0 .7.3 1 .5l-.5.7a4 4 0 00-.7-.5 2 2 0 00-.8-.1c-.5 0-.8 0-1 .3a1 1 0 00-.4.7l.2.5.5.4a32.3 32.3 0 002 .8c.3.1.5.3.7.6a1.8 1.8 0 010 2 2 2 0 01-.8.7 3 3 0 01-1.3.3zm8 0c-.4 0-.7-.1-.9-.4-.2-.2-.3-.6-.3-1V101h1v8.8l.1.4.3.1h.2l.2.8h-.7zm7.5-4v.6h-4.7c0 .8.3 1.4.7 1.9.5.4 1 .6 1.7.6a3 3 0 001.7-.5l.4.7-1 .5a3.7 3.7 0 01-3-.3c-.4-.2-.8-.7-1-1.2a4 4 0 01-.5-1.9c0-.7.2-1.3.4-1.9.3-.5.7-1 1.2-1.2.4-.3 1-.5 1.4-.5.9 0 1.5.3 2 .9.5.6.7 1.3.7 2.3zm-.9-.1c0-.7-.1-1.3-.4-1.7-.4-.3-.8-.5-1.3-.5s-1 .2-1.4.5c-.4.4-.6 1-.7 1.7h3.8zm4 4a2 2 0 01-1.4-.4c-.4-.4-.6-.8-.6-1.5s.3-1.3 1-1.6c.7-.4 1.7-.7 3.2-.9 0-.5 0-1-.3-1.3-.2-.3-.6-.5-1.1-.5-.7 0-1.4.2-2 .7l-.5-.7c.9-.6 1.8-.9 2.6-.9s1.4.3 1.8.8c.3.5.5 1.1.5 2v4.2h-.8v-.8h-.1c-.8.6-1.6 1-2.3 1zm.2-.8c.4 0 .7 0 1-.2l1-.7v-2a7 7 0 00-2.5.6c-.5.3-.7.7-.7 1.2 0 .4.1.7.4.9l.8.2zm5.3-6h.8v1.2h.1c.3-.5.5-.8.9-1a1.8 1.8 0 011.8-.3l-.2.9-.7-.1c-.3 0-.6.1-1 .4-.2.2-.5.6-.7 1.2v4.4h-1v-6.8zm4.7 0h.9v1l1.2-1c.3-.2.7-.3 1.2-.3.7 0 1.2.3 1.5.7.4.5.5 1.1.5 2v4.3h-1v-4.2c0-.6-.1-1.1-.3-1.4-.2-.3-.6-.5-1-.5s-.7.1-1 .3l-1 .8v5h-1v-6.8zm7.6 0h1v6.7h-1v-6.8zm.5-1.5l-.5-.2a.7.7 0 01-.2-.6l.2-.5.5-.1.5.1c.2.2.2.3.2.5 0 .3 0 .4-.2.6l-.5.2zm3 1.4h.7l.1 1 1.2-.9c.3-.2.7-.3 1.2-.3.7 0 1.2.3 1.5.7.4.5.5 1.1.5 2v4.3h-1v-4.2c0-.6-.1-1.1-.3-1.4-.2-.3-.6-.5-1-.5s-.7.1-1 .3l-1 .8v5h-1v-6.8zm9.8 10c-.9 0-1.6-.2-2-.5-.6-.4-.8-.8-.8-1.4 0-.3 0-.5.2-.8l.8-.7-.5-.5-.1-.7c0-.3 0-.5.2-.7l.5-.6-.6-.8c-.2-.3-.3-.7-.3-1a2.4 2.4 0 011.3-2.2l1.2-.3 1 .2h2.3v.8H317l.4.7.2.8c0 .4-.1.9-.3 1.2-.2.4-.5.7-1 .8a2.6 2.6 0 01-2.2.1l-.3.4-.2.4c0 .3.1.5.3.6.2.2.5.2 1 .2h1.3c.8 0 1.4.1 1.8.4.4.3.5.7.5 1.2 0 .4 0 .8-.4 1.2-.3.3-.6.6-1.2.8-.5.3-1 .4-1.7.4zm0-6c.4 0 .7-.2 1-.5.3-.3.5-.7.5-1.2s-.2-1-.5-1.2c-.3-.3-.6-.5-1-.5-.5 0-.8.2-1.1.5-.3.3-.5.7-.5 1.2s.2.9.5 1.2c.3.3.6.4 1 .4zm.1 5.2c.4 0 .8 0 1.2-.2l.8-.5.2-.7c0-.4 0-.6-.3-.7-.2-.2-.6-.2-1-.2h-1.3l-.9-.1c-.5.3-.7.7-.7 1.2 0 .4.2.7.5.9.4.2.9.3 1.5.3zm-82.8 6.8h.8l.1 1c.8-.8 1.5-1.2 2.2-1.2 1 0 1.6.5 1.9 1.4l1-1c.5-.2.8-.4 1.2-.4 1.4 0 2 1 2 2.7v4.3h-1v-4.2c0-.6 0-1.1-.3-1.4-.2-.3-.5-.5-1-.5s-1.1.4-1.8 1.1v5h-1v-4.2c0-.6 0-1.1-.3-1.4-.2-.3-.5-.5-1-.5s-1.1.4-1.8 1.1v5h-1v-6.8zm13.1 7a2 2 0 01-1.4-.5c-.4-.4-.6-.8-.6-1.5s.3-1.3 1-1.6c.7-.4 1.8-.7 3.2-.9 0-.5 0-1-.3-1.3-.2-.3-.6-.5-1.1-.5-.7 0-1.4.2-2 .7l-.5-.7c1-.6 1.8-.9 2.6-.9s1.4.3 1.8.8c.4.5.5 1.1.5 2v4.2h-.8v-.8h-.1c-.8.6-1.6 1-2.3 1zm.3-.9c.3 0 .6 0 1-.2l1-.7v-2c-1.2.1-2 .4-2.6.6-.4.3-.7.7-.7 1.2 0 .4.1.7.4.9l.9.2zm5.2-6h.8v1h.1c.4-.5.8-.7 1.1-1l1.2-.3c.7 0 1.2.3 1.6.7.3.5.5 1.1.5 2v4.3h-1v-4.2c0-.6-.1-1.1-.4-1.4-.2-.3-.5-.5-1-.5l-1 .3-1 .8v5h-1v-6.8zm9.1 6.9a2 2 0 01-1.4-.5c-.4-.4-.6-.8-.6-1.5s.4-1.3 1-1.6c.7-.4 1.8-.7 3.3-.9 0-.5-.2-1-.4-1.3-.2-.3-.6-.5-1.1-.5-.6 0-1.3.2-2 .7l-.5-.7c1-.6 1.8-.9 2.7-.9.7 0 1.3.3 1.7.8.4.5.6 1.1.6 2v4.2h-.9v-.8h-.1c-.8.6-1.6 1-2.3 1zm.3-.9c.3 0 .6 0 1-.2l1-.7v-2a7 7 0 00-2.5.6c-.5.3-.8.7-.8 1.2 0 .4.1.7.4.9l.9.2zm7.5 3.9c-.9 0-1.6-.2-2-.5-.6-.4-.8-.8-.8-1.4 0-.3 0-.5.2-.8l.7-.7-.4-.5-.2-.7c0-.3.1-.5.3-.7l.5-.6c-.3-.2-.5-.5-.6-.8-.2-.3-.3-.7-.3-1a2.4 2.4 0 011.3-2.2c.3-.2.8-.3 1.2-.3l1 .2h2.3v.8h-1.4l.4.7.2.8c0 .4-.1.9-.3 1.2-.3.4-.6.7-1 .8a2.6 2.6 0 01-2.2.1l-.4.4v.4c0 .3 0 .5.2.6.2.2.5.2 1 .2h1.3c.8 0 1.4.1 1.8.4.3.3.5.7.5 1.2 0 .4-.1.8-.4 1.2-.3.3-.7.6-1.2.8-.5.3-1 .4-1.7.4zm0-6c.3 0 .7-.2 1-.5.3-.3.4-.7.4-1.2s-.1-1-.4-1.2c-.3-.3-.6-.5-1-.5-.5 0-.9.2-1.2.5-.3.3-.4.7-.4 1.2s.1.9.4 1.2c.3.3.7.4 1.1.4zm0 5.2c.5 0 1 0 1.2-.2.4-.1.7-.3.8-.5.2-.2.3-.5.3-.7 0-.4-.1-.6-.3-.7-.3-.2-.6-.2-1-.2h-1.3l-1-.1c-.4.3-.7.7-.7 1.2 0 .4.2.7.6.9.4.2.9.3 1.5.3zm9.7-6.2v.6h-4.7c0 .8.2 1.4.7 1.9.4.4 1 .6 1.6.6a3 3 0 001.7-.5l.4.7-1 .5a3.7 3.7 0 01-2.8-.3c-.5-.2-1-.7-1.2-1.2a4 4 0 01-.4-1.9c0-.7.1-1.3.4-1.9.3-.5.7-1 1.1-1.2.5-.3 1-.5 1.5-.5.9 0 1.5.3 2 .9.4.6.7 1.3.7 2.3zm-1-.1c0-.7 0-1.3-.4-1.7-.3-.3-.7-.5-1.3-.5-.5 0-1 .2-1.3.5-.4.4-.6 1-.7 1.7h3.8zm2.7-2.9h.8l.1 1c.8-.8 1.5-1.2 2.2-1.2 1 0 1.6.5 1.9 1.4.3-.5.7-.8 1-1 .5-.2.8-.4 1.2-.4 1.4 0 2 1 2 2.7v4.3h-1v-4.2c0-.6 0-1.1-.3-1.4-.2-.3-.5-.5-1-.5s-1.1.4-1.8 1.1v5h-1v-4.2c0-.6 0-1.1-.3-1.4-.2-.3-.6-.5-1-.5-.5 0-1.1.4-1.8 1.1v5h-1v-6.8zm16.7 3v.6h-4.7c0 .8.3 1.4.7 1.9.5.4 1 .6 1.7.6a3 3 0 001.7-.5l.4.7-1 .5a3.7 3.7 0 01-2.9-.3c-.5-.2-.9-.7-1.2-1.2a4 4 0 01-.4-1.9c0-.7.2-1.3.4-1.9.3-.5.7-1 1.2-1.2.4-.3 1-.5 1.5-.5.8 0 1.4.3 2 .9.4.6.6 1.3.6 2.3zm-.9-.1c0-.7-.1-1.3-.4-1.7-.3-.3-.8-.5-1.3-.5s-1 .2-1.4.5c-.4.4-.6 1-.7 1.7h3.8zm2.6-2.9h.9v1h.1l1.1-.9 1.2-.3c.7 0 1.2.3 1.6.7.3.5.5 1.1.5 2v4.3h-1v-4.2c0-.6-.2-1.1-.4-1.4-.2-.3-.5-.5-1-.5-.3 0-.7.1-1 .3l-1 .8v5h-1v-6.8zm9.7 7c-.7 0-1.2-.2-1.4-.6-.3-.4-.5-1-.5-1.6v-4h-1v-.7h1l.2-2h.8v2h2v.8h-2v3.9c0 .4.1.8.3 1 .2.2.4.3.8.3.2 0 .5 0 .8-.2l.2.8a4 4 0 01-1.2.3zm-66.5 16c-.4 0-.9-.1-1.3-.3-.5-.2-.9-.4-1.2-.7l.5-.7 1 .7 1 .2c.5 0 .9-.1 1.1-.4.2-.2.4-.4.4-.8a1 1 0 00-.5-.7l-1.1-.6a6 6 0 01-1.5-.8c-.4-.2-.6-.6-.6-1.2 0-.5.2-1 .6-1.3.5-.4 1-.6 1.7-.6.4 0 .8.1 1.1.3.4 0 .7.3 1 .5l-.5.7a4 4 0 00-.8-.5 2 2 0 00-.8-.1c-.4 0-.7 0-1 .3a1 1 0 00-.3.7c0 .2 0 .4.2.5l.5.4a32.3 32.3 0 002 .8l.7.6a1.8 1.8 0 010 2 2 2 0 01-.9.7 3 3 0 01-1.3.3zm4.1 2.8a2 2 0 01-.7-.2l.1-.8.6.1c.4 0 .7-.1 1-.4l.6-1.1.1-.6-2.7-6.8h1l1.5 3.9.7 2 .4-1.4.2-.6 1.3-3.9h1l-2.6 7.4c-.3.8-.6 1.3-1 1.7a2 2 0 01-1.5.7zm8.2-2.8c-.5 0-1-.1-1.4-.3l-1.2-.7.6-.7 1 .7 1 .2c.5 0 .8-.1 1-.4.3-.2.4-.4.4-.8a1 1 0 00-.4-.7l-1.2-.6a6 6 0 01-1.5-.8c-.3-.2-.5-.6-.5-1.2 0-.5.2-1 .6-1.3.4-.4 1-.6 1.7-.6.4 0 .7.1 1 .3.4 0 .8.3 1 .5l-.5.7a4 4 0 00-.7-.5 2 2 0 00-.8-.1c-.4 0-.8 0-1 .3a1 1 0 00-.3.7c0 .2 0 .4.2.5l.5.4a32.3 32.3 0 002 .8l.6.6a1.8 1.8 0 010 2 2 2 0 01-.8.7 3 3 0 01-1.3.3zm6 0c-.7 0-1.2-.2-1.5-.6-.3-.4-.4-1-.4-1.6v-4h-1v-.7h1l.2-2h.8v2h1.9v.8h-1.9v3.9c0 .4.1.8.3 1 .1.2.4.3.8.3.2 0 .5 0 .8-.2l.2.8a4 4 0 01-1.2.3zm7.6-4v.6H262c0 .8.3 1.4.8 1.9.4.4 1 .6 1.6.6a3 3 0 001.7-.5l.4.7-1 .5a3.7 3.7 0 01-2.9-.3c-.5-.2-.8-.7-1.1-1.2a4 4 0 01-.5-1.9c0-.7.2-1.3.5-1.9.3-.5.6-1 1.1-1.2.5-.3 1-.5 1.5-.5.8 0 1.5.3 2 .9.4.6.7 1.3.7 2.3zm-1-.1c0-.7-.1-1.3-.4-1.7-.3-.3-.8-.5-1.3-.5s-1 .2-1.3.5c-.4.4-.7 1-.7 1.7h3.7zm2.7-2.9h.8v1h.1c.8-.8 1.5-1.2 2.1-1.2 1 0 1.6.5 2 1.4.3-.5.7-.8 1-1 .4-.2.8-.4 1.2-.4 1.4 0 2 1 2 2.7v4.3h-1v-4.2c0-.6 0-1.1-.3-1.4-.2-.3-.6-.5-1-.5-.5 0-1.1.4-1.8 1.1v5h-1v-4.2c0-.6-.1-1.1-.3-1.4-.3-.3-.6-.5-1-.5-.6 0-1.2.4-1.8 1.1v5h-1v-6.8zm15.4 7c-.4 0-.6-.1-.8-.4-.2-.2-.3-.6-.3-1V133h1v8.8l.1.4.3.1h.2l.1.8h-.6zm2.4-7h1v6.8h-1v-6.8zm.5-1.4l-.5-.2a.7.7 0 01-.2-.6l.2-.4c.2-.2.3-.2.5-.2s.4 0 .5.2c.2 0 .2.2.2.4 0 .3 0 .4-.2.6l-.5.2zm3-1.8h1v7l3-3.8h1l-2.2 2.7 2.6 4.1h-1.1l-2-3.4-1.4 1.6v1.8h-1v-10zm11.7 6.2v.6h-4.7c0 .8.2 1.4.7 1.9.4.4 1 .6 1.6.6a3 3 0 001.7-.5l.4.7-1 .5a3.7 3.7 0 01-2.8-.3c-.5-.2-1-.7-1.2-1.2a4 4 0 01-.4-1.9c0-.7.1-1.3.4-1.9.3-.5.7-1 1.1-1.2.5-.3 1-.5 1.5-.5.9 0 1.5.3 2 .9.4.6.7 1.3.7 2.3zm-1-.1c0-.7 0-1.3-.4-1.7-.3-.3-.7-.5-1.3-.5-.5 0-1 .2-1.3.5-.4.4-.6 1-.7 1.7h3.8zm-74.3 20c-.7 0-1.4-.1-2-.5a4 4 0 01-1.4-1.7 6 6 0 01-.5-2.5c0-1 .1-1.8.5-2.5a3.8 3.8 0 013.5-2.3c.5 0 1 .1 1.4.4.5.2.8.4 1.1.8l-.6.6c-.5-.6-1.1-.9-1.9-.9-.6 0-1 .2-1.5.5a3 3 0 00-1 1.3c-.3.6-.5 1.3-.5 2 0 .9.2 1.5.4 2.1.2.6.6 1 1 1.4.5.3 1 .5 1.6.5.4 0 .8-.1 1.1-.3l1-.8.6.6c-.3.5-.7.8-1.2 1-.5.3-1 .4-1.6.4zm6 0a2 2 0 01-1.4-.4c-.4-.4-.5-.8-.5-1.4 0-.8.3-1.4 1-1.7.6-.4 1.7-.7 3.2-.9 0-.5-.1-1-.4-1.3-.2-.3-.5-.5-1-.5-.7 0-1.4.2-2.1.7l-.4-.7c.9-.6 1.7-.9 2.6-.9.8 0 1.4.3 1.7.8.4.5.6 1.1.6 2v4.2h-.9v-.8c-.9.6-1.6 1-2.4 1zm.3-.8c.3 0 .7 0 1-.2l1-.7v-2c-1.2.1-2 .4-2.5.6-.5.3-.7.7-.7 1.2 0 .4 0 .7.3.9l1 .2zm5.2-6h.9v1l1.2-1c.3-.2.7-.3 1.2-.3.7 0 1.2.3 1.5.7.4.5.5 1.1.5 2v4.3h-1v-4.2c0-.6 0-1.1-.3-1.4-.2-.3-.6-.5-1-.5s-.7.1-1 .3l-1 .8v5h-1v-6.8zm6.6 0h1l1.4 3.9.6 2 .7-2 1.4-4h1l-2.5 6.8h-1.1l-2.5-6.8zm8.7 6.9a2 2 0 01-1.4-.5c-.4-.4-.6-.8-.6-1.4 0-.8.4-1.4 1-1.7.7-.4 1.8-.7 3.2-.9 0-.5 0-1-.3-1.3-.2-.3-.6-.5-1.1-.5-.7 0-1.3.2-2 .7l-.5-.7c1-.6 1.8-.9 2.7-.9.7 0 1.3.3 1.7.8.4.5.6 1.1.6 2v4.2h-.9v-.8h-.1c-.8.6-1.6 1-2.3 1zm.3-.9c.3 0 .6 0 1-.2l1-.7v-2a7 7 0 00-2.5.6c-.5.3-.8.7-.8 1.2 0 .4.1.7.4.9l.9.2zm7 .9c-.5 0-1-.1-1.4-.3-.5-.2-.9-.4-1.2-.7l.5-.7 1 .7 1 .2c.5 0 .9-.1 1.1-.4.2-.2.4-.4.4-.8a1 1 0 00-.5-.7l-1.1-.6a6 6 0 01-1.5-.8c-.4-.2-.6-.6-.6-1.2 0-.5.2-1 .6-1.3.5-.4 1-.6 1.7-.6.4 0 .8.1 1.1.3.4 0 .7.3 1 .5l-.5.7a4 4 0 00-.8-.5 2 2 0 00-.8-.1c-.4 0-.7 0-1 .3a1 1 0 00-.3.7c0 .2 0 .4.2.5l.5.4a32.3 32.3 0 002 .8l.7.6a1.8 1.8 0 010 2 2 2 0 01-.9.7 3 3 0 01-1.3.3zm8.9 0c-.7 0-1.2-.2-1.5-.6-.3-.4-.4-1-.4-1.6v-4h-1v-.7h1l.2-2h.8v2h1.9v.8h-1.9v3.9c0 .4 0 .8.3 1 .1.2.4.3.8.3l.8-.2.2.8a4 4 0 01-1.2.3zm5 0a3 3 0 01-2.7-1.7 4 4 0 01-.5-1.9c0-.7.2-1.4.5-1.9a3 3 0 012.7-1.7c.5 0 1 .2 1.5.5s.9.7 1.1 1.2c.3.5.5 1.2.5 2a4 4 0 01-.5 1.8 3 3 0 01-1 1.2 3 3 0 01-1.6.5zm0-.9c.4 0 .7-.1 1-.3.3-.2.6-.6.8-1l.2-1.4c0-.5 0-1-.2-1.4l-.8-1c-.3-.2-.6-.3-1-.3s-.8.1-1.1.3l-.8 1-.2 1.4c0 .8.2 1.5.6 2 .4.5.8.7 1.5.7zm9.3.9a2 2 0 01-1.5-.5c-.3-.4-.5-.8-.5-1.4 0-.8.3-1.4 1-1.7.7-.4 1.7-.7 3.2-.9 0-.5-.1-1-.3-1.3-.2-.3-.6-.5-1.1-.5-.7 0-1.4.2-2.1.7l-.4-.7c.9-.6 1.8-.9 2.6-.9s1.4.3 1.8.8c.3.5.5 1.1.5 2v4.2h-.8l-.1-.8c-.9.6-1.6 1-2.3 1zm.2-.9c.4 0 .7 0 1-.2l1-.7v-2a7 7 0 00-2.5.6c-.5.3-.7.7-.7 1.2 0 .4.1.7.3.9l1 .2zm7.9.9c-.6 0-1.2-.2-1.6-.5a3 3 0 01-1.2-1.2c-.3-.5-.4-1.2-.4-1.9s.2-1.4.4-1.9c.3-.5.7-1 1.2-1.2.5-.3 1-.5 1.6-.5.8 0 1.4.3 2 .9l-.5.6-.7-.4-.7-.2a2 2 0 00-1.1.3c-.4.3-.6.6-.8 1-.2.4-.3.9-.3 1.4 0 .8.2 1.5.6 2 .4.5 1 .7 1.6.7.5 0 1.1-.2 1.6-.7l.5.7c-.3.3-.7.5-1 .6l-1.2.3zm6 0c-.5 0-1-.2-1.6-.5a3 3 0 01-1.1-1.2c-.3-.5-.4-1.2-.4-1.9s.1-1.4.4-1.9c.3-.5.7-1 1.2-1.2.5-.3 1-.5 1.6-.5.8 0 1.4.3 2 .9l-.5.6-.7-.4-.7-.2a2 2 0 00-1.2.3l-.8 1-.2 1.4c0 .8.2 1.5.6 2 .4.5.9.7 1.5.7s1.2-.2 1.7-.7l.4.7c-.3.3-.6.5-1 .6-.4.2-.7.3-1.1.3zm8.7-4v.6h-4.7c0 .8.2 1.4.7 1.9.4.4 1 .6 1.6.6a3 3 0 001.7-.5l.4.7-1 .5a3.7 3.7 0 01-2.8-.3c-.5-.2-1-.7-1.2-1.2a4 4 0 01-.4-1.9c0-.7.1-1.3.4-1.9.3-.5.7-1 1.1-1.2.5-.3 1-.5 1.5-.5.9 0 1.5.3 2 .9.5.6.7 1.3.7 2.3zm-1-.1c0-.7 0-1.3-.4-1.7-.3-.3-.7-.5-1.3-.5-.5 0-1 .2-1.3.5-.4.4-.6 1-.7 1.7h3.8zm4.4 4c-.4 0-.9 0-1.3-.2l-1.2-.7.5-.7 1 .7 1 .2c.5 0 .9-.1 1.1-.4.3-.2.4-.4.4-.8a1 1 0 00-.4-.7l-1.2-.6a6 6 0 01-1.5-.8c-.4-.2-.6-.6-.6-1.2 0-.5.2-1 .7-1.3.4-.4 1-.6 1.7-.6.3 0 .7.1 1 .3.4 0 .7.3 1 .5l-.5.7a4 4 0 00-.8-.5 2 2 0 00-.8-.1c-.4 0-.7 0-1 .3a1 1 0 00-.3.7l.2.5.5.4a32.3 32.3 0 002 .8c.3.1.5.3.7.6a1.8 1.8 0 010 2 2 2 0 01-.9.7 3 3 0 01-1.3.3zm5.9 0c-.5 0-1 0-1.4-.2l-1.2-.7.6-.7 1 .7 1 .2c.5 0 .8-.1 1-.4.3-.2.4-.4.4-.8a1 1 0 00-.4-.7l-1.2-.6a6 6 0 01-1.5-.8c-.4-.2-.5-.6-.5-1.2 0-.5.2-1 .6-1.3.4-.4 1-.6 1.7-.6.4 0 .7.1 1 .3.4 0 .8.3 1 .5l-.5.7a4 4 0 00-.7-.5 2 2 0 00-.8-.1c-.5 0-.8 0-1 .3a1 1 0 00-.3.7c0 .2 0 .4.2.5 0 .2.3.3.5.4a32.3 32.3 0 001.9.8c.3.1.5.3.7.6a1.8 1.8 0 010 2 2 2 0 01-.8.7 3 3 0 01-1.3.3zM239.3 178a2 2 0 01-.8-.2l.2-.8.6.1c.3 0 .7-.1 1-.4l.5-1.1.2-.6-2.7-6.8h1l1.5 3.9.6 2h.1l.4-1.4.2-.6 1.3-3.9h1l-2.6 7.4c-.3.8-.6 1.3-1 1.7a2 2 0 01-1.5.7zm9-2.8a3 3 0 01-2.7-1.7 4 4 0 01-.5-1.9c0-.7.2-1.4.5-1.9a3 3 0 012.7-1.7c.5 0 1 .2 1.5.5s.9.7 1.2 1.2c.2.5.4 1.2.4 2a4 4 0 01-.4 1.8 3 3 0 01-1.2 1.2 3 3 0 01-1.5.5zm0-.9c.4 0 .7-.1 1-.3.3-.2.6-.6.8-1 .2-.4.2-.9.2-1.4 0-.5 0-1-.2-1.4-.2-.4-.4-.7-.8-1-.3-.2-.6-.3-1-.3s-.8.1-1.1.3c-.3.3-.6.6-.7 1-.2.4-.3.9-.3 1.4 0 .8.2 1.5.6 2 .4.5.9.7 1.5.7zm6.9.9c-.7 0-1.2-.3-1.6-.7-.3-.4-.5-1.1-.5-2v-4.3h1v4.2c0 .6.2 1.1.4 1.4.2.3.5.5 1 .5.4 0 .7-.1 1-.3l1-1v-4.8h1v6.8h-1v-1l-1.1.8c-.4.3-.8.4-1.2.4zm5.6-7h.8l.1 1.3c.3-.5.6-.8 1-1a1.8 1.8 0 011.7-.3l-.2.9-.6-.1c-.4 0-.7.1-1 .4-.3.2-.6.6-.8 1.2v4.4h-1v-6.8zm12.7 3v.6h-4.7c0 .8.3 1.4.7 1.9.5.4 1 .6 1.7.6a3 3 0 001.7-.5l.4.7-1 .5a3.7 3.7 0 01-2.9-.3c-.5-.2-.9-.7-1.2-1.2a4 4 0 01-.4-1.9c0-.7.2-1.3.4-1.9.3-.5.7-1 1.2-1.2.4-.3 1-.5 1.5-.5.8 0 1.5.3 2 .9.4.6.6 1.3.6 2.3zm-.9-.1c0-.7-.1-1.3-.4-1.7-.3-.3-.8-.5-1.3-.5s-1 .2-1.4.5c-.4.4-.6 1-.7 1.7h3.8zm3.8.4l-2-3.3h1l1 1.6.7 1 .7-1 .9-1.6h1l-2 3.4 2.2 3.4h-1.1l-1-1.7a26 26 0 00-.8-1.2l-.5.8-.3.4-1 1.7h-1l2.2-3.5zm6.3 3.7a2 2 0 01-1.5-.5c-.3-.4-.5-.8-.5-1.4 0-.8.3-1.4 1-1.7.7-.4 1.7-.7 3.2-.9 0-.5-.1-1-.3-1.3-.2-.3-.6-.5-1.1-.5-.7 0-1.4.2-2.1.7l-.4-.7c.9-.6 1.8-.9 2.6-.9s1.4.3 1.8.8c.3.5.5 1.1.5 2v4.2h-.8l-.1-.8c-.9.6-1.6 1-2.3 1zm.2-.9c.4 0 .7 0 1-.2l1-.7v-2a7 7 0 00-2.5.6c-.5.3-.7.7-.7 1.2 0 .4.1.7.3.9l1 .2zm5.2-6h.9v1h.1c.7-.9 1.4-1.3 2.1-1.3 1 0 1.6.5 1.9 1.4.4-.5.8-.8 1.1-1 .4-.2.8-.4 1.2-.4 1.3 0 2 1 2 2.7v4.3h-1v-4.2c0-.6-.1-1.1-.3-1.4-.2-.3-.6-.5-1-.5-.6 0-1.2.4-1.8 1.1v5h-1v-4.2c0-.6-.1-1.1-.4-1.4-.2-.3-.5-.5-1-.5s-1 .4-1.7 1.1v5h-1v-6.8zm12.1 6.9c-.2 0-.4-.1-.5-.3a.8.8 0 01-.3-.5c0-.3.1-.5.3-.6.1-.2.3-.3.5-.3s.4.1.5.3c.2.1.3.3.3.6 0 .2-.1.4-.3.5-.1.2-.3.3-.5.3z" fill="#5257E6"/><g clip-path="url(#clip4)"><path d="M299.3 56h-74.9a3.8 3.8 0 01-3.8-3.9V34.4c0-2 1.7-3.8 3.8-3.8h75c2 0 3.7 1.7 3.7 3.8v17.7c0 2.1-1.7 3.8-3.8 3.8zM307.4 43.3h12M316.1 46.5l3.3-3.2M316.1 40l3.3 3.3" stroke="#5257E6" stroke-miterlimit="10" stroke-linecap="round"/><path d="M234.7 43.5l2.4 1.3-1 1.8-2.5-1.5v2.7h-2V45l-2.4 1.5-1-1.8 2.4-1.3-2.4-1.3 1-1.8 2.4 1.4v-2.6h2v2.6l2.4-1.4 1 1.8-2.3 1.3zM246.2 43.5l2.4 1.3-1.1 1.8L245 45v2.7h-2V45l-2.4 1.5-1-1.8 2.3-1.3-2.3-1.3 1-1.8 2.4 1.4v-2.6h2v2.6l2.4-1.4 1 1.8-2.3 1.3zM257.7 43.5l2.3 1.3-1 1.8-2.4-1.5v2.7h-2V45l-2.4 1.5-1-1.8 2.3-1.3-2.3-1.3 1-1.8 2.4 1.4v-2.6h2v2.6l2.4-1.4 1 1.8-2.3 1.3zM269.2 43.5l2.3 1.3-1 1.8L268 45v2.7h-2V45l-2.4 1.5-1-1.8 2.3-1.3-2.4-1.3 1-1.8 2.5 1.4v-2.6h2v2.6l2.4-1.4 1 1.8-2.3 1.3zM280.6 43.5l2.4 1.3-1 1.8-2.4-1.5v2.7h-2V45l-2.4 1.5-1-1.8 2.3-1.3-2.4-1.3 1-1.8 2.5 1.4v-2.6h2v2.6l2.3-1.4 1.1 1.8-2.4 1.3zM292.6 45.7h-4l-.9 2h-2l3.9-9h2l4 9h-2.2l-.8-2zm-.6-1.5l-1.4-3.4-1.4 3.4h2.8z" fill="#5257E6"/></g><defs><clipPath id="clip0"><path fill="#fff" transform="translate(117 7)" d="M0 0h85.7v65H0z"/></clipPath><clipPath id="clip1"><path fill="#fff" transform="translate(3 233)" d="M0 0h93.7v50H0z"/></clipPath><clipPath id="clip2"><path fill="#fff" transform="translate(114 226)" d="M0 0h92.3v65H0z"/></clipPath><clipPath id="clip3"><path fill="#fff" transform="translate(243 226)" d="M0 0h54.8v65H0z"/></clipPath><clipPath id="clip4"><path fill="#fff" transform="translate(220 30)" d="M0 0h100v26.5H0z"/></clipPath></defs></svg>